{
DisplayStrings = (
I/IJ
);
classes = (
{
automatic = 1;
code = "A Aacute Acircumflex Adieresis Agrave Aring Atilde AE B C Ccedilla D E Eacute Ecircumflex Edieresis Egrave F G H I IJ Iacute Icircumflex Idieresis Igrave J K L M N Ntilde O Oacute Ocircumflex Odieresis Ograve Oslash Otilde OE P Q R S T U Uacute Ucircumflex Udieresis Ugrave V W Wacute Wcircumflex Wdieresis Wgrave X Y Yacute Ycircumflex Ydieresis Ygrave Z";
name = Uppercase;
}
);
date = "2012-09-19 04:02:27 +0000";
designer = "Sora Sagano";
designerURL = "http://www.dotcolon.net/";
familyName = "Vegur";
featurePrefixes = (
{
automatic = 1;
code = "languagesystem DFLT dflt;\012languagesystem latn dflt;\012";
name = Languagesystems;
}
);
features = (
{
automatic = 1;
code = "sub f i by fi;\012sub f l by fl;";
name = liga;
},
{
automatic = 1;
code = "pos @Uppercase <5 0 10 0>;";
name = cpsp;
}
);
fontMaster = (
{
ascender = 765;
capHeight = 688;
descender = "-235";
id = "6D2C0C40-443C-46D1-B6D4-3F78476E95FC";
weight = Light;
widthValue = 500;
xHeight = 478;
},
{
ascender = 765;
capHeight = 688;
descender = "-235";
id = "FE64E73E-EA44-4B20-B2ED-18E4C3E872F4";
weightValue = 500;
widthValue = 500;
xHeight = 478;
},
{
ascender = 765;
capHeight = 688;
descender = "-235";
id = "24BDA9C5-7BA7-4A63-82ED-F7EF9C664871";
weight = Bold;
weightValue = 800;
widthValue = 500;
xHeight = 478;
}
);
glyphs = (
{
glyphname = A;
lastChange = "2012-11-27 07:05:40 +0000";
layers = (
{
anchors = (
{
name = ogonek;
position = "{491, 10}";
},
{
name = top;
position = "{299, 680}";
}
);
layerId = "FE64E73E-EA44-4B20-B2ED-18E4C3E872F4";
name = Regular;
paths = (
{
closed = 1;
nodes = (
"246 688 LINE",
"13 0 LINE",
"100 0 LINE",
"297 615 LINE",
"495 0 LINE",
"585 0 LINE",
"352 688 LINE"
);
},
{
closed = 1;
nodes = (
"178 299 LINE",
"158 227 LINE",
"432 227 LINE",
"411 299 LINE"
);
}
);
width = 596;
},
{
anchors = (
{
name = ogonek;
position = "{473, 10}";
},
{
name = top;
position = "{278, 680}";
}
);
layerId = "6D2C0C40-443C-46D1-B6D4-3F78476E95FC";
name = Light;
paths = (
{
closed = 1;
nodes = (
"256 688 LINE",
"22 0 LINE",
"57 0 LINE",
"277 654 LINE",
"496 0 LINE",
"532 0 LINE",
"300 688 LINE"
);
},
{
closed = 1;
nodes = (
"142 279 LINE",
"132 247 LINE",
"421 247 LINE",
"411 279 LINE"
);
}
);
width = 554;
},
{
anchors = (
{
name = ogonek;
position = "{531, 10}";
},
{
name = top;
position = "{316, 680}";
}
);
layerId = "24BDA9C5-7BA7-4A63-82ED-F7EF9C664871";
name = Bold;
paths = (
{
closed = 1;
nodes = (
"237 688 LINE",
"3 0 LINE",
"145 0 LINE",
"314 561 LINE",
"483 0 LINE",
"629 0 LINE",
"395 688 LINE"
);
},
{
closed = 1;
nodes = (
"221 318 LINE",
"192 206 LINE",
"436 206 LINE",
"407 318 LINE"
);
}
);
width = 633;
}
);
leftKerningGroup = A;
rightKerningGroup = A;
unicode = 0041;
},
{
glyphname = AE;
lastChange = "2012-11-27 07:05:40 +0000";
layers = (
{
anchors = (
{
name = top;
position = "{428, 688}";
}
);
layerId = "FE64E73E-EA44-4B20-B2ED-18E4C3E872F4";
name = Regular;
paths = (
{
closed = 1;
nodes = (
"484 383 LINE",
"494 311 LINE",
"752 311 LINE",
"752 383 LINE"
);
},
{
closed = 1;
nodes = (
"396 634 LINE",
"421 684 LINE",
"340 684 LINE",
"1 0 LINE",
"98 0 LINE"
);
},
{
closed = 1;
nodes = (
"813 72 LINE",
"532 72 LINE",
"467 612 LINE",
"773 612 LINE",
"773 684 LINE",
"374 684 LINE",
"457 0 LINE",
"813 0 LINE"
);
},
{
closed = 1;
nodes = (
"442 299 LINE",
"222 299 LINE",
"190 227 LINE",
"463 227 LINE"
);
}
);
width = 852;
},
{
anchors = (
{
name = top;
position = "{345, 700}";
}
);
layerId = "6D2C0C40-443C-46D1-B6D4-3F78476E95FC";
name = Light;
paths = (
{
closed = 1;
nodes = (
"466 363 LINE",
"470 331 LINE",
"734 331 LINE",
"734 363 LINE"
);
},
{
closed = 1;
nodes = (
"407 658 LINE",
"430 684 LINE",
"386 684 LINE",
"32 0 LINE",
"69 0 LINE"
);
},
{
closed = 1;
nodes = (
"790 32 LINE",
"513 32 LINE",
"439 652 LINE",
"746 652 LINE",
"746 684 LINE",
"402 684 LINE",
"482 0 LINE",
"790 0 LINE"
);
},
{
closed = 1;
nodes = (
"461 279 LINE",
"192 279 LINE",
"182 247 LINE",
"471 247 LINE"
);
}
);
width = 829;
},
{
anchors = (
{
name = top;
position = "{390, 688}";
}
);
layerId = "24BDA9C5-7BA7-4A63-82ED-F7EF9C664871";
name = Bold;
paths = (
{
closed = 1;
nodes = (
"537 403 LINE",
"552 291 LINE",
"799 291 LINE",
"799 403 LINE"
);
},
{
closed = 1;
nodes = (
"433 624 LINE",
"462 684 LINE",
"347 684 LINE",
"17 0 LINE",
"158 0 LINE"
);
},
{
closed = 1;
nodes = (
"853 112 LINE",
"590 112 LINE",
"532 572 LINE",
"825 572 LINE",
"825 684 LINE",
"401 684 LINE",
"481 0 LINE",
"853 0 LINE"
);
},
{
closed = 1;
nodes = (
"452 318 LINE",
"281 318 LINE",
"238 206 LINE",
"481 206 LINE"
);
}
);
width = 882;
}
);
unicode = 00C6;
},
{
glyphname = B;
lastChange = "2012-11-27 07:05:40 +0000";
layers = (
{
layerId = "FE64E73E-EA44-4B20-B2ED-18E4C3E872F4";
name = Regular;
paths = (
{
closed = 1;
nodes = (
"190 698 OFFCURVE",
"134 693 OFFCURVE",
"76 685 CURVE",
"76 3 LINE",
"118 -6 OFFCURVE",
"165 -10 OFFCURVE",
"220 -10 CURVE SMOOTH",
"369 -10 OFFCURVE",
"473 63 OFFCURVE",
"473 183 CURVE SMOOTH",
"473 265 OFFCURVE",
"412 339 OFFCURVE",
"316 352 CURVE",
"401 369 OFFCURVE",
"469 430 OFFCURVE",
"469 513 CURVE SMOOTH",
"469 623 OFFCURVE",
"397 698 OFFCURVE",
"226 698 CURVE SMOOTH"
);
},
{
closed = 1;
nodes = (
"329 306 OFFCURVE",
"383 251 OFFCURVE",
"383 173 CURVE SMOOTH",
"383 102 OFFCURVE",
"314 62 OFFCURVE",
"234 62 CURVE SMOOTH",
"213 62 OFFCURVE",
"184 64 OFFCURVE",
"158 66 CURVE",
"158 306 LINE",
"205 306 LINE SMOOTH"
);
},
{
closed = 1;
nodes = (
"330 626 OFFCURVE",
"380 583 OFFCURVE",
"380 502 CURVE SMOOTH",
"380 417 OFFCURVE",
"304 373 OFFCURVE",
"200 373 CURVE SMOOTH",
"158 373 LINE",
"158 621 LINE",
"190 625 OFFCURVE",
"206 626 OFFCURVE",
"228 626 CURVE SMOOTH"
);
}
);
width = 517;
},
{
layerId = "6D2C0C40-443C-46D1-B6D4-3F78476E95FC";
name = Light;
paths = (
{
closed = 1;
nodes = (
"162 698 OFFCURVE",
"130 695 OFFCURVE",
"88 687 CURVE",
"88 0 LINE",
"120 -7 OFFCURVE",
"155 -10 OFFCURVE",
"184 -10 CURVE SMOOTH",
"333 -10 OFFCURVE",
"436 59 OFFCURVE",
"436 177 CURVE SMOOTH",
"436 270 OFFCURVE",
"363 336 OFFCURVE",
"255 348 CURVE",
"340 359 OFFCURVE",
"432 419 OFFCURVE",
"432 525 CURVE SMOOTH",
"432 627 OFFCURVE",
"353 698 OFFCURVE",
"190 698 CURVE SMOOTH"
);
},
{
closed = 1;
nodes = (
"322 324 OFFCURVE",
"398 269 OFFCURVE",
"398 169 CURVE SMOOTH",
"398 79 OFFCURVE",
"309 22 OFFCURVE",
"198 22 CURVE SMOOTH",
"177 22 OFFCURVE",
"148 24 OFFCURVE",
"122 28 CURVE",
"122 324 LINE",
"179 324 LINE SMOOTH"
);
},
{
closed = 1;
nodes = (
"329 666 OFFCURVE",
"395 612 OFFCURVE",
"395 517 CURVE SMOOTH",
"395 411 OFFCURVE",
"275 356 OFFCURVE",
"167 356 CURVE SMOOTH",
"122 356 LINE",
"122 660 LINE",
"148 664 OFFCURVE",
"170 666 OFFCURVE",
"192 666 CURVE SMOOTH"
);
}
);
width = 492;
},
{
layerId = "24BDA9C5-7BA7-4A63-82ED-F7EF9C664871";
name = Bold;
paths = (
{
closed = 1;
nodes = (
"194 698 OFFCURVE",
"112 694 OFFCURVE",
"56 687 CURVE",
"56 0 LINE",
"98 -9 OFFCURVE",
"172 -14 OFFCURVE",
"227 -14 CURVE SMOOTH",
"376 -14 OFFCURVE",
"502 51 OFFCURVE",
"502 189 CURVE",
"502 272 OFFCURVE",
"453 337 OFFCURVE",
"357 352 CURVE",
"439 371 OFFCURVE",
"499 424 OFFCURVE",
"498 514 CURVE SMOOTH",
"497 626 OFFCURVE",
"405 698 OFFCURVE",
"236 698 CURVE SMOOTH"
);
},
{
closed = 1;
nodes = (
"319 286 OFFCURVE",
"362 251 OFFCURVE",
"362 187 CURVE SMOOTH",
"362 128 OFFCURVE",
"305 98 OFFCURVE",
"243 98 CURVE SMOOTH",
"225 98 OFFCURVE",
"206 98 OFFCURVE",
"188 100 CURVE",
"188 286 LINE",
"235 286 LINE SMOOTH"
);
},
{
closed = 1;
nodes = (
"321 586 OFFCURVE",
"358 543 OFFCURVE",
"358 492 CURVE SMOOTH",
"358 429 OFFCURVE",
"308 393 OFFCURVE",
"223 393 CURVE SMOOTH",
"188 393 LINE",
"188 584 LINE",
"208 586 OFFCURVE",
"224 586 OFFCURVE",
"245 586 CURVE SMOOTH"
);
}
);
width = 541;
}
);
unicode = 0042;
},
{
glyphname = C;
lastChange = "2012-11-27 07:05:40 +0000";
layers = (
{
anchors = (
{
name = bottom;
position = "{385, 0}";
},
{
name = top;
position = "{302, 700}";
}
);
layerId = "FE64E73E-EA44-4B20-B2ED-18E4C3E872F4";
name = Regular;
paths = (
{
closed = 1;
nodes = (
"226 698 OFFCURVE",
"44 586 OFFCURVE",
"44 339 CURVE SMOOTH",
"44 119 OFFCURVE",
"190 -10 OFFCURVE",
"385 -10 CURVE SMOOTH",
"459 -10 OFFCURVE",
"524 0 OFFCURVE",
"584 29 CURVE",
"577 103 LINE",
"519 74 OFFCURVE",
"465 62 OFFCURVE",
"396 62 CURVE SMOOTH",
"262 62 OFFCURVE",
"136 151 OFFCURVE",
"136 346 CURVE SMOOTH",
"136 533 OFFCURVE",
"271 626 OFFCURVE",
"399 626 CURVE SMOOTH",
"476 626 OFFCURVE",
"533 612 OFFCURVE",
"586 581 CURVE",
"592 656 LINE",
"550 682 OFFCURVE",
"484 698 OFFCURVE",
"404 698 CURVE SMOOTH"
);
}
);
width = 621;
},
{
anchors = (
{
name = bottom;
position = "{366, 0}";
},
{
name = top;
position = "{310, 700}";
}
);
layerId = "6D2C0C40-443C-46D1-B6D4-3F78476E95FC";
name = Light;
paths = (
{
closed = 1;
nodes = (
"209 698 OFFCURVE",
"61 554 OFFCURVE",
"61 339 CURVE SMOOTH",
"61 114 OFFCURVE",
"203 -10 OFFCURVE",
"367 -10 CURVE SMOOTH",
"441 -10 OFFCURVE",
"494 3 OFFCURVE",
"547 32 CURVE",
"544 65 LINE",
"491 36 OFFCURVE",
"447 22 OFFCURVE",
"378 22 CURVE SMOOTH",
"231 22 OFFCURVE",
"97 128 OFFCURVE",
"97 347 CURVE SMOOTH",
"97 538 OFFCURVE",
"232 666 OFFCURVE",
"386 666 CURVE SMOOTH",
"457 666 OFFCURVE",
"502 652 OFFCURVE",
"552 623 CURVE",
"556 656 LINE",
"523 679 OFFCURVE",
"462 698 OFFCURVE",
"385 698 CURVE SMOOTH"
);
}
);
width = 595;
},
{
anchors = (
{
name = bottom;
position = "{363, 0}";
},
{
name = top;
position = "{307, 688}";
}
);
layerId = "24BDA9C5-7BA7-4A63-82ED-F7EF9C664871";
name = Bold;
paths = (
{
closed = 1;
nodes = (
"209 702 OFFCURVE",
"38 577 OFFCURVE",
"38 341 CURVE SMOOTH",
"38 108 OFFCURVE",
"180 -14 OFFCURVE",
"382 -14 CURVE SMOOTH",
"455 -14 OFFCURVE",
"529 -1 OFFCURVE",
"585 29 CURVE",
"575 142 LINE",
"516 112 OFFCURVE",
"464 98 OFFCURVE",
"402 98 CURVE SMOOTH",
"269 98 OFFCURVE",
"180 192 OFFCURVE",
"180 352 CURVE SMOOTH",
"180 508 OFFCURVE",
"284 590 OFFCURVE",
"405 590 CURVE SMOOTH",
"477 590 OFFCURVE",
"536 573 OFFCURVE",
"582 548 CURVE",
"595 662 LINE",
"554 686 OFFCURVE",
"492 702 OFFCURVE",
"405 702 CURVE SMOOTH"
);
}
);
width = 614;
}
);
leftKerningGroup = C;
rightKerningGroup = C;
unicode = 0043;
},
{
glyphname = D;
lastChange = "2012-11-27 07:05:40 +0000";
layers = (
{
anchors = (
{
name = center;
position = "{300, 350}";
},
{
name = top;
position = "{300, 700}";
}
);
layerId = "FE64E73E-EA44-4B20-B2ED-18E4C3E872F4";
name = Regular;
paths = (
{
closed = 1;
nodes = (
"199 698 OFFCURVE",
"136 693 OFFCURVE",
"76 686 CURVE",
"76 3 LINE",
"116 -5 OFFCURVE",
"179 -10 OFFCURVE",
"217 -10 CURVE SMOOTH",
"452 -10 OFFCURVE",
"624 123 OFFCURVE",
"624 358 CURVE SMOOTH",
"624 560 OFFCURVE",
"500 698 OFFCURVE",
"243 698 CURVE SMOOTH"
);
},
{
closed = 1;
nodes = (
"436 626 OFFCURVE",
"535 526 OFFCURVE",
"535 348 CURVE SMOOTH",
"535 165 OFFCURVE",
"402 62 OFFCURVE",
"223 62 CURVE SMOOTH",
"208 62 OFFCURVE",
"180 64 OFFCURVE",
"158 67 CURVE",
"158 620 LINE",
"188 624 OFFCURVE",
"218 626 OFFCURVE",
"240 626 CURVE SMOOTH"
);
}
);
width = 665;
},
{
anchors = (
{
name = center;
position = "{303, 350}";
},
{
name = top;
position = "{303, 700}";
}
);
layerId = "6D2C0C40-443C-46D1-B6D4-3F78476E95FC";
name = Light;
paths = (
{
closed = 1;
nodes = (
"181 698 OFFCURVE",
"142 696 OFFCURVE",
"88 685 CURVE",
"88 1 LINE",
"131 -7 OFFCURVE",
"169 -10 OFFCURVE",
"204 -10 CURVE SMOOTH",
"419 -10 OFFCURVE",
"585 125 OFFCURVE",
"585 359 CURVE SMOOTH",
"585 540 OFFCURVE",
"468 698 OFFCURVE",
"225 698 CURVE SMOOTH"
);
},
{
closed = 1;
nodes = (
"427 666 OFFCURVE",
"549 542 OFFCURVE",
"549 346 CURVE SMOOTH",
"549 155 OFFCURVE",
"397 22 OFFCURVE",
"210 22 CURVE SMOOTH",
"183 22 OFFCURVE",
"153 24 OFFCURVE",
"122 28 CURVE",
"122 657 LINE",
"150 663 OFFCURVE",
"188 666 OFFCURVE",
"222 666 CURVE SMOOTH"
);
}
);
width = 646;
},
{
anchors = (
{
name = center;
position = "{290, 344}";
},
{
name = top;
position = "{290, 688}";
}
);
layerId = "24BDA9C5-7BA7-4A63-82ED-F7EF9C664871";
name = Bold;
paths = (
{
closed = 1;
nodes = (
"203 698 OFFCURVE",
"120 693 OFFCURVE",
"56 684 CURVE",
"56 -1 LINE",
"110 -10 OFFCURVE",
"183 -14 OFFCURVE",
"235 -14 CURVE SMOOTH",
"470 -14 OFFCURVE",
"648 122 OFFCURVE",
"648 356 CURVE SMOOTH",
"648 565 OFFCURVE",
"515 698 OFFCURVE",
"259 698 CURVE SMOOTH"
);
},
{
closed = 1;
nodes = (
"435 586 OFFCURVE",
"506 479 OFFCURVE",
"506 344 CURVE SMOOTH",
"506 193 OFFCURVE",
"406 98 OFFCURVE",
"253 98 CURVE SMOOTH",
"238 98 OFFCURVE",
"212 99 OFFCURVE",
"188 102 CURVE",
"188 580 LINE",
"218 584 OFFCURVE",
"249 586 OFFCURVE",
"270 586 CURVE SMOOTH"
);
}
);
width = 681;
}
);
unicode = 0044;
},
{
glyphname = E;
lastChange = "2012-11-27 07:05:40 +0000";
layers = (
{
anchors = (
{
name = bottom;
position = "{258, 0}";
},
{
name = ogonek;
position = "{436, 10}";
},
{
name = top;
position = "{263, 680}";
}
);
layerId = "FE64E73E-EA44-4B20-B2ED-18E4C3E872F4";
name = Regular;
paths = (
{
closed = 1;
nodes = (
"76 684 LINE",
"76 0 LINE",
"446 0 LINE",
"446 72 LINE",
"158 72 LINE",
"158 311 LINE",
"410 311 LINE",
"410 383 LINE",
"158 383 LINE",
"158 612 LINE",
"442 612 LINE",
"442 684 LINE"
);
}
);
width = 485;
},
{
anchors = (
{
name = bottom;
position = "{302, 0}";
},
{
name = ogonek;
position = "{542, 10}";
},
{
name = top;
position = "{240, 680}";
}
);
layerId = "6D2C0C40-443C-46D1-B6D4-3F78476E95FC";
name = Light;
paths = (
{
closed = 1;
nodes = (
"88 684 LINE",
"88 0 LINE",
"396 0 LINE",
"396 32 LINE",
"122 32 LINE",
"122 331 LINE",
"360 331 LINE",
"360 363 LINE",
"122 363 LINE",
"122 652 LINE",
"392 652 LINE",
"392 684 LINE"
);
}
);
width = 442;
},
{
anchors = (
{
name = bottom;
position = "{290, 0}";
},
{
name = ogonek;
position = "{530, 10}";
},
{
name = top;
position = "{270, 680}";
}
);
layerId = "24BDA9C5-7BA7-4A63-82ED-F7EF9C664871";
name = Bold;
paths = (
{
closed = 1;
nodes = (
"56 684 LINE",
"56 0 LINE",
"476 0 LINE",
"476 112 LINE",
"188 112 LINE",
"188 291 LINE",
"440 291 LINE",
"440 403 LINE",
"188 403 LINE",
"188 572 LINE",
"472 572 LINE",
"472 684 LINE"
);
}
);
width = 505;
}
);
leftKerningGroup = E;
rightKerningGroup = E;
unicode = 0045;
},
{
glyphname = F;
lastChange = "2012-11-27 07:05:40 +0000";
layers = (
{
layerId = "FE64E73E-EA44-4B20-B2ED-18E4C3E872F4";
name = Regular;
paths = (
{
closed = 1;
nodes = (
"76 684 LINE",
"76 0 LINE",
"158 0 LINE",
"158 277 LINE",
"410 277 LINE",
"410 349 LINE",
"158 349 LINE",
"158 612 LINE",
"442 612 LINE",
"442 684 LINE"
);
}
);
width = 459;
},
{
layerId = "6D2C0C40-443C-46D1-B6D4-3F78476E95FC";
name = Light;
paths = (
{
closed = 1;
nodes = (
"88 684 LINE",
"88 0 LINE",
"122 0 LINE",
"122 297 LINE",
"360 297 LINE",
"360 329 LINE",
"122 329 LINE",
"122 652 LINE",
"392 652 LINE",
"392 684 LINE"
);
}
);
width = 413;
},
{
layerId = "24BDA9C5-7BA7-4A63-82ED-F7EF9C664871";
name = Bold;
paths = (
{
closed = 1;
nodes = (
"56 684 LINE",
"56 0 LINE",
"188 0 LINE",
"188 257 LINE",
"440 257 LINE",
"440 369 LINE",
"188 369 LINE",
"188 572 LINE",
"472 572 LINE",
"472 684 LINE"
);
}
);
width = 484;
}
);
unicode = 0046;
},
{
glyphname = G;
lastChange = "2013-02-10 20:30:39 +0000";
layers = (
{
anchors = (
{
name = bottom;
position = "{303, 0}";
},
{
name = top;
position = "{362, 680}";
}
);
layerId = "FE64E73E-EA44-4B20-B2ED-18E4C3E872F4";
name = Regular;
paths = (
{
closed = 1;
nodes = (
"223 698 OFFCURVE",
"44 582 OFFCURVE",
"44 339 CURVE SMOOTH",
"44 115 OFFCURVE",
"173 -10 OFFCURVE",
"372 -10 CURVE",
"436 -10 OFFCURVE",
"532 5 OFFCURVE",
"588 29 CURVE",
"588 331 LINE",
"359 331 LINE",
"359 259 LINE",
"506 259 LINE",
"506 83 LINE",
"471 69 OFFCURVE",
"416 62 OFFCURVE",
"381 62 CURVE SMOOTH",
"237 62 OFFCURVE",
"136 155 OFFCURVE",
"136 347 CURVE SMOOTH",
"136 534 OFFCURVE",
"261 627 OFFCURVE",
"391 627 CURVE SMOOTH",
"471 627 OFFCURVE",
"536 608 OFFCURVE",
"589 577 CURVE",
"595 654 LINE",
"553 682 OFFCURVE",
"478 698 OFFCURVE",
"401 698 CURVE SMOOTH"
);
}
);
width = 653;
},
{
anchors = (
{
name = bottom;
position = "{310, 0}";
},
{
name = top;
position = "{355, 680}";
}
);
layerId = "6D2C0C40-443C-46D1-B6D4-3F78476E95FC";
name = Light;
paths = (
{
closed = 1;
nodes = (
"212 698 OFFCURVE",
"61 560 OFFCURVE",
"61 339 CURVE SMOOTH",
"61 122 OFFCURVE",
"187 -10 OFFCURVE",
"379 -10 CURVE SMOOTH",
"443 -10 OFFCURVE",
"505 4 OFFCURVE",
"552 25 CURVE",
"552 311 LINE",
"371 311 LINE",
"371 279 LINE",
"518 279 LINE",
"518 45 LINE",
"487 32 OFFCURVE",
"439 22 OFFCURVE",
"388 22 CURVE SMOOTH",
"246 22 OFFCURVE",
"97 100 OFFCURVE",
"97 347 CURVE",
"97 544 OFFCURVE",
"237 666 OFFCURVE",
"387 666 CURVE SMOOTH",
"455 666 OFFCURVE",
"504 653 OFFCURVE",
"552 623 CURVE",
"556 658 LINE",
"523 681 OFFCURVE",
"461 698 OFFCURVE",
"384 698 CURVE SMOOTH"
);
}
);
width = 614;
},
{
anchors = (
{
name = bottom;
position = "{311, 0}";
},
{
name = top;
position = "{366, 680}";
}
);
layerId = "24BDA9C5-7BA7-4A63-82ED-F7EF9C664871";
name = Bold;
paths = (
{
closed = 1;
nodes = (
"205 702 OFFCURVE",
"38 574 OFFCURVE",
"38 332 CURVE SMOOTH",
"38 97 OFFCURVE",
"177 -14 OFFCURVE",
"370 -14 CURVE SMOOTH",
"445 -14 OFFCURVE",
"530 -2 OFFCURVE",
"596 24 CURVE",
"596 362 LINE",
"357 362 LINE",
"357 250 LINE",
"464 250 LINE",
"464 111 LINE",
"436 102 OFFCURVE",
"404 98 OFFCURVE",
"379 98 CURVE SMOOTH",
"255 98 OFFCURVE",
"180 172 OFFCURVE",
"180 343 CURVE SMOOTH",
"180 504 OFFCURVE",
"286 590 OFFCURVE",
"406 590 CURVE SMOOTH",
"478 590 OFFCURVE",
"540 573 OFFCURVE",
"586 548 CURVE",
"599 662 LINE",
"558 686 OFFCURVE",
"493 702 OFFCURVE",
"406 702 CURVE SMOOTH"
);
}
);
width = 649;
}
);
leftKerningGroup = G;
rightKerningGroup = G;
unicode = 0047;
},
{
glyphname = H;
lastChange = "2012-11-27 07:05:40 +0000";
layers = (
{
anchors = (
{
name = center;
position = "{300, 350}";
},
{
name = top;
position = "{300, 700}";
}
);
layerId = "FE64E73E-EA44-4B20-B2ED-18E4C3E872F4";
name = Regular;
paths = (
{
closed = 1;
nodes = (
"520 688 LINE",
"520 383 LINE",
"158 383 LINE",
"158 688 LINE",
"76 688 LINE",
"76 0 LINE",
"158 0 LINE",
"158 311 LINE",
"520 311 LINE",
"520 0 LINE",
"602 0 LINE",
"602 688 LINE"
);
}
);
width = 672;
},
{
anchors = (
{
name = center;
position = "{302, 350}";
},
{
name = top;
position = "{302, 700}";
}
);
layerId = "6D2C0C40-443C-46D1-B6D4-3F78476E95FC";
name = Light;
paths = (
{
closed = 1;
nodes = (
"494 688 LINE",
"494 363 LINE",
"122 363 LINE",
"122 688 LINE",
"88 688 LINE",
"88 0 LINE",
"122 0 LINE",
"122 331 LINE",
"494 331 LINE",
"494 0 LINE",
"528 0 LINE",
"528 688 LINE"
);
}
);
width = 612;
},
{
anchors = (
{
name = center;
position = "{280, 344}";
},
{
name = top;
position = "{280, 688}";
}
);
layerId = "24BDA9C5-7BA7-4A63-82ED-F7EF9C664871";
name = Bold;
paths = (
{
closed = 1;
nodes = (
"500 688 LINE",
"500 403 LINE",
"188 403 LINE",
"188 688 LINE",
"56 688 LINE",
"56 0 LINE",
"188 0 LINE",
"188 291 LINE",
"500 291 LINE",
"500 0 LINE",
"632 0 LINE",
"632 688 LINE"
);
}
);
width = 688;
}
);
unicode = 0048;
},
{
glyphname = I;
lastChange = "2015-04-19 03:41:09 +0000";
layers = (
{
anchors = (
{
name = itop;
position = "{117, 690}";
},
{
name = ogonek;
position = "{540, 10}";
},
{
name = top;
position = "{114, 688}";
}
);
layerId = "FE64E73E-EA44-4B20-B2ED-18E4C3E872F4";
name = Regular;
paths = (
{
closed = 1;
nodes = (
"76 688 LINE",
"76 0 LINE",
"158 0 LINE",
"158 688 LINE"
);
}
);
width = 228;
},
{
anchors = (
{
name = ogonek;
position = "{542, 10}";
},
{
name = top;
position = "{105, 680}";
}
);
layerId = "6D2C0C40-443C-46D1-B6D4-3F78476E95FC";
name = Light;
paths = (
{
closed = 1;
nodes = (
"88 688 LINE",
"88 0 LINE",
"122 0 LINE",
"122 688 LINE"
);
}
);
width = 206;
},
{
anchors = (
{
name = ogonek;
position = "{530, 10}";
},
{
name = top;
position = "{122, 680}";
}
);
layerId = "24BDA9C5-7BA7-4A63-82ED-F7EF9C664871";
name = Bold;
paths = (
{
closed = 1;
nodes = (
"56 688 LINE",
"56 0 LINE",
"188 0 LINE",
"188 688 LINE"
);
}
);
width = 244;
}
);
leftKerningGroup = I;
rightKerningGroup = I;
unicode = 0049;
},
{
glyphname = Idotaccent;
lastChange = "2013-02-10 20:32:53 +0000";
layers = (
{
components = (
{
name = I;
transform = "{1, 0, 0, 1, 0, 0}";
}
);
layerId = "6D2C0C40-443C-46D1-B6D4-3F78476E95FC";
name = Light;
paths = (
{
closed = 1;
nodes = (
"90 821 OFFCURVE",
"78 809 OFFCURVE",
"78 794 CURVE SMOOTH",
"78 779 OFFCURVE",
"90 767 OFFCURVE",
"105 767 CURVE SMOOTH",
"120 767 OFFCURVE",
"132 779 OFFCURVE",
"132 794 CURVE SMOOTH",
"132 809 OFFCURVE",
"120 821 OFFCURVE",
"105 821 CURVE SMOOTH"
);
}
);
width = 210;
},
{
components = (
{
name = I;
transform = "{1, 0, 0, 1, 0, 0}";
}
);
layerId = "FE64E73E-EA44-4B20-B2ED-18E4C3E872F4";
name = Regular;
paths = (
{
closed = 1;
nodes = (
"89 847 OFFCURVE",
"66 824 OFFCURVE",
"66 796 CURVE SMOOTH",
"66 768 OFFCURVE",
"89 745 OFFCURVE",
"117 745 CURVE SMOOTH",
"145 745 OFFCURVE",
"168 768 OFFCURVE",
"168 796 CURVE SMOOTH",
"168 824 OFFCURVE",
"145 847 OFFCURVE",
"117 847 CURVE SMOOTH"
);
}
);
width = 234;
},
{
components = (
{
name = I;
transform = "{1, 0, 0, 1, 0, 0}";
}
);
layerId = "24BDA9C5-7BA7-4A63-82ED-F7EF9C664871";
name = Bold;
paths = (
{
closed = 1;
nodes = (
"80 871 OFFCURVE",
"46 840 OFFCURVE",
"46 801 CURVE SMOOTH",
"46 762 OFFCURVE",
"80 731 OFFCURVE",
"122 731 CURVE SMOOTH",
"164 731 OFFCURVE",
"198 762 OFFCURVE",
"198 801 CURVE SMOOTH",
"198 840 OFFCURVE",
"164 871 OFFCURVE",
"122 871 CURVE SMOOTH"
);
}
);
width = 244;
}
);
leftKerningGroup = I;
rightKerningGroup = I;
unicode = 0130;
},
{
glyphname = J;
lastChange = "2012-11-27 07:05:40 +0000";
layers = (
{
anchors = (
{
name = top;
position = "{245, 700}";
}
);
layerId = "FE64E73E-EA44-4B20-B2ED-18E4C3E872F4";
name = Regular;
paths = (
{
closed = 1;
nodes = (
"89 688 LINE",
"89 143 LINE SMOOTH",
"89 -23 OFFCURVE",
"29 -89 OFFCURVE",
"-99 -143 CURVE",
"-66 -214 LINE",
"91 -149 OFFCURVE",
"171 -52 OFFCURVE",
"171 145 CURVE SMOOTH",
"171 688 LINE"
);
}
);
width = 239;
},
{
anchors = (
{
name = top;
position = "{300, 700}";
}
);
layerId = "6D2C0C40-443C-46D1-B6D4-3F78476E95FC";
name = Light;
paths = (
{
closed = 1;
nodes = (
"124 688 LINE",
"124 143 LINE SMOOTH",
"124 -54 OFFCURVE",
"84 -132 OFFCURVE",
"-44 -186 CURVE",
"-31 -214 LINE",
"121 -154 OFFCURVE",
"158 -46 OFFCURVE",
"158 145 CURVE SMOOTH",
"158 688 LINE"
);
}
);
width = 238;
},
{
anchors = (
{
name = top;
position = "{287, 688}";
}
);
layerId = "24BDA9C5-7BA7-4A63-82ED-F7EF9C664871";
name = Bold;
paths = (
{
closed = 1;
nodes = (
"131 688 LINE",
"131 120 LINE SMOOTH",
"131 -16 OFFCURVE",
"72 -73 OFFCURVE",
"-58 -108 CURVE",
"-18 -214 LINE",
"139 -181 OFFCURVE",
"263 -87 OFFCURVE",
"263 117 CURVE SMOOTH",
"263 688 LINE"
);
}
);
width = 315;
}
);
unicode = 004A;
},
{
glyphname = K;
lastChange = "2012-11-27 07:05:40 +0000";
layers = (
{
anchors = (
{
name = bottom;
position = "{300, 0}";
},
{
name = top;
position = "{300, 700}";
}
);
layerId = "FE64E73E-EA44-4B20-B2ED-18E4C3E872F4";
name = Regular;
paths = (
{
closed = 1;
nodes = (
"443 688 LINE",
"158 341 LINE",
"158 688 LINE",
"76 688 LINE",
"76 0 LINE",
"158 0 LINE",
"158 257 LINE",
"187 290 LINE",
"428 0 LINE",
"540 0 LINE",
"251 340 LINE",
"544 688 LINE"
);
}
);
width = 532;
},
{
anchors = (
{
name = bottom;
position = "{303, 0}";
},
{
name = top;
position = "{303, 700}";
}
);
layerId = "6D2C0C40-443C-46D1-B6D4-3F78476E95FC";
name = Light;
paths = (
{
closed = 1;
nodes = (
"466 688 LINE",
"122 302 LINE",
"122 688 LINE",
"88 688 LINE",
"88 0 LINE",
"122 0 LINE",
"122 260 LINE",
"182 327 LINE",
"455 0 LINE",
"499 0 LINE",
"207 349 LINE",
"510 688 LINE"
);
}
);
width = 509;
},
{
anchors = (
{
name = bottom;
position = "{290, 0}";
},
{
name = top;
position = "{290, 688}";
}
);
layerId = "24BDA9C5-7BA7-4A63-82ED-F7EF9C664871";
name = Bold;
paths = (
{
closed = 1;
nodes = (
"430 688 LINE",
"188 362 LINE",
"188 688 LINE",
"56 688 LINE",
"56 0 LINE",
"188 0 LINE",
"188 249 LINE",
"209 274 LINE",
"407 0 LINE",
"574 0 LINE",
"307 347 LINE",
"589 688 LINE"
);
}
);
width = 571;
}
);
unicode = 004B;
},
{
glyphname = L;
lastChange = "2012-11-27 07:05:40 +0000";
layers = (
{
anchors = (
{
name = bottom;
position = "{300, 0}";
},
{
name = top;
position = "{300, 700}";
}
);
layerId = "FE64E73E-EA44-4B20-B2ED-18E4C3E872F4";
name = Regular;
paths = (
{
closed = 1;
nodes = (
"76 688 LINE",
"76 0 LINE",
"449 0 LINE",
"449 72 LINE",
"158 72 LINE",
"158 688 LINE"
);
}
);
width = 468;
},
{
anchors = (
{
name = bottom;
position = "{302, 0}";
},
{
name = top;
position = "{302, 700}";
}
);
layerId = "6D2C0C40-443C-46D1-B6D4-3F78476E95FC";
name = Light;
paths = (
{
closed = 1;
nodes = (
"88 688 LINE",
"88 0 LINE",
"399 0 LINE",
"399 32 LINE",
"122 32 LINE",
"122 688 LINE"
);
}
);
width = 431;
},
{
anchors = (
{
name = bottom;
position = "{300, 0}";
},
{
name = top;
position = "{300, 688}";
}
);
layerId = "24BDA9C5-7BA7-4A63-82ED-F7EF9C664871";
name = Bold;
paths = (
{
closed = 1;
nodes = (
"66 688 LINE",
"66 0 LINE",
"489 0 LINE",
"489 112 LINE",
"198 112 LINE",
"198 688 LINE"
);
}
);
width = 504;
}
);
unicode = 004C;
},
{
glyphname = M;
lastChange = "2013-02-10 20:38:22 +0000";
layers = (
{
layerId = "FE64E73E-EA44-4B20-B2ED-18E4C3E872F4";
name = Regular;
paths = (
{
closed = 1;
nodes = (
"72 0 LINE",
"152 0 LINE",
"158 418 LINE SMOOTH",
"159 458 OFFCURVE",
"156 568 OFFCURVE",
"154 628 CURVE",
"173 553 OFFCURVE",
"203 458 OFFCURVE",
"219 418 CURVE SMOOTH",
"377 4 LINE",
"466 4 LINE",
"624 418 LINE SMOOTH",
"647 478 OFFCURVE",
"674 566 OFFCURVE",
"688 628 CURVE",
"686 568 OFFCURVE",
"684 478 OFFCURVE",
"685 418 CURVE SMOOTH",
"691 0 LINE",
"773 0 LINE",
"763 688 LINE",
"639 688 LINE",
"479 258 LINE SMOOTH",
"457 198 OFFCURVE",
"438 138 OFFCURVE",
"423 78 CURVE",
"408 138 OFFCURVE",
"389 198 OFFCURVE",
"367 258 CURVE SMOOTH",
"207 688 LINE",
"82 688 LINE"
);
}
);
width = 840;
},
{
layerId = "6D2C0C40-443C-46D1-B6D4-3F78476E95FC";
name = Light;
paths = (
{
closed = 1;
nodes = (
"82 0 LINE",
"116 0 LINE",
"122 478 LINE SMOOTH",
"123 536 OFFCURVE",
"123 593 OFFCURVE",
"121 668 CURVE",
"146 593 OFFCURVE",
"167 536 OFFCURVE",
"189 478 CURVE SMOOTH",
"365 8 LINE",
"410 8 LINE",
"591 478 LINE SMOOTH",
"613 536 OFFCURVE",
"635 593 OFFCURVE",
"659 660 CURVE",
"658 593 OFFCURVE",
"658 536 OFFCURVE",
"659 478 CURVE SMOOTH",
"666 0 LINE",
"702 0 LINE",
"691 688 LINE",
"636 688 LINE",
"444 187 LINE SMOOTH",
"425 138 OFFCURVE",
"407 88 OFFCURVE",
"390 38 CURVE",
"374 88 OFFCURVE",
"356 138 OFFCURVE",
"337 187 CURVE SMOOTH",
"147 688 LINE",
"93 688 LINE"
);
}
);
width = 782;
},
{
layerId = "24BDA9C5-7BA7-4A63-82ED-F7EF9C664871";
name = Bold;
paths = (
{
closed = 1;
nodes = (
"54 0 LINE",
"184 0 LINE",
"188 338 LINE SMOOTH",
"189 408 OFFCURVE",
"185 492 OFFCURVE",
"176 578 CURVE",
"193 478 OFFCURVE",
"214 398 OFFCURVE",
"235 338 CURVE SMOOTH",
"350 10 LINE",
"488 10 LINE",
"600 338 LINE SMOOTH",
"621 398 OFFCURVE",
"646 498 OFFCURVE",
"662 598 CURVE",
"653 511 OFFCURVE",
"649 408 OFFCURVE",
"650 338 CURVE SMOOTH",
"654 0 LINE",
"788 0 LINE",
"774 688 LINE",
"587 688 LINE",
"452 247 LINE SMOOTH",
"440 208 OFFCURVE",
"429 168 OFFCURVE",
"421 119 CURVE",
"413 168 OFFCURVE",
"402 208 OFFCURVE",
"390 247 CURVE SMOOTH",
"255 688 LINE",
"68 688 LINE"
);
}
);
width = 838;
}
);
leftKerningGroup = N;
rightKerningGroup = N;
unicode = 004D;
},
{
glyphname = N;
lastChange = "2012-11-27 07:05:40 +0000";
layers = (
{
anchors = (
{
name = bottom;
position = "{292, 0}";
},
{
name = top;
position = "{329, 680}";
}
);
layerId = "FE64E73E-EA44-4B20-B2ED-18E4C3E872F4";
name = Regular;
paths = (
{
closed = 1;
nodes = (
"512 688 LINE",
"512 298 LINE SMOOTH",
"512 238 OFFCURVE",
"512 174 OFFCURVE",
"515 99 CURVE",
"486 167 OFFCURVE",
"442 238 OFFCURVE",
"406 298 CURVE SMOOTH",
"165 688 LINE",
"68 688 LINE",
"68 0 LINE",
"146 0 LINE",
"146 398 LINE SMOOTH",
"146 458 OFFCURVE",
"146 502 OFFCURVE",
"143 582 CURVE",
"181 506 OFFCURVE",
"210 458 OFFCURVE",
"248 398 CURVE SMOOTH",
"493 0 LINE",
"590 0 LINE",
"590 688 LINE"
);
}
);
width = 658;
},
{
anchors = (
{
name = bottom;
position = "{296, 0}";
},
{
name = top;
position = "{303, 680}";
}
);
layerId = "6D2C0C40-443C-46D1-B6D4-3F78476E95FC";
name = Light;
paths = (
{
closed = 1;
nodes = (
"491 688 LINE",
"491 198 LINE SMOOTH",
"491 143 OFFCURVE",
"492 101 OFFCURVE",
"494 41 CURVE",
"465 98 OFFCURVE",
"443 138 OFFCURVE",
"411 193 CURVE SMOOTH",
"121 688 LINE",
"82 688 LINE",
"82 0 LINE",
"115 0 LINE",
"115 498 LINE SMOOTH",
"115 558 OFFCURVE",
"115 585 OFFCURVE",
"112 645 CURVE",
"142 583 OFFCURVE",
"156 558 OFFCURVE",
"188 504 CURVE SMOOTH",
"485 0 LINE",
"524 0 LINE",
"524 688 LINE"
);
}
);
width = 604;
},
{
anchors = (
{
name = bottom;
position = "{290, 0}";
},
{
name = top;
position = "{334, 680}";
}
);
layerId = "24BDA9C5-7BA7-4A63-82ED-F7EF9C664871";
name = Bold;
paths = (
{
closed = 1;
nodes = (
"488 688 LINE",
"488 310 LINE SMOOTH",
"488 250 OFFCURVE",
"489 210 OFFCURVE",
"493 130 CURVE",
"467 210 OFFCURVE",
"451 250 OFFCURVE",
"423 310 CURVE SMOOTH",
"248 688 LINE",
"52 688 LINE",
"52 0 LINE",
"180 0 LINE",
"180 378 LINE SMOOTH",
"180 438 OFFCURVE",
"179 478 OFFCURVE",
"175 558 CURVE",
"201 478 OFFCURVE",
"217 438 OFFCURVE",
"245 378 CURVE SMOOTH",
"420 0 LINE",
"616 0 LINE",
"616 688 LINE"
);
}
);
width = 668;
}
);
leftKerningGroup = N;
rightKerningGroup = N;
unicode = 004E;
},
{
glyphname = O;
lastChange = "2012-11-27 07:05:40 +0000";
layers = (
{
anchors = (
{
name = top;
position = "{354, 680}";
}
);
layerId = "FE64E73E-EA44-4B20-B2ED-18E4C3E872F4";
name = Regular;
paths = (
{
closed = 1;
nodes = (
"166 698 OFFCURVE",
"36 561 OFFCURVE",
"36 344 CURVE SMOOTH",
"36 127 OFFCURVE",
"166 -10 OFFCURVE",
"354 -10 CURVE SMOOTH",
"542 -10 OFFCURVE",
"672 127 OFFCURVE",
"672 344 CURVE SMOOTH",
"672 561 OFFCURVE",
"542 698 OFFCURVE",
"354 698 CURVE SMOOTH"
);
},
{
closed = 1;
nodes = (
"475 626 OFFCURVE",
"580 534 OFFCURVE",
"580 344 CURVE SMOOTH",
"580 154 OFFCURVE",
"475 62 OFFCURVE",
"354 62 CURVE SMOOTH",
"233 62 OFFCURVE",
"128 154 OFFCURVE",
"128 344 CURVE SMOOTH",
"128 534 OFFCURVE",
"233 626 OFFCURVE",
"354 626 CURVE SMOOTH"
);
}
);
width = 708;
},
{
anchors = (
{
name = top;
position = "{356, 680}";
}
);
layerId = "6D2C0C40-443C-46D1-B6D4-3F78476E95FC";
name = Light;
paths = (
{
closed = 1;
nodes = (
"186 698 OFFCURVE",
"61 557 OFFCURVE",
"61 344 CURVE SMOOTH",
"61 131 OFFCURVE",
"186 -10 OFFCURVE",
"356 -10 CURVE SMOOTH",
"526 -10 OFFCURVE",
"651 131 OFFCURVE",
"651 344 CURVE SMOOTH",
"651 557 OFFCURVE",
"526 698 OFFCURVE",
"356 698 CURVE SMOOTH"
);
},
{
closed = 1;
nodes = (
"507 666 OFFCURVE",
"615 534 OFFCURVE",
"615 344 CURVE SMOOTH",
"615 154 OFFCURVE",
"507 22 OFFCURVE",
"356 22 CURVE SMOOTH",
"205 22 OFFCURVE",
"97 154 OFFCURVE",
"97 344 CURVE SMOOTH",
"97 534 OFFCURVE",
"205 666 OFFCURVE",
"356 666 CURVE SMOOTH"
);
}
);
width = 712;
},
{
anchors = (
{
name = top;
position = "{376, 680}";
}
);
layerId = "24BDA9C5-7BA7-4A63-82ED-F7EF9C664871";
name = Bold;
paths = (
{
closed = 1;
nodes = (
"182 702 OFFCURVE",
"38 561 OFFCURVE",
"38 344 CURVE SMOOTH",
"38 127 OFFCURVE",
"182 -14 OFFCURVE",
"376 -14 CURVE SMOOTH",
"570 -14 OFFCURVE",
"714 127 OFFCURVE",
"714 344 CURVE SMOOTH",
"714 561 OFFCURVE",
"570 702 OFFCURVE",
"376 702 CURVE SMOOTH"
);
},
{
closed = 1;
nodes = (
"501 590 OFFCURVE",
"572 493 OFFCURVE",
"572 344 CURVE SMOOTH",
"572 195 OFFCURVE",
"501 98 OFFCURVE",
"376 98 CURVE SMOOTH",
"251 98 OFFCURVE",
"180 195 OFFCURVE",
"180 344 CURVE SMOOTH",
"180 493 OFFCURVE",
"251 590 OFFCURVE",
"376 590 CURVE SMOOTH"
);
}
);
width = 746;
}
);
leftKerningGroup = O;
rightKerningGroup = O;
unicode = 004F;
},
{
glyphname = Oslash;
lastChange = "2013-02-10 21:02:08 +0000";
layers = (
{
anchors = (
{
name = top;
position = "{354, 688}";
}
);
components = (
{
name = O;
transform = "{1, 0, 0, 1, 0, 0}";
}
);
layerId = "FE64E73E-EA44-4B20-B2ED-18E4C3E872F4";
name = Regular;
paths = (
{
closed = 1;
nodes = (
"47 43 LINE",
"89 3 LINE",
"661 648 LINE",
"619 688 LINE"
);
}
);
width = 708;
},
{
anchors = (
{
name = top;
position = "{341, 700}";
}
);
components = (
{
name = O;
transform = "{1, 0, 0, 1, 0, 0}";
}
);
layerId = "6D2C0C40-443C-46D1-B6D4-3F78476E95FC";
name = Light;
paths = (
{
closed = 1;
nodes = (
"74 24 LINE",
"100 4 LINE",
"608 664 LINE",
"582 684 LINE"
);
}
);
width = 712;
},
{
anchors = (
{
name = top;
position = "{301, 688}";
}
);
components = (
{
name = O;
transform = "{1, 0, 0, 1, 1, 0}";
}
);
layerId = "24BDA9C5-7BA7-4A63-82ED-F7EF9C664871";
name = Bold;
paths = (
{
closed = 1;
nodes = (
"38 59 LINE",
"120 -16 LINE",
"692 629 LINE",
"610 704 LINE"
);
}
);
width = 747;
}
);
leftKerningGroup = O;
leftMetricsKey = O;
rightKerningGroup = O;
rightMetricsKey = O;
unicode = 00D8;
},
{
glyphname = OE;
lastChange = "2013-02-10 21:02:08 +0000";
layers = (
{
anchors = (
{
name = top;
position = "{597, 688}";
}
);
layerId = "FE64E73E-EA44-4B20-B2ED-18E4C3E872F4";
name = Regular;
paths = (
{
closed = 1;
nodes = (
"166 698 OFFCURVE",
"36 561 OFFCURVE",
"36 344 CURVE SMOOTH",
"36 127 OFFCURVE",
"166 -10 OFFCURVE",
"354 -10 CURVE SMOOTH",
"523 -10 OFFCURVE",
"633 117 OFFCURVE",
"633 344 CURVE SMOOTH",
"633 571 OFFCURVE",
"523 698 OFFCURVE",
"354 698 CURVE SMOOTH"
);
},
{
closed = 1;
nodes = (
"475 626 OFFCURVE",
"580 534 OFFCURVE",
"580 344 CURVE SMOOTH",
"580 154 OFFCURVE",
"475 62 OFFCURVE",
"354 62 CURVE SMOOTH",
"233 62 OFFCURVE",
"128 154 OFFCURVE",
"128 344 CURVE",
"128 534 OFFCURVE",
"233 626 OFFCURVE",
"354 626 CURVE SMOOTH"
);
},
{
closed = 1;
nodes = (
"580 684 LINE",
"580 0 LINE",
"950 0 LINE",
"950 72 LINE",
"662 72 LINE",
"662 311 LINE",
"914 311 LINE",
"914 383 LINE",
"662 383 LINE",
"662 612 LINE",
"946 612 LINE",
"946 684 LINE"
);
}
);
width = 989;
},
{
anchors = (
{
name = top;
position = "{409, 700}";
}
);
layerId = "6D2C0C40-443C-46D1-B6D4-3F78476E95FC";
name = Light;
paths = (
{
closed = 1;
nodes = (
"184 698 OFFCURVE",
"61 557 OFFCURVE",
"61 344 CURVE SMOOTH",
"61 131 OFFCURVE",
"184 -10 OFFCURVE",
"354 -10 CURVE SMOOTH",
"530 -10 OFFCURVE",
"641 131 OFFCURVE",
"641 344 CURVE SMOOTH",
"641 557 OFFCURVE",
"530 698 OFFCURVE",
"354 698 CURVE SMOOTH"
);
},
{
closed = 1;
nodes = (
"507 666 OFFCURVE",
"615 534 OFFCURVE",
"615 344 CURVE SMOOTH",
"615 154 OFFCURVE",
"507 22 OFFCURVE",
"356 22 CURVE SMOOTH",
"205 22 OFFCURVE",
"97 154 OFFCURVE",
"97 344 CURVE SMOOTH",
"97 534 OFFCURVE",
"205 666 OFFCURVE",
"356 666 CURVE SMOOTH"
);
},
{
closed = 1;
nodes = (
"615 684 LINE",
"615 0 LINE",
"923 0 LINE",
"923 32 LINE",
"649 32 LINE",
"649 331 LINE",
"887 331 LINE",
"887 363 LINE",
"649 363 LINE",
"649 652 LINE",
"919 652 LINE",
"919 684 LINE"
);
}
);
width = 969;
},
{
anchors = (
{
name = top;
position = "{612, 688}";
}
);
layerId = "24BDA9C5-7BA7-4A63-82ED-F7EF9C664871";
name = Bold;
paths = (
{
closed = 1;
nodes = (
"171 702 OFFCURVE",
"38 561 OFFCURVE",
"38 344 CURVE SMOOTH",
"38 127 OFFCURVE",
"171 -14 OFFCURVE",
"362 -14 CURVE SMOOTH",
"558 -14 OFFCURVE",
"631 133 OFFCURVE",
"631 344 CURVE SMOOTH",
"631 555 OFFCURVE",
"558 702 OFFCURVE",
"362 702 CURVE SMOOTH"
);
},
{
closed = 1;
nodes = (
"502 590 OFFCURVE",
"572 495 OFFCURVE",
"572 344 CURVE SMOOTH",
"572 193 OFFCURVE",
"502 98 OFFCURVE",
"376 98 CURVE SMOOTH",
"250 98 OFFCURVE",
"180 193 OFFCURVE",
"180 344 CURVE SMOOTH",
"180 495 OFFCURVE",
"250 590 OFFCURVE",
"376 590 CURVE SMOOTH"
);
},
{
closed = 1;
nodes = (
"572 684 LINE",
"572 0 LINE",
"992 0 LINE",
"992 112 LINE",
"704 112 LINE",
"704 291 LINE",
"956 291 LINE",
"956 403 LINE",
"704 403 LINE",
"704 572 LINE",
"988 572 LINE",
"988 684 LINE"
);
}
);
width = 1021;
}
);
leftMetricsKey = O;
rightMetricsKey = E;
unicode = 0152;
},
{
glyphname = P;
lastChange = "2012-11-27 07:05:40 +0000";
layers = (
{
layerId = "FE64E73E-EA44-4B20-B2ED-18E4C3E872F4";
name = Regular;
paths = (
{
closed = 1;
nodes = (
"182 698 OFFCURVE",
"134 694 OFFCURVE",
"76 683 CURVE",
"76 0 LINE",
"158 0 LINE",
"158 280 LINE",
"175 278 OFFCURVE",
"187 277 OFFCURVE",
"203 277 CURVE SMOOTH",
"349 277 OFFCURVE",
"476 349 OFFCURVE",
"476 497 CURVE",
"476 610 OFFCURVE",
"391 698 OFFCURVE",
"226 698 CURVE SMOOTH"
);
},
{
closed = 1;
nodes = (
"330 626 OFFCURVE",
"387 571 OFFCURVE",
"387 487 CURVE SMOOTH",
"387 395 OFFCURVE",
"309 347 OFFCURVE",
"206 347 CURVE SMOOTH",
"194 347 OFFCURVE",
"173 348 OFFCURVE",
"158 350 CURVE",
"158 621 LINE",
"190 625 OFFCURVE",
"206 626 OFFCURVE",
"228 626 CURVE SMOOTH"
);
}
);
width = 492;
},
{
layerId = "6D2C0C40-443C-46D1-B6D4-3F78476E95FC";
name = Light;
paths = (
{
closed = 1;
nodes = (
"163 698 OFFCURVE",
"127 695 OFFCURVE",
"88 686 CURVE",
"88 0 LINE",
"122 0 LINE",
"122 303 LINE",
"140 301 OFFCURVE",
"161 300 OFFCURVE",
"179 300 CURVE SMOOTH",
"314 300 OFFCURVE",
"437 375 OFFCURVE",
"437 510 CURVE",
"437 615 OFFCURVE",
"363 698 OFFCURVE",
"196 698 CURVE SMOOTH"
);
},
{
closed = 1;
nodes = (
"342 666 OFFCURVE",
"399 601 OFFCURVE",
"399 505 CURVE SMOOTH",
"399 404 OFFCURVE",
"308 331 OFFCURVE",
"167 331 CURVE SMOOTH",
"155 331 OFFCURVE",
"135 333 OFFCURVE",
"122 335 CURVE",
"122 659 LINE",
"151 664 OFFCURVE",
"176 666 OFFCURVE",
"198 666 CURVE SMOOTH"
);
}
);
width = 457;
},
{
layerId = "24BDA9C5-7BA7-4A63-82ED-F7EF9C664871";
name = Bold;
paths = (
{
closed = 1;
nodes = (
"182 698 OFFCURVE",
"114 694 OFFCURVE",
"56 683 CURVE",
"56 0 LINE",
"188 0 LINE",
"188 260 LINE",
"205 258 OFFCURVE",
"219 257 OFFCURVE",
"235 257 CURVE SMOOTH",
"381 257 OFFCURVE",
"504 339 OFFCURVE",
"504 483 CURVE SMOOTH",
"504 599 OFFCURVE",
"430 698 OFFCURVE",
"236 698 CURVE SMOOTH"
);
},
{
closed = 1;
nodes = (
"323 586 OFFCURVE",
"362 534 OFFCURVE",
"362 478 CURVE SMOOTH",
"362 404 OFFCURVE",
"307 367 OFFCURVE",
"232 367 CURVE SMOOTH",
"220 367 OFFCURVE",
"203 368 OFFCURVE",
"188 370 CURVE",
"188 583 LINE",
"206 585 OFFCURVE",
"221 586 OFFCURVE",
"241 586 CURVE SMOOTH"
);
}
);
width = 506;
}
);
unicode = 0050;
},
{
glyphname = Q;
lastChange = "2012-11-27 07:05:40 +0000";
layers = (
{
layerId = "FE64E73E-EA44-4B20-B2ED-18E4C3E872F4";
name = Regular;
paths = (
{
closed = 1;
nodes = (
"166 698 OFFCURVE",
"36 561 OFFCURVE",
"36 344 CURVE SMOOTH",
"36 127 OFFCURVE",
"166 -10 OFFCURVE",
"354 -10 CURVE SMOOTH",
"379 -10 OFFCURVE",
"402 -8 OFFCURVE",
"425 -3 CURVE",
"434 5 LINE",
"576 40 OFFCURVE",
"672 165 OFFCURVE",
"672 344 CURVE SMOOTH",
"672 561 OFFCURVE",
"542 698 OFFCURVE",
"354 698 CURVE SMOOTH"
);
},
{
closed = 1;
nodes = (
"354 -10 LINE",
"508 -204 LINE",
"576 -157 LINE",
"434 13 LINE"
);
},
{
closed = 1;
nodes = (
"475 626 OFFCURVE",
"580 534 OFFCURVE",
"580 344 CURVE SMOOTH",
"580 154 OFFCURVE",
"474 61 OFFCURVE",
"353 61 CURVE SMOOTH",
"232 61 OFFCURVE",
"128 154 OFFCURVE",
"128 344 CURVE SMOOTH",
"128 534 OFFCURVE",
"233 626 OFFCURVE",
"354 626 CURVE SMOOTH"
);
}
);
width = 708;
},
{
layerId = "6D2C0C40-443C-46D1-B6D4-3F78476E95FC";
name = Light;
paths = (
{
closed = 1;
nodes = (
"186 698 OFFCURVE",
"61 557 OFFCURVE",
"61 344 CURVE SMOOTH",
"61 131 OFFCURVE",
"186 -10 OFFCURVE",
"356 -10 CURVE SMOOTH",
"366 -10 OFFCURVE",
"376 -10 OFFCURVE",
"385 -9 CURVE",
"397 -5 LINE",
"545 17 OFFCURVE",
"651 149 OFFCURVE",
"651 344 CURVE SMOOTH",
"651 557 OFFCURVE",
"526 698 OFFCURVE",
"356 698 CURVE SMOOTH"
);
},
{
closed = 1;
nodes = (
"356 -10 LINE",
"520 -204 LINE",
"549 -184 LINE",
"389 0 LINE"
);
},
{
closed = 1;
nodes = (
"507 666 OFFCURVE",
"615 534 OFFCURVE",
"615 344 CURVE SMOOTH",
"615 154 OFFCURVE",
"507 21 OFFCURVE",
"356 21 CURVE SMOOTH",
"205 21 OFFCURVE",
"97 154 OFFCURVE",
"97 344 CURVE SMOOTH",
"97 534 OFFCURVE",
"205 666 OFFCURVE",
"356 666 CURVE SMOOTH"
);
}
);
width = 712;
},
{
layerId = "24BDA9C5-7BA7-4A63-82ED-F7EF9C664871";
name = Bold;
paths = (
{
closed = 1;
nodes = (
"176 702 OFFCURVE",
"32 561 OFFCURVE",
"32 344 CURVE SMOOTH",
"32 127 OFFCURVE",
"176 -14 OFFCURVE",
"370 -14 CURVE SMOOTH",
"403 -14 OFFCURVE",
"435 -10 OFFCURVE",
"465 -2 CURVE",
"490 11 LINE",
"620 57 OFFCURVE",
"708 180 OFFCURVE",
"708 344 CURVE SMOOTH",
"708 561 OFFCURVE",
"564 702 OFFCURVE",
"370 702 CURVE SMOOTH"
);
},
{
closed = 1;
nodes = (
"369 -14 LINE",
"524 -204 LINE",
"630 -145 LINE",
"488 21 LINE"
);
},
{
closed = 1;
nodes = (
"495 590 OFFCURVE",
"566 493 OFFCURVE",
"566 344 CURVE SMOOTH",
"566 195 OFFCURVE",
"494 96 OFFCURVE",
"369 96 CURVE SMOOTH",
"244 96 OFFCURVE",
"174 195 OFFCURVE",
"174 344 CURVE SMOOTH",
"174 493 OFFCURVE",
"245 590 OFFCURVE",
"370 590 CURVE SMOOTH"
);
}
);
width = 740;
}
);
unicode = 0051;
},
{
glyphname = R;
lastChange = "2012-11-27 07:05:40 +0000";
layers = (
{
anchors = (
{
name = bottom;
position = "{300, 0}";
},
{
name = top;
position = "{300, 700}";
}
);
layerId = "FE64E73E-EA44-4B20-B2ED-18E4C3E872F4";
name = Regular;
paths = (
{
closed = 1;
nodes = (
"182 698 OFFCURVE",
"134 694 OFFCURVE",
"76 686 CURVE",
"76 0 LINE",
"158 0 LINE",
"158 287 LINE",
"205 287 LINE SMOOTH",
"293 287 OFFCURVE",
"336 254 OFFCURVE",
"350 181 CURVE SMOOTH",
"360 131 OFFCURVE",
"377 54 OFFCURVE",
"392 0 CURVE",
"487 0 LINE",
"471 45 OFFCURVE",
"447 128 OFFCURVE",
"434 189 CURVE SMOOTH",
"418 267 OFFCURVE",
"392 320 OFFCURVE",
"319 335 CURVE",
"401 352 OFFCURVE",
"473 414 OFFCURVE",
"473 504 CURVE SMOOTH",
"473 620 OFFCURVE",
"391 698 OFFCURVE",
"226 698 CURVE SMOOTH"
);
},
{
closed = 1;
nodes = (
"330 626 OFFCURVE",
"384 578 OFFCURVE",
"384 496 CURVE SMOOTH",
"384 406 OFFCURVE",
"301 354 OFFCURVE",
"193 354 CURVE SMOOTH",
"158 354 LINE",
"158 621 LINE",
"190 625 OFFCURVE",
"206 626 OFFCURVE",
"228 626 CURVE SMOOTH"
);
}
);
width = 523;
},
{
anchors = (
{
name = bottom;
position = "{302, 0}";
},
{
name = top;
position = "{302, 700}";
}
);
layerId = "6D2C0C40-443C-46D1-B6D4-3F78476E95FC";
name = Light;
paths = (
{
closed = 1;
nodes = (
"163 698 OFFCURVE",
"127 695 OFFCURVE",
"88 686 CURVE",
"88 0 LINE",
"122 0 LINE",
"122 303 LINE",
"174 303 LINE SMOOTH",
"309 303 OFFCURVE",
"340 256 OFFCURVE",
"359 173 CURVE SMOOTH",
"370 123 OFFCURVE",
"388 54 OFFCURVE",
"403 0 CURVE",
"442 0 LINE",
"427 47 OFFCURVE",
"405 128 OFFCURVE",
"391 189 CURVE SMOOTH",
"373 266 OFFCURVE",
"337 313 OFFCURVE",
"256 323 CURVE",
"348 337 OFFCURVE",
"441 406 OFFCURVE",
"441 512 CURVE SMOOTH",
"441 620 OFFCURVE",
"363 698 OFFCURVE",
"196 698 CURVE SMOOTH"
);
},
{
closed = 1;
nodes = (
"342 666 OFFCURVE",
"403 606 OFFCURVE",
"403 510 CURVE SMOOTH",
"403 396 OFFCURVE",
"290 334 OFFCURVE",
"165 334 CURVE SMOOTH",
"122 334 LINE",
"122 659 LINE",
"151 664 OFFCURVE",
"176 666 OFFCURVE",
"198 666 CURVE SMOOTH"
);
}
);
width = 485;
},
{
anchors = (
{
name = bottom;
position = "{290, 0}";
},
{
name = top;
position = "{290, 688}";
}
);
layerId = "24BDA9C5-7BA7-4A63-82ED-F7EF9C664871";
name = Bold;
paths = (
{
closed = 1;
nodes = (
"192 698 OFFCURVE",
"114 694 OFFCURVE",
"56 686 CURVE",
"56 0 LINE",
"188 0 LINE",
"188 267 LINE",
"235 267 LINE SMOOTH",
"308 267 OFFCURVE",
"322 231 OFFCURVE",
"332 181 CURVE SMOOTH",
"342 131 OFFCURVE",
"359 54 OFFCURVE",
"375 0 CURVE",
"519 0 LINE",
"502 45 OFFCURVE",
"479 128 OFFCURVE",
"466 189 CURVE SMOOTH",
"450 267 OFFCURVE",
"421 334 OFFCURVE",
"358 343 CURVE",
"443 360 OFFCURVE",
"503 414 OFFCURVE",
"503 506 CURVE SMOOTH",
"503 622 OFFCURVE",
"417 698 OFFCURVE",
"246 698 CURVE SMOOTH"
);
},
{
closed = 1;
nodes = (
"327 586 OFFCURVE",
"361 543 OFFCURVE",
"361 484 CURVE SMOOTH",
"361 422 OFFCURVE",
"312 374 OFFCURVE",
"223 374 CURVE SMOOTH",
"188 374 LINE",
"188 583 LINE",
"210 585 OFFCURVE",
"230 586 OFFCURVE",
"248 586 CURVE SMOOTH"
);
}
);
width = 538;
}
);
unicode = 0052;
},
{
glyphname = S;
lastChange = "2013-02-10 20:28:50 +0000";
layers = (
{
anchors = (
{
name = bottom;
position = "{236, 0}";
},
{
name = top;
position = "{309, 700}";
}
);
layerId = "FE64E73E-EA44-4B20-B2ED-18E4C3E872F4";
name = Regular;
paths = (
{
closed = 1;
nodes = (
"165 698 OFFCURVE",
"73 622 OFFCURVE",
"73 499 CURVE SMOOTH",
"73 397 OFFCURVE",
"142 342 OFFCURVE",
"241 304 CURVE SMOOTH",
"321 273 OFFCURVE",
"356 235 OFFCURVE",
"356 176 CURVE SMOOTH",
"356 112 OFFCURVE",
"300 62 OFFCURVE",
"219 62 CURVE SMOOTH",
"172 62 OFFCURVE",
"106 76 OFFCURVE",
"56 109 CURVE",
"46 31 LINE",
"94 3 OFFCURVE",
"155 -10 OFFCURVE",
"212 -10 CURVE SMOOTH",
"354 -10 OFFCURVE",
"446 75 OFFCURVE",
"446 189 CURVE SMOOTH",
"446 280 OFFCURVE",
"394 336 OFFCURVE",
"281 378 CURVE SMOOTH",
"200 408 OFFCURVE",
"160 449 OFFCURVE",
"160 514 CURVE SMOOTH",
"160 579 OFFCURVE",
"220 626 OFFCURVE",
"291 626 CURVE SMOOTH",
"343 626 OFFCURVE",
"395 607 OFFCURVE",
"425 585 CURVE",
"435 663 LINE",
"406 682 OFFCURVE",
"346 698 OFFCURVE",
"298 698 CURVE SMOOTH"
);
}
);
width = 496;
},
{
anchors = (
{
name = bottom;
position = "{217, 0}";
},
{
name = top;
position = "{300, 700}";
}
);
layerId = "6D2C0C40-443C-46D1-B6D4-3F78476E95FC";
name = Light;
paths = (
{
closed = 1;
nodes = (
"151 698 OFFCURVE",
"66 628 OFFCURVE",
"66 511 CURVE SMOOTH",
"66 416 OFFCURVE",
"129 358 OFFCURVE",
"218 326 CURVE SMOOTH",
"314 291 OFFCURVE",
"354 247 OFFCURVE",
"354 173 CURVE SMOOTH",
"354 86 OFFCURVE",
"283 22 OFFCURVE",
"185 22 CURVE SMOOTH",
"142 22 OFFCURVE",
"95 33 OFFCURVE",
"51 55 CURVE",
"45 22 LINE",
"89 0 OFFCURVE",
"136 -10 OFFCURVE",
"182 -10 CURVE SMOOTH",
"305 -10 OFFCURVE",
"392 73 OFFCURVE",
"392 177 CURVE SMOOTH",
"392 271 OFFCURVE",
"334 319 OFFCURVE",
"236 356 CURVE SMOOTH",
"143 391 OFFCURVE",
"102 437 OFFCURVE",
"102 518 CURVE SMOOTH",
"102 606 OFFCURVE",
"167 666 OFFCURVE",
"252 666 CURVE SMOOTH",
"298 666 OFFCURVE",
"342 653 OFFCURVE",
"372 632 CURVE",
"378 666 LINE",
"353 682 OFFCURVE",
"308 698 OFFCURVE",
"253 698 CURVE SMOOTH"
);
}
);
width = 455;
},
{
anchors = (
{
name = bottom;
position = "{245, 0}";
},
{
name = top;
position = "{301, 688}";
}
);
layerId = "24BDA9C5-7BA7-4A63-82ED-F7EF9C664871";
name = Bold;
paths = (
{
closed = 1;
nodes = (
"179 702 OFFCURVE",
"53 640 OFFCURVE",
"53 495 CURVE SMOOTH",
"53 397 OFFCURVE",
"99 335 OFFCURVE",
"210 300 CURVE SMOOTH",
"288 275 OFFCURVE",
"329 243 OFFCURVE",
"329 189 CURVE SMOOTH",
"329 133 OFFCURVE",
"275 98 OFFCURVE",
"194 98 CURVE SMOOTH",
"151 98 OFFCURVE",
"91 110 OFFCURVE",
"46 133 CURVE",
"36 17 LINE",
"79 -4 OFFCURVE",
"145 -14 OFFCURVE",
"191 -14 CURVE SMOOTH",
"347 -14 OFFCURVE",
"471 60 OFFCURVE",
"471 203 CURVE SMOOTH",
"471 289 OFFCURVE",
"424 353 OFFCURVE",
"313 388 CURVE SMOOTH",
"226 415 OFFCURVE",
"192 446 OFFCURVE",
"192 502 CURVE SMOOTH",
"192 556 OFFCURVE",
"238 590 OFFCURVE",
"310 590 CURVE SMOOTH",
"356 590 OFFCURVE",
"410 574 OFFCURVE",
"447 550 CURVE",
"457 669 LINE",
"427 687 OFFCURVE",
"372 702 OFFCURVE",
"312 702 CURVE SMOOTH"
);
}
);
width = 511;
}
);
unicode = 0053;
},
{
glyphname = T;
lastChange = "2012-11-27 07:05:40 +0000";
layers = (
{
anchors = (
{
name = bottom;
position = "{275, 0}";
},
{
name = center;
position = "{275, 350}";
},
{
name = top;
position = "{275, 700}";
}
);
layerId = "FE64E73E-EA44-4B20-B2ED-18E4C3E872F4";
name = Regular;
paths = (
{
closed = 1;
nodes = (
"1 684 LINE",
"1 612 LINE",
"209 612 LINE",
"209 0 LINE",
"291 0 LINE",
"291 612 LINE",
"499 612 LINE",
"499 684 LINE"
);
}
);
width = 497;
},
{
anchors = (
{
name = bottom;
position = "{279, 0}";
},
{
name = center;
position = "{279, 350}";
},
{
name = top;
position = "{279, 700}";
}
);
layerId = "6D2C0C40-443C-46D1-B6D4-3F78476E95FC";
name = Light;
paths = (
{
closed = 1;
nodes = (
"11 684 LINE",
"11 652 LINE",
"213 652 LINE",
"213 0 LINE",
"247 0 LINE",
"247 652 LINE",
"449 652 LINE",
"449 684 LINE"
);
}
);
width = 458;
},
{
anchors = (
{
name = bottom;
position = "{278, 0}";
},
{
name = center;
position = "{278, 344}";
},
{
name = top;
position = "{278, 688}";
}
);
layerId = "24BDA9C5-7BA7-4A63-82ED-F7EF9C664871";
name = Bold;
paths = (
{
closed = 1;
nodes = (
"4 684 LINE",
"4 572 LINE",
"212 572 LINE",
"212 0 LINE",
"344 0 LINE",
"344 572 LINE",
"552 572 LINE",
"552 684 LINE"
);
}
);
width = 557;
}
);
unicode = 0054;
},
{
glyphname = U;
lastChange = "2012-11-27 07:05:40 +0000";
layers = (
{
anchors = (
{
name = ogonek;
position = "{535, 10}";
},
{
name = top;
position = "{321, 680}";
}
);
layerId = "FE64E73E-EA44-4B20-B2ED-18E4C3E872F4";
name = Regular;
paths = (
{
closed = 1;
nodes = (
"492 688 LINE",
"492 231 LINE SMOOTH",
"492 125 OFFCURVE",
"422 60 OFFCURVE",
"324 60 CURVE SMOOTH",
"224 60 OFFCURVE",
"151 127 OFFCURVE",
"151 241 CURVE SMOOTH",
"151 688 LINE",
"69 688 LINE",
"69 229 LINE SMOOTH",
"69 87 OFFCURVE",
"164 -14 OFFCURVE",
"316 -14 CURVE SMOOTH",
"470 -14 OFFCURVE",
"574 81 OFFCURVE",
"574 239 CURVE SMOOTH",
"574 688 LINE"
);
}
);
width = 637;
},
{
anchors = (
{
name = ogonek;
position = "{546, 10}";
},
{
name = top;
position = "{308, 690}";
}
);
layerId = "6D2C0C40-443C-46D1-B6D4-3F78476E95FC";
name = Light;
paths = (
{
closed = 1;
nodes = (
"504 688 LINE",
"504 225 LINE SMOOTH",
"504 78 OFFCURVE",
"419 18 OFFCURVE",
"312 18 CURVE SMOOTH",
"181 18 OFFCURVE",
"112 94 OFFCURVE",
"112 235 CURVE SMOOTH",
"112 688 LINE",
"78 688 LINE",
"78 223 LINE SMOOTH",
"78 81 OFFCURVE",
"162 -14 OFFCURVE",
"306 -14 CURVE SMOOTH",
"453 -14 OFFCURVE",
"538 75 OFFCURVE",
"538 233 CURVE SMOOTH",
"538 688 LINE"
);
}
);
width = 614;
},
{
anchors = (
{
name = ogonek;
position = "{530, 10}";
},
{
name = top;
position = "{326, 678}";
}
);
layerId = "24BDA9C5-7BA7-4A63-82ED-F7EF9C664871";
name = Bold;
paths = (
{
closed = 1;
nodes = (
"469 688 LINE",
"469 257 LINE SMOOTH",
"469 153 OFFCURVE",
"415 102 OFFCURVE",
"328 102 CURVE SMOOTH",
"237 102 OFFCURVE",
"184 158 OFFCURVE",
"184 271 CURVE SMOOTH",
"184 688 LINE",
"52 688 LINE",
"52 237 LINE SMOOTH",
"52 74 OFFCURVE",
"165 -16 OFFCURVE",
"322 -16 CURVE SMOOTH",
"481 -16 OFFCURVE",
"601 74 OFFCURVE",
"601 267 CURVE SMOOTH",
"601 688 LINE"
);
}
);
width = 649;
}
);
leftKerningGroup = U;
rightKerningGroup = U;
unicode = 0055;
},
{
glyphname = V;
lastChange = "2012-11-27 07:05:40 +0000";
layers = (
{
layerId = "FE64E73E-EA44-4B20-B2ED-18E4C3E872F4";
name = Regular;
paths = (
{
closed = 1;
nodes = (
"495 688 LINE",
"298 77 LINE",
"100 688 LINE",
"10 688 LINE",
"243 0 LINE",
"349 0 LINE",
"582 688 LINE"
);
}
);
width = 584;
},
{
layerId = "6D2C0C40-443C-46D1-B6D4-3F78476E95FC";
name = Light;
paths = (
{
closed = 1;
nodes = (
"502 688 LINE",
"279 36 LINE",
"55 688 LINE",
"20 688 LINE",
"256 0 LINE",
"301 0 LINE",
"537 688 LINE"
);
}
);
width = 549;
},
{
layerId = "24BDA9C5-7BA7-4A63-82ED-F7EF9C664871";
name = Bold;
paths = (
{
closed = 1;
nodes = (
"477 688 LINE",
"306 120 LINE",
"134 688 LINE",
"-11 688 LINE",
"227 0 LINE",
"380 0 LINE",
"618 688 LINE"
);
}
);
width = 610;
}
);
unicode = 0056;
},
{
glyphname = W;
lastChange = "2013-02-10 20:39:52 +0000";
layers = (
{
anchors = (
{
name = top;
position = "{435, 680}";
}
);
layerId = "FE64E73E-EA44-4B20-B2ED-18E4C3E872F4";
name = Regular;
paths = (
{
closed = 1;
nodes = (
"195 0 LINE",
"300 0 LINE",
"398 418 LINE SMOOTH",
"412 478 OFFCURVE",
"423 538 OFFCURVE",
"432 598 CURVE",
"441 538 OFFCURVE",
"453 478 OFFCURVE",
"467 418 CURVE SMOOTH",
"565 0 LINE",
"669 0 LINE",
"857 688 LINE",
"768 688 LINE",
"660 258 LINE SMOOTH",
"645 198 OFFCURVE",
"631 138 OFFCURVE",
"621 77 CURVE",
"613 138 OFFCURVE",
"602 198 OFFCURVE",
"587 258 CURVE SMOOTH",
"483 684 LINE",
"388 684 LINE",
"284 258 LINE SMOOTH",
"270 198 OFFCURVE",
"257 138 OFFCURVE",
"248 78 CURVE",
"237 138 OFFCURVE",
"226 191 OFFCURVE",
"210 258 CURVE SMOOTH",
"104 688 LINE",
"10 688 LINE"
);
}
);
width = 859;
},
{
anchors = (
{
name = top;
position = "{402, 680}";
}
);
layerId = "6D2C0C40-443C-46D1-B6D4-3F78476E95FC";
name = Light;
paths = (
{
closed = 1;
nodes = (
"204 0 LINE",
"247 0 LINE",
"362 478 LINE SMOOTH",
"375 532 OFFCURVE",
"389 586 OFFCURVE",
"402 646 CURVE",
"415 586 OFFCURVE",
"428 532 OFFCURVE",
"441 478 CURVE SMOOTH",
"557 0 LINE",
"600 0 LINE",
"784 688 LINE",
"749 688 LINE",
"622 200 LINE SMOOTH",
"608 146 OFFCURVE",
"593 92 OFFCURVE",
"579 32 CURVE",
"566 92 OFFCURVE",
"553 146 OFFCURVE",
"540 200 CURVE SMOOTH",
"425 678 LINE",
"379 678 LINE",
"262 200 LINE SMOOTH",
"250 146 OFFCURVE",
"237 92 OFFCURVE",
"225 32 CURVE",
"211 92 OFFCURVE",
"198 146 OFFCURVE",
"184 200 CURVE SMOOTH",
"55 688 LINE",
"20 688 LINE"
);
}
);
width = 796;
},
{
anchors = (
{
name = top;
position = "{471, 678}";
}
);
layerId = "24BDA9C5-7BA7-4A63-82ED-F7EF9C664871";
name = Bold;
paths = (
{
closed = 1;
nodes = (
"182 0 LINE",
"338 0 LINE",
"420 329 LINE SMOOTH",
"437 396 OFFCURVE",
"452 464 OFFCURVE",
"465 531 CURVE",
"477 466 OFFCURVE",
"494 394 OFFCURVE",
"510 329 CURVE SMOOTH",
"593 0 LINE",
"749 0 LINE",
"942 688 LINE",
"803 688 LINE",
"707 288 LINE SMOOTH",
"694 234 OFFCURVE",
"682 171 OFFCURVE",
"674 117 CURVE",
"665 171 OFFCURVE",
"652 234 OFFCURVE",
"639 288 CURVE SMOOTH",
"543 688 LINE",
"399 688 LINE",
"298 288 LINE SMOOTH",
"284 234 OFFCURVE",
"271 171 OFFCURVE",
"262 117 CURVE",
"255 171 OFFCURVE",
"242 234 OFFCURVE",
"230 288 CURVE SMOOTH",
"138 688 LINE",
"-8 688 LINE"
);
}
);
width = 934;
}
);
leftKerningGroup = W;
rightKerningGroup = W;
unicode = 0057;
},
{
glyphname = X;
lastChange = "2012-11-27 07:05:40 +0000";
layers = (
{
layerId = "FE64E73E-EA44-4B20-B2ED-18E4C3E872F4";
name = Regular;
paths = (
{
closed = 1;
nodes = (
"436 688 LINE",
"272 405 LINE",
"122 688 LINE",
"22 688 LINE",
"220 342 LINE",
"15 0 LINE",
"108 0 LINE",
"267 280 LINE",
"425 0 LINE",
"527 0 LINE",
"319 345 LINE",
"529 688 LINE"
);
}
);
width = 531;
},
{
layerId = "6D2C0C40-443C-46D1-B6D4-3F78476E95FC";
name = Light;
paths = (
{
closed = 1;
nodes = (
"421 688 LINE",
"243 375 LINE",
"79 688 LINE",
"40 688 LINE",
"222 347 LINE",
"26 0 LINE",
"64 0 LINE",
"242 319 LINE",
"412 0 LINE",
"453 0 LINE",
"263 349 LINE",
"461 688 LINE"
);
}
);
width = 472;
},
{
layerId = "24BDA9C5-7BA7-4A63-82ED-F7EF9C664871";
name = Bold;
paths = (
{
closed = 1;
nodes = (
"438 688 LINE",
"293 438 LINE",
"163 688 LINE",
"5 688 LINE",
"208 349 LINE",
"-11 0 LINE",
"140 0 LINE",
"283 249 LINE",
"422 0 LINE",
"582 0 LINE",
"371 340 LINE",
"591 688 LINE"
);
}
);
width = 598;
}
);
unicode = 0058;
},
{
glyphname = Y;
lastChange = "2012-11-27 07:05:40 +0000";
layers = (
{
anchors = (
{
name = top;
position = "{276, 680}";
}
);
layerId = "FE64E73E-EA44-4B20-B2ED-18E4C3E872F4";
name = Regular;
paths = (
{
closed = 1;
nodes = (
"451 688 LINE",
"279 367 LINE",
"109 688 LINE",
"8 688 LINE",
"235 296 LINE",
"235 0 LINE",
"317 0 LINE",
"317 296 LINE",
"544 688 LINE"
);
}
);
width = 530;
},
{
anchors = (
{
name = top;
position = "{242, 700}";
}
);
layerId = "6D2C0C40-443C-46D1-B6D4-3F78476E95FC";
name = Light;
paths = (
{
closed = 1;
nodes = (
"426 688 LINE",
"243 341 LINE",
"59 688 LINE",
"18 688 LINE",
"225 307 LINE",
"225 0 LINE",
"259 0 LINE",
"259 307 LINE",
"466 688 LINE"
);
}
);
width = 462;
},
{
anchors = (
{
name = top;
position = "{289, 678}";
}
);
layerId = "24BDA9C5-7BA7-4A63-82ED-F7EF9C664871";
name = Bold;
paths = (
{
closed = 1;
nodes = (
"430 688 LINE",
"293 408 LINE",
"159 688 LINE",
"-4 688 LINE",
"223 292 LINE",
"223 0 LINE",
"355 0 LINE",
"355 292 LINE",
"582 688 LINE"
);
}
);
width = 577;
}
);
leftKerningGroup = Y;
rightKerningGroup = Y;
unicode = 0059;
},
{
glyphname = Z;
lastChange = "2012-11-27 07:05:40 +0000";
layers = (
{
anchors = (
{
name = top;
position = "{256, 688}";
}
);
layerId = "FE64E73E-EA44-4B20-B2ED-18E4C3E872F4";
name = Regular;
paths = (
{
closed = 1;
nodes = (
"65 684 LINE",
"65 612 LINE",
"400 612 LINE",
"36 65 LINE",
"36 0 LINE",
"508 0 LINE",
"508 72 LINE",
"139 72 LINE",
"503 616 LINE",
"503 684 LINE"
);
}
);
width = 532;
},
{
anchors = (
{
name = top;
position = "{245, 700}";
}
);
layerId = "6D2C0C40-443C-46D1-B6D4-3F78476E95FC";
name = Light;
paths = (
{
closed = 1;
nodes = (
"68 684 LINE",
"68 652 LINE",
"406 652 LINE",
"39 25 LINE",
"39 0 LINE",
"451 0 LINE",
"451 32 LINE",
"82 32 LINE",
"449 656 LINE",
"449 684 LINE"
);
}
);
width = 486;
},
{
anchors = (
{
name = top;
position = "{288, 688}";
}
);
layerId = "24BDA9C5-7BA7-4A63-82ED-F7EF9C664871";
name = Bold;
paths = (
{
closed = 1;
nodes = (
"57 684 LINE",
"57 572 LINE",
"374 572 LINE",
"31 105 LINE",
"31 0 LINE",
"546 0 LINE",
"546 112 LINE",
"197 112 LINE",
"541 576 LINE",
"541 684 LINE"
);
}
);
width = 564;
}
);
unicode = 005A;
},
{
glyphname = a;
lastChange = "2012-11-27 07:05:40 +0000";
layers = (
{
anchors = (
{
name = ogonek;
position = "{192, -20}";
},
{
name = top;
position = "{245, 478}";
}
);
layerId = "FE64E73E-EA44-4B20-B2ED-18E4C3E872F4";
name = Regular;
paths = (
{
closed = 1;
nodes = (
"181 488 OFFCURVE",
"126 474 OFFCURVE",
"87 452 CURVE",
"92 384 LINE",
"132 408 OFFCURVE",
"179 420 OFFCURVE",
"215 420 CURVE SMOOTH",
"285 420 OFFCURVE",
"323 388 OFFCURVE",
"323 324 CURVE SMOOTH",
"323 83 LINE",
"333 0 LINE",
"405 0 LINE",
"405 317 LINE SMOOTH",
"405 423 OFFCURVE",
"356 488 OFFCURVE",
"235 488 CURVE SMOOTH"
);
},
{
closed = 1;
nodes = (
"141 293 OFFCURVE",
"47 238 OFFCURVE",
"47 129 CURVE SMOOTH",
"47 36 OFFCURVE",
"115 -10 OFFCURVE",
"187 -10 CURVE SMOOTH",
"257 -10 OFFCURVE",
"306 26 OFFCURVE",
"333 88 CURVE",
"323 185 LINE",
"323 106 OFFCURVE",
"270 54 OFFCURVE",
"213 54 CURVE SMOOTH",
"167 54 OFFCURVE",
"135 85 OFFCURVE",
"135 134 CURVE SMOOTH",
"135 192 OFFCURVE",
"187 232 OFFCURVE",
"264 232 CURVE SMOOTH",
"288 232 OFFCURVE",
"313 229 OFFCURVE",
"330 224 CURVE",
"329 285 LINE",
"311 290 OFFCURVE",
"282 293 OFFCURVE",
"256 293 CURVE SMOOTH"
);
}
);
width = 471;
},
{
anchors = (
{
name = ogonek;
position = "{426, 10}";
},
{
name = top;
position = "{232, 478}";
}
);
layerId = "6D2C0C40-443C-46D1-B6D4-3F78476E95FC";
name = Light;
paths = (
{
closed = 1;
nodes = (
"173 484 OFFCURVE",
"134 473 OFFCURVE",
"97 450 CURVE",
"99 417 LINE",
"139 441 OFFCURVE",
"179 453 OFFCURVE",
"214 453 CURVE SMOOTH",
"284 453 OFFCURVE",
"335 420 OFFCURVE",
"335 338 CURVE SMOOTH",
"335 123 LINE",
"340 0 LINE",
"369 0 LINE",
"369 344 LINE SMOOTH",
"369 435 OFFCURVE",
"308 484 OFFCURVE",
"224 484 CURVE SMOOTH"
);
},
{
closed = 1;
nodes = (
"158 282 OFFCURVE",
"59 231 OFFCURVE",
"59 120 CURVE SMOOTH",
"59 38 OFFCURVE",
"121 -10 OFFCURVE",
"186 -10 CURVE SMOOTH",
"254 -10 OFFCURVE",
"323 32 OFFCURVE",
"345 123 CURVE",
"335 195 LINE",
"335 81 OFFCURVE",
"265 21 OFFCURVE",
"199 21 CURVE SMOOTH",
"141 21 OFFCURVE",
"95 60 OFFCURVE",
"95 126 CURVE SMOOTH",
"95 194 OFFCURVE",
"160 251 OFFCURVE",
"258 251 CURVE SMOOTH",
"289 251 OFFCURVE",
"318 249 OFFCURVE",
"342 243 CURVE",
"341 274 LINE",
"316 280 OFFCURVE",
"294 282 OFFCURVE",
"261 282 CURVE SMOOTH"
);
}
);
width = 449;
},
{
anchors = (
{
name = ogonek;
position = "{537, 10}";
},
{
name = top;
position = "{252, 478}";
}
);
layerId = "24BDA9C5-7BA7-4A63-82ED-F7EF9C664871";
name = Bold;
paths = (
{
closed = 1;
nodes = (
"172 492 OFFCURVE",
"107 478 OFFCURVE",
"66 453 CURVE",
"74 341 LINE",
"113 366 OFFCURVE",
"169 378 OFFCURVE",
"208 378 CURVE SMOOTH",
"271 378 OFFCURVE",
"298 348 OFFCURVE",
"298 301 CURVE",
"298 131 LINE",
"319 0 LINE",
"430 0 LINE",
"430 311 LINE SMOOTH",
"430 421 OFFCURVE",
"372 492 OFFCURVE",
"228 492 CURVE SMOOTH"
);
},
{
closed = 1;
nodes = (
"126 292 OFFCURVE",
"33 235 OFFCURVE",
"33 132 CURVE SMOOTH",
"33 43 OFFCURVE",
"91 -10 OFFCURVE",
"178 -10 CURVE SMOOTH",
"245 -10 OFFCURVE",
"284 11 OFFCURVE",
"313 68 CURVE",
"298 182 LINE",
"298 126 OFFCURVE",
"265 85 OFFCURVE",
"226 85 CURVE SMOOTH",
"190 85 OFFCURVE",
"166 108 OFFCURVE",
"166 141 CURVE SMOOTH",
"166 184 OFFCURVE",
"203 211 OFFCURVE",
"259 211 CURVE SMOOTH",
"274 211 OFFCURVE",
"292 210 OFFCURVE",
"304 209 CURVE",
"303 290 LINE",
"291 291 OFFCURVE",
"274 292 OFFCURVE",
"252 292 CURVE SMOOTH"
);
}
);
width = 482;
}
);
unicode = 0061;
},
{
glyphname = ae;
lastChange = "2013-02-10 21:02:08 +0000";
layers = (
{
anchors = (
{
name = top;
position = "{474, 478}";
}
);
layerId = "FE64E73E-EA44-4B20-B2ED-18E4C3E872F4";
name = Regular;
paths = (
{
closed = 1;
nodes = (
"132 407 OFFCURVE",
"178 420 OFFCURVE",
"214 420 CURVE SMOOTH",
"284 420 OFFCURVE",
"331 388 OFFCURVE",
"331 324 CURVE SMOOTH",
"331 277.15 LINE",
"311.643 280.383 OFFCURVE",
"279.376 282 OFFCURVE",
"256 282 CURVE SMOOTH",
"147 282 OFFCURVE",
"47 236 OFFCURVE",
"47 127 CURVE SMOOTH",
"47 34 OFFCURVE",
"117 -10 OFFCURVE",
"195 -10 CURVE SMOOTH",
"260.356 -10 OFFCURVE",
"330.33 26.026 OFFCURVE",
"356.093 98.078 CURVE",
"387.763 25.378 OFFCURVE",
"452.089 -10 OFFCURVE",
"540 -10 CURVE SMOOTH",
"596 -10 OFFCURVE",
"647 3 OFFCURVE",
"683 23 CURVE",
"679 91 LINE",
"645 70 OFFCURVE",
"600 56 OFFCURVE",
"560 56 CURVE SMOOTH",
"468 56 OFFCURVE",
"422 104 OFFCURVE",
"417 212 CURVE",
"706 212 LINE",
"709 228 OFFCURVE",
"710 238 OFFCURVE",
"710 253 CURVE SMOOTH",
"710 383 OFFCURVE",
"661 488 OFFCURVE",
"537 488 CURVE SMOOTH",
"471.286 488 OFFCURVE",
"419.845 460.233 OFFCURVE",
"385.187 411.839 CURVE",
"361.121 460.399 OFFCURVE",
"312.847 488 OFFCURVE",
"234 488 CURVE SMOOTH",
"180 488 OFFCURVE",
"126 474 OFFCURVE",
"87 452 CURVE",
"92 383 LINE"
);
},
{
closed = 1;
nodes = (
"419 278 LINE",
"426 362 OFFCURVE",
"462 418 OFFCURVE",
"528 418 CURVE SMOOTH",
"601 418 OFFCURVE",
"627 356 OFFCURVE",
"627 278 CURVE"
);
},
{
closed = 1;
nodes = (
"167 54 OFFCURVE",
"135 88 OFFCURVE",
"135 137 CURVE SMOOTH",
"135 195 OFFCURVE",
"193 221 OFFCURVE",
"264 221 CURVE SMOOTH",
"285.021 221 OFFCURVE",
"312.947 219.466 OFFCURVE",
"330.979 216.397 CURVE",
"331 195 LINE",
"331 92 OFFCURVE",
"260 54 OFFCURVE",
"213 54 CURVE SMOOTH"
);
}
);
width = 753;
},
{
anchors = (
{
name = top;
position = "{462, 478}";
}
);
layerId = "6D2C0C40-443C-46D1-B6D4-3F78476E95FC";
name = Light;
paths = (
{
closed = 1;
nodes = (
"143 441 OFFCURVE",
"185 453 OFFCURVE",
"220 453 CURVE SMOOTH",
"292 453 OFFCURVE",
"352 410 OFFCURVE",
"352 318 CURVE SMOOTH",
"352 263.923 LINE",
"327.342 268.125 OFFCURVE",
"293.859 269 OFFCURVE",
"263 269 CURVE SMOOTH",
"160 269 OFFCURVE",
"59 224 OFFCURVE",
"59 120 CURVE SMOOTH",
"59 38 OFFCURVE",
"121 -10 OFFCURVE",
"189 -10 CURVE SMOOTH",
"257.409 -10 OFFCURVE",
"342.055 37.754 OFFCURVE",
"366.4 124.861 CURVE",
"392.669 36.372 OFFCURVE",
"455.048 -10 OFFCURVE",
"531 -10 CURVE SMOOTH",
"588 -10 OFFCURVE",
"631 1 OFFCURVE",
"665 22 CURVE",
"663 54 LINE",
"625 32 OFFCURVE",
"586 21 OFFCURVE",
"545 21 CURVE SMOOTH",
"446 21 OFFCURVE",
"387 93 OFFCURVE",
"387 230 CURVE",
"687 230 LINE",
"689 242 OFFCURVE",
"690 258 OFFCURVE",
"690 270 CURVE SMOOTH",
"690 377 OFFCURVE",
"645 484 OFFCURVE",
"528 484 CURVE SMOOTH",
"462.756 484 OFFCURVE",
"409.378 442.267 OFFCURVE",
"379.38 371.363 CURVE",
"361.282 443.195 OFFCURVE",
"301.52 484 OFFCURVE",
"230 484 CURVE SMOOTH",
"179 484 OFFCURVE",
"138 473 OFFCURVE",
"101 450 CURVE",
"103 417 LINE"
);
},
{
closed = 1;
nodes = (
"388 260 LINE",
"395 378 OFFCURVE",
"451 452 OFFCURVE",
"527 452 CURVE SMOOTH",
"606 452 OFFCURVE",
"656 390 OFFCURVE",
"656 260 CURVE"
);
},
{
closed = 1;
nodes = (
"138 21 OFFCURVE",
"95 60 OFFCURVE",
"95 126 CURVE SMOOTH",
"95 190 OFFCURVE",
"162 238 OFFCURVE",
"260 238 CURVE SMOOTH",
"288.562 238 OFFCURVE",
"327.311 237.151 OFFCURVE",
"352 233.107 CURVE",
"352 198 LINE",
"352 86 OFFCURVE",
"262 21 OFFCURVE",
"196 21 CURVE SMOOTH"
);
}
);
width = 743;
},
{
anchors = (
{
name = top;
position = "{550, 478}";
}
);
layerId = "24BDA9C5-7BA7-4A63-82ED-F7EF9C664871";
name = Bold;
paths = (
{
closed = 1;
nodes = (
"118 366 OFFCURVE",
"174 378 OFFCURVE",
"213 378 CURVE SMOOTH",
"276 378 OFFCURVE",
"301 337 OFFCURVE",
"301 290 CURVE SMOOTH",
"301 285.393 LINE",
"289.437 286.246 OFFCURVE",
"274.104 287 OFFCURVE",
"255 287 CURVE SMOOTH",
"129 287 OFFCURVE",
"33 235 OFFCURVE",
"33 132 CURVE SMOOTH",
"33 43 OFFCURVE",
"98 -10 OFFCURVE",
"185 -10 CURVE SMOOTH",
"260.88 -10 OFFCURVE",
"323.068 20.429 OFFCURVE",
"362.937 89.911 CURVE",
"404.465 23.216 OFFCURVE",
"473.603 -10 OFFCURVE",
"537 -10 CURVE SMOOTH",
"608 -10 OFFCURVE",
"654 3 OFFCURVE",
"692 24 CURVE",
"683 126 LINE",
"648 107 OFFCURVE",
"604 96 OFFCURVE",
"555 96 CURVE SMOOTH",
"493 96 OFFCURVE",
"437 130 OFFCURVE",
"428 194 CURVE",
"717 194 LINE",
"720 210 OFFCURVE",
"722 232 OFFCURVE",
"722 249 CURVE SMOOTH",
"722 381 OFFCURVE",
"665 492 OFFCURVE",
"527 492 CURVE SMOOTH",
"458.992 492 OFFCURVE",
"408.956 459.699 OFFCURVE",
"375.694 411.973 CURVE",
"347.821 461.079 OFFCURVE",
"297.846 492 OFFCURVE",
"226 492 CURVE SMOOTH",
"170 492 OFFCURVE",
"112 478 OFFCURVE",
"71 453 CURVE",
"79 341 LINE"
);
},
{
closed = 1;
nodes = (
"429 287 LINE",
"435 353 OFFCURVE",
"473 392 OFFCURVE",
"521 392 CURVE SMOOTH",
"579 392 OFFCURVE",
"602 338 OFFCURVE",
"602 287 CURVE"
);
},
{
closed = 1;
nodes = (
"190 85 OFFCURVE",
"166 108 OFFCURVE",
"166 141 CURVE SMOOTH",
"166 184 OFFCURVE",
"206 206 OFFCURVE",
"262 206 CURVE SMOOTH",
"274.667 206 OFFCURVE",
"289.474 205.287 OFFCURVE",
"301 204.463 CURVE",
"301 182 LINE",
"301 126 OFFCURVE",
"265 85 OFFCURVE",
"226 85 CURVE SMOOTH"
);
}
);
width = 746;
}
);
leftMetricsKey = a;
rightMetricsKey = e;
unicode = 00E6;
},
{
glyphname = b;
lastChange = "2013-07-08 06:53:14 +0000";
layers = (
{
components = (
{
name = Lowercase_round;
transform = "{1, 0, 0, 1, 0, 0}";
}
);
layerId = "FE64E73E-EA44-4B20-B2ED-18E4C3E872F4";
name = Regular;
paths = (
{
closed = 1;
nodes = (
"70 735 LINE",
"70 0 LINE",
"144 0 LINE",
"152 120 LINE",
"152 735 LINE"
);
}
);
width = 543;
},
{
components = (
{
name = Lowercase_round;
transform = "{1, 0, 0, 1, -34, 0}";
}
);
layerId = "6D2C0C40-443C-46D1-B6D4-3F78476E95FC";
name = Light;
paths = (
{
closed = 1;
nodes = (
"84 735 LINE",
"84 0 LINE",
"113 0 LINE",
"118 135 LINE",
"118 735 LINE"
);
}
);
width = 523;
},
{
components = (
{
name = Lowercase_round;
transform = "{1, 0, 0, 1, -10, 0}";
}
);
layerId = "24BDA9C5-7BA7-4A63-82ED-F7EF9C664871";
name = Bold;
paths = (
{
closed = 1;
nodes = (
"56 735 LINE",
"56 0 LINE",
"167 0 LINE",
"188 167 LINE",
"188 735 LINE"
);
}
);
width = 570;
}
);
unicode = 0062;
},
{
glyphname = c;
lastChange = "2012-11-27 07:05:40 +0000";
layers = (
{
anchors = (
{
name = bottom;
position = "{244, 0}";
},
{
name = top;
position = "{209, 478}";
}
);
layerId = "FE64E73E-EA44-4B20-B2ED-18E4C3E872F4";
name = Regular;
paths = (
{
closed = 1;
nodes = (
"155 488 OFFCURVE",
"38 400 OFFCURVE",
"38 233 CURVE SMOOTH",
"38 67 OFFCURVE",
"140 -10 OFFCURVE",
"270 -10 CURVE SMOOTH",
"319 -10 OFFCURVE",
"363 0 OFFCURVE",
"396 13 CURVE",
"389 80 LINE",
"359 65 OFFCURVE",
"322 56 OFFCURVE",
"288 56 CURVE SMOOTH",
"187 56 OFFCURVE",
"128 120 OFFCURVE",
"128 239 CURVE SMOOTH",
"128 362 OFFCURVE",
"198 420 OFFCURVE",
"287 420 CURVE SMOOTH",
"329 420 OFFCURVE",
"365 410 OFFCURVE",
"394 394 CURVE",
"401 466 LINE",
"374 479 OFFCURVE",
"332 488 OFFCURVE",
"284 488 CURVE SMOOTH"
);
}
);
width = 430;
},
{
anchors = (
{
name = bottom;
position = "{258, 0}";
},
{
name = top;
position = "{221, 478}";
}
);
layerId = "6D2C0C40-443C-46D1-B6D4-3F78476E95FC";
name = Light;
paths = (
{
closed = 1;
nodes = (
"154 484 OFFCURVE",
"53 401 OFFCURVE",
"53 233 CURVE SMOOTH",
"53 65 OFFCURVE",
"154 -10 OFFCURVE",
"261 -10 CURVE SMOOTH",
"310 -10 OFFCURVE",
"344 -4 OFFCURVE",
"377 12 CURVE",
"375 44 LINE",
"348 31 OFFCURVE",
"309 21 OFFCURVE",
"275 21 CURVE SMOOTH",
"174 21 OFFCURVE",
"89 81 OFFCURVE",
"89 239 CURVE SMOOTH",
"89 384 OFFCURVE",
"180 453 OFFCURVE",
"278 453 CURVE SMOOTH",
"319 453 OFFCURVE",
"347 444 OFFCURVE",
"377 429 CURVE",
"381 462 LINE",
"354 475 OFFCURVE",
"325 484 OFFCURVE",
"275 484 CURVE SMOOTH"
);
}
);
width = 412;
},
{
anchors = (
{
name = bottom;
position = "{261, 7}";
},
{
name = top;
position = "{299, 479}";
}
);
layerId = "24BDA9C5-7BA7-4A63-82ED-F7EF9C664871";
name = Bold;
paths = (
{
closed = 1;
nodes = (
"145 492 OFFCURVE",
"30 390 OFFCURVE",
"30 236 CURVE SMOOTH",
"30 80 OFFCURVE",
"128 -10 OFFCURVE",
"270 -10 CURVE SMOOTH",
"323 -10 OFFCURVE",
"373 -2 OFFCURVE",
"410 16 CURVE",
"401 120 LINE",
"369 104 OFFCURVE",
"332 96 OFFCURVE",
"298 96 CURVE SMOOTH",
"222 96 OFFCURVE",
"166 152 OFFCURVE",
"166 242 CURVE SMOOTH",
"166 327 OFFCURVE",
"222 382 OFFCURVE",
"300 382 CURVE SMOOTH",
"342 382 OFFCURVE",
"378 373 OFFCURVE",
"406 360 CURVE",
"415 468 LINE",
"384 484 OFFCURVE",
"338 492 OFFCURVE",
"285 492 CURVE SMOOTH"
);
}
);
width = 436;
}
);
unicode = 0063;
},
{
glyphname = d;
lastChange = "2012-11-27 07:05:40 +0000";
layers = (
{
anchors = (
{
name = center;
position = "{272, 239}";
}
);
components = (
{
name = Lowercase_round;
transform = "{-1, 0, -0, -1, 543, 478}";
}
);
layerId = "FE64E73E-EA44-4B20-B2ED-18E4C3E872F4";
name = Regular;
paths = (
{
closed = 1;
nodes = (
"391 735 LINE",
"391 120 LINE",
"399 0 LINE",
"473 0 LINE",
"473 735 LINE"
);
}
);
width = 543;
},
{
anchors = (
{
name = center;
position = "{235, 239}";
}
);
components = (
{
name = Lowercase_round;
transform = "{-1, 0, -0, -1, 557, 474}";
}
);
layerId = "6D2C0C40-443C-46D1-B6D4-3F78476E95FC";
name = Light;
paths = (
{
closed = 1;
nodes = (
"405 735 LINE",
"405 135 LINE",
"410 0 LINE",
"439 0 LINE",
"439 735 LINE"
);
}
);
width = 523;
},
{
anchors = (
{
name = center;
position = "{290, 239}";
}
);
components = (
{
name = Lowercase_round;
transform = "{-1, -0, 0, -1, 580, 482}";
}
);
layerId = "24BDA9C5-7BA7-4A63-82ED-F7EF9C664871";
name = Bold;
paths = (
{
closed = 1;
nodes = (
"382 735 LINE",
"382 167 LINE",
"403 0 LINE",
"514 0 LINE",
"514 735 LINE"
);
}
);
width = 570;
}
);
unicode = 0064;
},
{
glyphname = e;
lastChange = "2012-11-27 07:05:40 +0000";
layers = (
{
anchors = (
{
name = bottom;
position = "{233, 0}";
},
{
name = ogonek;
position = "{418, 10}";
},
{
name = top;
position = "{241, 478}";
}
);
layerId = "FE64E73E-EA44-4B20-B2ED-18E4C3E872F4";
name = Regular;
paths = (
{
closed = 1;
nodes = (
"123 488 OFFCURVE",
"38 386 OFFCURVE",
"38 226 CURVE SMOOTH",
"38 70 OFFCURVE",
"123 -10 OFFCURVE",
"255 -10 CURVE SMOOTH",
"311 -10 OFFCURVE",
"364 3 OFFCURVE",
"400 23 CURVE",
"396 91 LINE",
"362 70 OFFCURVE",
"317 56 OFFCURVE",
"275 56 CURVE SMOOTH",
"179 56 OFFCURVE",
"129 103 OFFCURVE",
"124 211 CURVE",
"423 211 LINE",
"426 227 OFFCURVE",
"427 237 OFFCURVE",
"427 252 CURVE SMOOTH",
"427 382 OFFCURVE",
"376 488 OFFCURVE",
"252 488 CURVE SMOOTH"
);
},
{
closed = 1;
nodes = (
"316 418 OFFCURVE",
"344 356 OFFCURVE",
"344 278 CURVE",
"126 278 LINE",
"133 362 OFFCURVE",
"177 418 OFFCURVE",
"243 418 CURVE SMOOTH"
);
}
);
width = 470;
},
{
anchors = (
{
name = bottom;
position = "{230, 0}";
},
{
name = ogonek;
position = "{415, 10}";
},
{
name = top;
position = "{230, 478}";
}
);
layerId = "6D2C0C40-443C-46D1-B6D4-3F78476E95FC";
name = Light;
paths = (
{
closed = 1;
nodes = (
"131 484 OFFCURVE",
"48 382 OFFCURVE",
"48 226 CURVE SMOOTH",
"48 72 OFFCURVE",
"127 -10 OFFCURVE",
"232 -10 CURVE SMOOTH",
"289 -10 OFFCURVE",
"336 1 OFFCURVE",
"370 22 CURVE",
"368 54 LINE",
"330 32 OFFCURVE",
"287 21 OFFCURVE",
"246 21 CURVE SMOOTH",
"143 21 OFFCURVE",
"84 93 OFFCURVE",
"84 230 CURVE",
"395 230 LINE",
"397 242 OFFCURVE",
"398 258 OFFCURVE",
"398 270 CURVE SMOOTH",
"398 377 OFFCURVE",
"350 484 OFFCURVE",
"233 484 CURVE SMOOTH"
);
},
{
closed = 1;
nodes = (
"311 452 OFFCURVE",
"364 390 OFFCURVE",
"364 260 CURVE",
"85 260 LINE",
"92 378 OFFCURVE",
"156 452 OFFCURVE",
"232 452 CURVE SMOOTH"
);
}
);
width = 451;
},
{
anchors = (
{
name = bottom;
position = "{250, 0}";
},
{
name = ogonek;
position = "{447, 10}";
},
{
name = top;
position = "{253, 478}";
}
);
layerId = "24BDA9C5-7BA7-4A63-82ED-F7EF9C664871";
name = Bold;
paths = (
{
closed = 1;
nodes = (
"127 492 OFFCURVE",
"30 390 OFFCURVE",
"30 226 CURVE SMOOTH",
"30 68 OFFCURVE",
"122 -10 OFFCURVE",
"254 -10 CURVE SMOOTH",
"328 -10 OFFCURVE",
"383 4 OFFCURVE",
"421 25 CURVE",
"412 125 LINE",
"376 106 OFFCURVE",
"333 95 OFFCURVE",
"280 95 CURVE SMOOTH",
"208 95 OFFCURVE",
"163 129 OFFCURVE",
"156 193 CURVE",
"449 193 LINE",
"452 209 OFFCURVE",
"454 232 OFFCURVE",
"454 249 CURVE SMOOTH",
"454 381 OFFCURVE",
"394 492 OFFCURVE",
"256 492 CURVE SMOOTH"
);
},
{
closed = 1;
nodes = (
"311 390 OFFCURVE",
"334 344 OFFCURVE",
"334 288 CURVE",
"157 288 LINE",
"165 354 OFFCURVE",
"202 390 OFFCURVE",
"250 390 CURVE SMOOTH"
);
}
);
width = 478;
}
);
unicode = 0065;
},
{
glyphname = f;
lastChange = "2012-11-27 07:05:40 +0000";
layers = (
{
layerId = "FE64E73E-EA44-4B20-B2ED-18E4C3E872F4";
name = Regular;
paths = (
{
closed = 1;
nodes = (
"168 745 OFFCURVE",
"93 666 OFFCURVE",
"93 519 CURVE SMOOTH",
"93 474 LINE",
"26 474 LINE",
"26 410 LINE",
"93 410 LINE",
"93 0 LINE",
"175 0 LINE",
"175 410 LINE",
"296 410 LINE",
"296 474 LINE",
"175 474 LINE",
"175 530 LINE SMOOTH",
"175 632 OFFCURVE",
"229 677 OFFCURVE",
"288 677 CURVE SMOOTH",
"316 677 OFFCURVE",
"333 673 OFFCURVE",
"349 667 CURVE",
"354 735 LINE",
"338 741 OFFCURVE",
"314 745 OFFCURVE",
"287 745 CURVE SMOOTH"
);
}
);
width = 308;
},
{
layerId = "6D2C0C40-443C-46D1-B6D4-3F78476E95FC";
name = Light;
paths = (
{
closed = 1;
nodes = (
"178 745 OFFCURVE",
"104 675 OFFCURVE",
"104 538 CURVE SMOOTH",
"104 470 LINE",
"37 470 LINE",
"37 441 LINE",
"104 441 LINE",
"104 0 LINE",
"138 0 LINE",
"138 441 LINE",
"259 441 LINE",
"259 470 LINE",
"138 470 LINE",
"138 549 LINE SMOOTH",
"138 651 OFFCURVE",
"191 714 OFFCURVE",
"264 714 CURVE SMOOTH",
"290 714 OFFCURVE",
"305 711 OFFCURVE",
"322 704 CURVE",
"325 735 LINE",
"309 742 OFFCURVE",
"294 745 OFFCURVE",
"269 745 CURVE SMOOTH"
);
}
);
width = 268;
},
{
layerId = "24BDA9C5-7BA7-4A63-82ED-F7EF9C664871";
name = Bold;
paths = (
{
closed = 1;
nodes = (
"184 745 OFFCURVE",
"80 666 OFFCURVE",
"80 506 CURVE SMOOTH",
"80 478 LINE",
"13 478 LINE",
"13 374 LINE",
"80 374 LINE",
"80 0 LINE",
"212 0 LINE",
"212 374 LINE",
"343 374 LINE",
"343 478 LINE",
"212 478 LINE",
"212 517 LINE SMOOTH",
"212 589 OFFCURVE",
"253 635 OFFCURVE",
"318 635 CURVE SMOOTH",
"346 635 OFFCURVE",
"371 631 OFFCURVE",
"390 623 CURVE",
"399 732 LINE",
"379 740 OFFCURVE",
"347 745 OFFCURVE",
"317 745 CURVE SMOOTH"
);
}
);
width = 351;
}
);
unicode = 0066;
},
{
glyphname = g;
lastChange = "2013-02-10 20:29:29 +0000";
layers = (
{
anchors = (
{
name = top;
position = "{264, 478}";
}
);
components = (
{
name = Lowercase_round;
transform = "{-1, 0, -0, -1, 543, 478}";
}
);
layerId = "FE64E73E-EA44-4B20-B2ED-18E4C3E872F4";
name = Regular;
paths = (
{
closed = 1;
nodes = (
"118 -204 OFFCURVE",
"168 -215 OFFCURVE",
"213 -215 CURVE SMOOTH",
"370 -215 OFFCURVE",
"473 -132 OFFCURVE",
"473 47 CURVE",
"473 478 LINE",
"399 478 LINE",
"391 358 LINE",
"391 115 LINE",
"391 40 LINE SMOOTH",
"391 -88 OFFCURVE",
"324 -147 OFFCURVE",
"219 -147 CURVE SMOOTH",
"177 -147 OFFCURVE",
"123 -131 OFFCURVE",
"81 -103 CURVE",
"76 -177 LINE"
);
}
);
width = 543;
},
{
anchors = (
{
name = top;
position = "{254, 478}";
}
);
components = (
{
name = Lowercase_round;
transform = "{-1, 0, -0, -1, 557, 474}";
}
);
layerId = "6D2C0C40-443C-46D1-B6D4-3F78476E95FC";
name = Light;
paths = (
{
closed = 1;
nodes = (
"124 -203 OFFCURVE",
"181 -215 OFFCURVE",
"226 -215 CURVE SMOOTH",
"361 -215 OFFCURVE",
"438 -119 OFFCURVE",
"438 27 CURVE",
"439 474 LINE",
"410 474 LINE",
"405 339 LINE",
"404 130 LINE",
"404 22 LINE",
"404 -104 OFFCURVE",
"339 -185 OFFCURVE",
"232 -185 CURVE SMOOTH",
"183 -185 OFFCURVE",
"135 -169 OFFCURVE",
"94 -142 CURVE",
"90 -176 LINE"
);
}
);
width = 523;
},
{
anchors = (
{
name = top;
position = "{288, 478}";
}
);
components = (
{
name = Lowercase_round;
transform = "{-1, -0, 0, -1, 580, 482}";
}
);
layerId = "24BDA9C5-7BA7-4A63-82ED-F7EF9C664871";
name = Bold;
paths = (
{
closed = 1;
nodes = (
"116 -202 OFFCURVE",
"172 -215 OFFCURVE",
"234 -215 CURVE SMOOTH",
"391 -215 OFFCURVE",
"514 -135 OFFCURVE",
"514 66 CURVE SMOOTH",
"514 482 LINE",
"403 482 LINE",
"382 311 LINE",
"382 110 LINE",
"384 50 LINE SMOOTH",
"387 -48 OFFCURVE",
"332 -107 OFFCURVE",
"236 -107 CURVE SMOOTH",
"180 -107 OFFCURVE",
"129 -91 OFFCURVE",
"80 -57 CURVE",
"75 -174 LINE"
);
}
);
width = 570;
}
);
unicode = 0067;
},
{
glyphname = h;
lastChange = "2012-11-27 07:05:40 +0000";
layers = (
{
anchors = (
{
name = center;
position = "{300, 239}";
},
{
name = top;
position = "{300, 478}";
}
);
layerId = "FE64E73E-EA44-4B20-B2ED-18E4C3E872F4";
name = Regular;
paths = (
{
closed = 1;
nodes = (
"232 488 OFFCURVE",
"160 449 OFFCURVE",
"141 358 CURVE",
"152 267 LINE",
"152 350 OFFCURVE",
"205 416 OFFCURVE",
"269 416 CURVE SMOOTH",
"344 416 OFFCURVE",
"375 363 OFFCURVE",
"375 295 CURVE SMOOTH",
"375 0 LINE",
"457 0 LINE",
"457 319 LINE SMOOTH",
"457 417 OFFCURVE",
"401 488 OFFCURVE",
"298 488 CURVE SMOOTH"
);
},
{
closed = 1;
nodes = (
"70 735 LINE",
"70 0 LINE",
"152 0 LINE",
"152 735 LINE"
);
}
);
width = 523;
},
{
anchors = (
{
name = center;
position = "{251, 239}";
},
{
name = top;
position = "{250, 478}";
}
);
layerId = "6D2C0C40-443C-46D1-B6D4-3F78476E95FC";
name = Light;
paths = (
{
closed = 1;
nodes = (
"193 484 OFFCURVE",
"131 430 OFFCURVE",
"115 363 CURVE",
"118 282 LINE",
"118 359 OFFCURVE",
"177 452 OFFCURVE",
"261 452 CURVE SMOOTH",
"340 452 OFFCURVE",
"385 396 OFFCURVE",
"385 306 CURVE SMOOTH",
"385 0 LINE",
"419 0 LINE",
"419 320 LINE SMOOTH",
"419 412 OFFCURVE",
"366 484 OFFCURVE",
"265 484 CURVE SMOOTH"
);
},
{
closed = 1;
nodes = (
"84 735 LINE",
"84 0 LINE",
"118 0 LINE",
"118 735 LINE"
);
}
);
width = 499;
},
{
anchors = (
{
name = center;
position = "{272, 239}";
},
{
name = top;
position = "{272, 478}";
}
);
layerId = "24BDA9C5-7BA7-4A63-82ED-F7EF9C664871";
name = Bold;
paths = (
{
closed = 1;
nodes = (
"248 490 OFFCURVE",
"188 453 OFFCURVE",
"173 369 CURVE",
"188 248 LINE",
"188 324 OFFCURVE",
"220 372 OFFCURVE",
"275 372 CURVE SMOOTH",
"331 372 OFFCURVE",
"359 329 OFFCURVE",
"359 267 CURVE SMOOTH",
"359 0 LINE",
"491 0 LINE",
"491 320 LINE SMOOTH",
"491 418 OFFCURVE",
"427 490 OFFCURVE",
"319 490 CURVE SMOOTH"
);
},
{
closed = 1;
nodes = (
"56 735 LINE",
"56 0 LINE",
"188 0 LINE",
"188 735 LINE"
);
}
);
width = 543;
}
);
unicode = 0068;
},
{
glyphname = i;
lastChange = "2012-11-27 07:05:40 +0000";
layers = (
{
layerId = "FE64E73E-EA44-4B20-B2ED-18E4C3E872F4";
name = Regular;
paths = (
{
closed = 1;
nodes = (
"152 478 LINE",
"70 478 LINE",
"70 0 LINE",
"152 0 LINE"
);
},
{
closed = 1;
nodes = (
"83 653 OFFCURVE",
"60 630 OFFCURVE",
"60 602 CURVE SMOOTH",
"60 574 OFFCURVE",
"83 551 OFFCURVE",
"111 551 CURVE SMOOTH",
"139 551 OFFCURVE",
"162 574 OFFCURVE",
"162 602 CURVE",
"162 630 OFFCURVE",
"139 653 OFFCURVE",
"111 653 CURVE SMOOTH"
);
}
);
width = 222;
},
{
anchors = (
{
name = top;
position = "{101, 478}";
}
);
layerId = "6D2C0C40-443C-46D1-B6D4-3F78476E95FC";
name = Light;
paths = (
{
closed = 1;
nodes = (
"118 474 LINE",
"84 474 LINE",
"84 0 LINE",
"118 0 LINE"
);
},
{
closed = 1;
nodes = (
"86 629 OFFCURVE",
"74 617 OFFCURVE",
"74 602 CURVE SMOOTH",
"74 587 OFFCURVE",
"86 575 OFFCURVE",
"101 575 CURVE SMOOTH",
"116 575 OFFCURVE",
"128 587 OFFCURVE",
"128 602 CURVE SMOOTH",
"128 617 OFFCURVE",
"116 629 OFFCURVE",
"101 629 CURVE SMOOTH"
);
}
);
width = 202;
},
{
layerId = "24BDA9C5-7BA7-4A63-82ED-F7EF9C664871";
name = Bold;
paths = (
{
closed = 1;
nodes = (
"188 482 LINE",
"56 482 LINE",
"56 0 LINE",
"188 0 LINE"
);
},
{
closed = 1;
nodes = (
"80 672 OFFCURVE",
"46 641 OFFCURVE",
"46 602 CURVE SMOOTH",
"46 563 OFFCURVE",
"80 532 OFFCURVE",
"122 532 CURVE SMOOTH",
"164 532 OFFCURVE",
"198 563 OFFCURVE",
"198 602 CURVE SMOOTH",
"198 641 OFFCURVE",
"164 672 OFFCURVE",
"122 672 CURVE SMOOTH"
);
}
);
width = 244;
}
);
unicode = 0069;
},
{
glyphname = dotlessi;
lastChange = "2012-11-27 07:05:40 +0000";
layers = (
{
anchors = (
{
name = ogonek;
position = "{200, 10}";
},
{
name = top;
position = "{111, 478}";
}
);
layerId = "FE64E73E-EA44-4B20-B2ED-18E4C3E872F4";
name = Regular;
paths = (
{
closed = 1;
nodes = (
"70 478 LINE",
"70 0 LINE",
"152 0 LINE",
"152 478 LINE"
);
}
);
width = 222;
},
{
anchors = (
{
name = ogonek;
position = "{175, 10}";
},
{
name = top;
position = "{97, 478}";
}
);
layerId = "6D2C0C40-443C-46D1-B6D4-3F78476E95FC";
name = Light;
paths = (
{
closed = 1;
nodes = (
"80 474 LINE",
"80 0 LINE",
"114 0 LINE",
"114 474 LINE"
);
}
);
width = 194;
},
{
anchors = (
{
name = ogonek;
position = "{227, 10}";
},
{
name = top;
position = "{126, 478}";
}
);
layerId = "24BDA9C5-7BA7-4A63-82ED-F7EF9C664871";
name = Bold;
paths = (
{
closed = 1;
nodes = (
"60 482 LINE",
"60 0 LINE",
"192 0 LINE",
"192 482 LINE"
);
}
);
width = 252;
}
);
leftKerningGroup = imarks;
rightKerningGroup = imarks;
unicode = 0131;
},
{
glyphname = j;
lastChange = "2012-11-27 07:05:40 +0000";
layers = (
{
layerId = "FE64E73E-EA44-4B20-B2ED-18E4C3E872F4";
name = Regular;
paths = (
{
closed = 1;
nodes = (
"86 478 LINE",
"86 122 LINE SMOOTH",
"86 -26 OFFCURVE",
"40 -91 OFFCURVE",
"-61 -150 CURVE",
"-18 -213 LINE",
"95 -149 OFFCURVE",
"168 -65 OFFCURVE",
"168 127 CURVE SMOOTH",
"168 478 LINE"
);
},
{
closed = 1;
nodes = (
"99 653 OFFCURVE",
"76 630 OFFCURVE",
"76 602 CURVE SMOOTH",
"76 574 OFFCURVE",
"99 551 OFFCURVE",
"127 551 CURVE SMOOTH",
"155 551 OFFCURVE",
"178 574 OFFCURVE",
"178 602 CURVE",
"178 630 OFFCURVE",
"155 653 OFFCURVE",
"127 653 CURVE SMOOTH"
);
}
);
width = 238;
},
{
layerId = "6D2C0C40-443C-46D1-B6D4-3F78476E95FC";
name = Light;
paths = (
{
closed = 1;
nodes = (
"99 474 LINE",
"99 133 LINE SMOOTH",
"99 -40 OFFCURVE",
"47 -124 OFFCURVE",
"-55 -188 CURVE",
"-36 -215 LINE",
"73 -144 OFFCURVE",
"133 -53 OFFCURVE",
"133 142 CURVE SMOOTH",
"133 474 LINE"
);
},
{
closed = 1;
nodes = (
"101 629 OFFCURVE",
"89 617 OFFCURVE",
"89 602 CURVE SMOOTH",
"89 587 OFFCURVE",
"101 575 OFFCURVE",
"116 575 CURVE SMOOTH",
"131 575 OFFCURVE",
"143 587 OFFCURVE",
"143 602 CURVE SMOOTH",
"143 617 OFFCURVE",
"131 629 OFFCURVE",
"116 629 CURVE SMOOTH"
);
}
);
width = 217;
},
{
layerId = "24BDA9C5-7BA7-4A63-82ED-F7EF9C664871";
name = Bold;
paths = (
{
closed = 1;
nodes = (
"83 482 LINE",
"83 143 LINE SMOOTH",
"83 16 OFFCURVE",
"42 -55 OFFCURVE",
"-72 -107 CURVE",
"-14 -215 LINE",
"124 -152 OFFCURVE",
"215 -55 OFFCURVE",
"215 146 CURVE SMOOTH",
"215 482 LINE"
);
},
{
closed = 1;
nodes = (
"107 672 OFFCURVE",
"73 641 OFFCURVE",
"73 602 CURVE SMOOTH",
"73 563 OFFCURVE",
"107 532 OFFCURVE",
"149 532 CURVE SMOOTH",
"191 532 OFFCURVE",
"225 563 OFFCURVE",
"225 602 CURVE SMOOTH",
"225 641 OFFCURVE",
"191 672 OFFCURVE",
"149 672 CURVE SMOOTH"
);
}
);
width = 269;
}
);
unicode = 006A;
},
{
glyphname = k;
lastChange = "2012-11-27 07:05:40 +0000";
layers = (
{
anchors = (
{
name = bottom;
position = "{300, -1}";
}
);
layerId = "FE64E73E-EA44-4B20-B2ED-18E4C3E872F4";
name = Regular;
paths = (
{
closed = 1;
nodes = (
"242 257 LINE",
"447 478 LINE",
"345 478 LINE",
"141 245 LINE",
"141 169 LINE",
"180 210 LINE",
"338 0 LINE",
"450 0 LINE"
);
},
{
closed = 1;
nodes = (
"152 735 LINE",
"70 735 LINE",
"70 0 LINE",
"152 0 LINE"
);
}
);
width = 453;
},
{
anchors = (
{
name = bottom;
position = "{336, 0}";
}
);
layerId = "6D2C0C40-443C-46D1-B6D4-3F78476E95FC";
name = Light;
paths = (
{
closed = 1;
nodes = (
"171 238 LINE",
"396 476 LINE",
"353 476 LINE",
"115 222 LINE",
"115 186 LINE",
"144 216 LINE",
"348 0 LINE",
"399 0 LINE"
);
},
{
closed = 1;
nodes = (
"118 735 LINE",
"84 735 LINE",
"84 0 LINE",
"118 0 LINE"
);
}
);
width = 414;
},
{
anchors = (
{
name = bottom;
position = "{240, 0}";
}
);
layerId = "24BDA9C5-7BA7-4A63-82ED-F7EF9C664871";
name = Bold;
paths = (
{
closed = 1;
nodes = (
"307 264 LINE",
"498 482 LINE",
"339 482 LINE",
"188 277 LINE",
"188 162 LINE",
"207 184 LINE",
"329 0 LINE",
"497 0 LINE"
);
},
{
closed = 1;
nodes = (
"188 735 LINE",
"56 735 LINE",
"56 0 LINE",
"188 0 LINE"
);
}
);
width = 482;
},
{
anchors = (
{
name = bottom;
position = "{300, 0}";
}
);
associatedMasterId = "FE64E73E-EA44-4B20-B2ED-18E4C3E872F4";
layerId = "5DAB4074-2411-452B-9DDF-76BDE0701090";
name = "new Layer";
width = 600;
}
);
unicode = 006B;
},
{
glyphname = l;
lastChange = "2012-11-27 07:05:40 +0000";
layers = (
{
anchors = (
{
name = bottom;
position = "{300, 0}";
},
{
name = top;
position = "{300, 478}";
},
{
name = topright;
position = "{580, 478}";
}
);
layerId = "FE64E73E-EA44-4B20-B2ED-18E4C3E872F4";
name = Regular;
paths = (
{
closed = 1;
nodes = (
"70 735 LINE",
"70 0 LINE",
"152 0 LINE",
"152 735 LINE"
);
}
);
width = 222;
},
{
anchors = (
{
name = bottom;
position = "{336, 0}";
},
{
name = top;
position = "{336, 478}";
},
{
name = topright;
position = "{616, 478}";
}
);
layerId = "6D2C0C40-443C-46D1-B6D4-3F78476E95FC";
name = Light;
paths = (
{
closed = 1;
nodes = (
"84 735 LINE",
"84 0 LINE",
"118 0 LINE",
"118 735 LINE"
);
}
);
width = 202;
},
{
anchors = (
{
name = bottom;
position = "{122, 0}";
},
{
name = top;
position = "{122, 478}";
},
{
name = topright;
position = "{228, 478}";
}
);
layerId = "24BDA9C5-7BA7-4A63-82ED-F7EF9C664871";
name = Bold;
paths = (
{
closed = 1;
nodes = (
"56 735 LINE",
"56 0 LINE",
"188 0 LINE",
"188 735 LINE"
);
}
);
width = 244;
}
);
unicode = 006C;
},
{
glyphname = m;
lastChange = "2012-11-27 07:05:40 +0000";
layers = (
{
layerId = "FE64E73E-EA44-4B20-B2ED-18E4C3E872F4";
name = Regular;
paths = (
{
closed = 1;
nodes = (
"506 488 OFFCURVE",
"452 450 OFFCURVE",
"419 368 CURVE",
"437 267 LINE",
"437 350 OFFCURVE",
"484 416 OFFCURVE",
"545 416 CURVE SMOOTH",
"615 416 OFFCURVE",
"640 365 OFFCURVE",
"640 294 CURVE SMOOTH",
"640 0 LINE",
"722 0 LINE",
"722 318 LINE SMOOTH",
"722 414 OFFCURVE",
"675 488 OFFCURVE",
"574 488 CURVE SMOOTH"
);
},
{
closed = 1;
nodes = (
"70 478 LINE",
"70 0 LINE",
"152 0 LINE",
"152 358 LINE",
"144 478 LINE"
);
},
{
closed = 1;
nodes = (
"221 488 OFFCURVE",
"159 448 OFFCURVE",
"141 358 CURVE",
"152 267 LINE",
"152 350 OFFCURVE",
"199 416 OFFCURVE",
"260 416 CURVE SMOOTH",
"330 416 OFFCURVE",
"355 365 OFFCURVE",
"355 294 CURVE SMOOTH",
"355 0 LINE",
"437 0 LINE",
"437 318 LINE SMOOTH",
"437 414 OFFCURVE",
"390 488 OFFCURVE",
"289 488 CURVE SMOOTH"
);
}
);
width = 788;
},
{
layerId = "6D2C0C40-443C-46D1-B6D4-3F78476E95FC";
name = Light;
paths = (
{
closed = 1;
nodes = (
"470 484 OFFCURVE",
"413 434 OFFCURVE",
"391 361 CURVE",
"399 285 LINE",
"399 366 OFFCURVE",
"459 451 OFFCURVE",
"531 451 CURVE SMOOTH",
"606 451 OFFCURVE",
"646 393 OFFCURVE",
"646 312 CURVE SMOOTH",
"646 0 LINE",
"680 0 LINE",
"680 326 LINE SMOOTH",
"680 409 OFFCURVE",
"630 484 OFFCURVE",
"535 484 CURVE SMOOTH"
);
},
{
closed = 1;
nodes = (
"84 474 LINE",
"84 0 LINE",
"118 0 LINE",
"118 363 LINE",
"113 474 LINE"
);
},
{
closed = 1;
nodes = (
"189 484 OFFCURVE",
"134 436 OFFCURVE",
"114 363 CURVE",
"118 285 LINE",
"118 366 OFFCURVE",
"178 451 OFFCURVE",
"250 451 CURVE SMOOTH",
"325 451 OFFCURVE",
"365 393 OFFCURVE",
"365 312 CURVE SMOOTH",
"365 0 LINE",
"399 0 LINE",
"399 326 LINE SMOOTH",
"399 409 OFFCURVE",
"349 484 OFFCURVE",
"254 484 CURVE SMOOTH"
);
}
);
width = 760;
},
{
layerId = "24BDA9C5-7BA7-4A63-82ED-F7EF9C664871";
name = Bold;
paths = (
{
closed = 1;
nodes = (
"539 492 OFFCURVE",
"484 445 OFFCURVE",
"459 375 CURVE",
"481 248 LINE",
"481 324 OFFCURVE",
"514 374 OFFCURVE",
"567 374 CURVE SMOOTH",
"623 374 OFFCURVE",
"642 331 OFFCURVE",
"642 269 CURVE SMOOTH",
"642 0 LINE",
"774 0 LINE",
"774 322 LINE SMOOTH",
"774 420 OFFCURVE",
"718 492 OFFCURVE",
"610 492 CURVE SMOOTH"
);
},
{
closed = 1;
nodes = (
"56 482 LINE",
"56 0 LINE",
"188 0 LINE",
"188 311 LINE",
"167 482 LINE"
);
},
{
closed = 1;
nodes = (
"246 492 OFFCURVE",
"187 452 OFFCURVE",
"173 369 CURVE",
"188 248 LINE",
"188 324 OFFCURVE",
"221 374 OFFCURVE",
"274 374 CURVE SMOOTH",
"330 374 OFFCURVE",
"349 331 OFFCURVE",
"349 269 CURVE SMOOTH",
"349 0 LINE",
"481 0 LINE",
"481 322 LINE SMOOTH",
"481 420 OFFCURVE",
"425 492 OFFCURVE",
"317 492 CURVE SMOOTH"
);
}
);
width = 826;
}
);
unicode = 006D;
},
{
glyphname = n;
lastChange = "2012-11-27 07:05:40 +0000";
layers = (
{
anchors = (
{
name = bottom;
position = "{300, 0}";
},
{
name = top;
position = "{274, 478}";
}
);
layerId = "FE64E73E-EA44-4B20-B2ED-18E4C3E872F4";
name = Regular;
paths = (
{
closed = 1;
nodes = (
"232 488 OFFCURVE",
"160 449 OFFCURVE",
"141 358 CURVE",
"152 267 LINE",
"152 350 OFFCURVE",
"205 416 OFFCURVE",
"269 416 CURVE SMOOTH",
"344 416 OFFCURVE",
"375 363 OFFCURVE",
"375 295 CURVE SMOOTH",
"375 0 LINE",
"457 0 LINE",
"457 319 LINE SMOOTH",
"457 417 OFFCURVE",
"401 488 OFFCURVE",
"298 488 CURVE SMOOTH"
);
},
{
closed = 1;
nodes = (
"70 478 LINE",
"70 0 LINE",
"152 0 LINE",
"152 358 LINE",
"144 478 LINE"
);
}
);
width = 523;
},
{
anchors = (
{
name = bottom;
position = "{298, 0}";
},
{
name = top;
position = "{249, 478}";
}
);
layerId = "6D2C0C40-443C-46D1-B6D4-3F78476E95FC";
name = Light;
paths = (
{
closed = 1;
nodes = (
"193 484 OFFCURVE",
"131 430 OFFCURVE",
"115 363 CURVE",
"118 282 LINE",
"118 359 OFFCURVE",
"177 452 OFFCURVE",
"261 452 CURVE SMOOTH",
"340 452 OFFCURVE",
"385 396 OFFCURVE",
"385 306 CURVE SMOOTH",
"385 0 LINE",
"419 0 LINE",
"419 320 LINE SMOOTH",
"419 412 OFFCURVE",
"366 484 OFFCURVE",
"265 484 CURVE SMOOTH"
);
},
{
closed = 1;
nodes = (
"84 474 LINE",
"84 0 LINE",
"118 0 LINE",
"118 363 LINE",
"113 474 LINE"
);
}
);
width = 499;
},
{
anchors = (
{
name = bottom;
position = "{272, 0}";
},
{
name = top;
position = "{285, 478}";
}
);
layerId = "24BDA9C5-7BA7-4A63-82ED-F7EF9C664871";
name = Bold;
paths = (
{
closed = 1;
nodes = (
"248 492 OFFCURVE",
"188 453 OFFCURVE",
"173 369 CURVE",
"188 248 LINE",
"188 324 OFFCURVE",
"220 374 OFFCURVE",
"275 374 CURVE SMOOTH",
"331 374 OFFCURVE",
"359 331 OFFCURVE",
"359 269 CURVE SMOOTH",
"359 0 LINE",
"491 0 LINE",
"491 322 LINE SMOOTH",
"491 420 OFFCURVE",
"427 492 OFFCURVE",
"319 492 CURVE SMOOTH"
);
},
{
closed = 1;
nodes = (
"56 482 LINE",
"56 0 LINE",
"188 0 LINE",
"188 311 LINE",
"167 482 LINE"
);
}
);
width = 543;
}
);
unicode = 006E;
},
{
glyphname = o;
lastChange = "2012-11-27 07:05:40 +0000";
layers = (
{
anchors = (
{
name = top;
position = "{260, 478}";
}
);
layerId = "FE64E73E-EA44-4B20-B2ED-18E4C3E872F4";
name = Regular;
paths = (
{
closed = 1;
nodes = (
"124 488 OFFCURVE",
"38 388 OFFCURVE",
"38 239 CURVE SMOOTH",
"38 90 OFFCURVE",
"124 -10 OFFCURVE",
"260 -10 CURVE SMOOTH",
"396 -10 OFFCURVE",
"482 90 OFFCURVE",
"482 239 CURVE SMOOTH",
"482 388 OFFCURVE",
"396 488 OFFCURVE",
"260 488 CURVE SMOOTH"
);
},
{
closed = 1;
nodes = (
"347 422 OFFCURVE",
"392 342 OFFCURVE",
"392 239 CURVE SMOOTH",
"392 136 OFFCURVE",
"347 56 OFFCURVE",
"260 56 CURVE SMOOTH",
"173 56 OFFCURVE",
"128 136 OFFCURVE",
"128 239 CURVE SMOOTH",
"128 342 OFFCURVE",
"173 422 OFFCURVE",
"260 422 CURVE SMOOTH"
);
}
);
width = 520;
},
{
anchors = (
{
name = top;
position = "{247, 478}";
}
);
layerId = "6D2C0C40-443C-46D1-B6D4-3F78476E95FC";
name = Light;
paths = (
{
closed = 1;
nodes = (
"122 484 OFFCURVE",
"50 376 OFFCURVE",
"50 237 CURVE SMOOTH",
"50 99 OFFCURVE",
"122 -10 OFFCURVE",
"247 -10 CURVE SMOOTH",
"372 -10 OFFCURVE",
"444 99 OFFCURVE",
"444 237 CURVE SMOOTH",
"444 376 OFFCURVE",
"372 484 OFFCURVE",
"247 484 CURVE SMOOTH"
);
},
{
closed = 1;
nodes = (
"336 453 OFFCURVE",
"408 377 OFFCURVE",
"408 237 CURVE SMOOTH",
"408 97 OFFCURVE",
"336 21 OFFCURVE",
"247 21 CURVE SMOOTH",
"158 21 OFFCURVE",
"86 97 OFFCURVE",
"86 237 CURVE SMOOTH",
"86 377 OFFCURVE",
"158 453 OFFCURVE",
"247 453 CURVE SMOOTH"
);
}
);
width = 494;
},
{
anchors = (
{
name = top;
position = "{271, 478}";
}
);
layerId = "24BDA9C5-7BA7-4A63-82ED-F7EF9C664871";
name = Bold;
paths = (
{
closed = 1;
nodes = (
"137 492 OFFCURVE",
"30 403 OFFCURVE",
"30 241 CURVE SMOOTH",
"30 80 OFFCURVE",
"137 -10 OFFCURVE",
"271 -10 CURVE SMOOTH",
"405 -10 OFFCURVE",
"512 80 OFFCURVE",
"512 241 CURVE SMOOTH",
"512 403 OFFCURVE",
"405 492 OFFCURVE",
"271 492 CURVE SMOOTH"
);
},
{
closed = 1;
nodes = (
"332 390 OFFCURVE",
"373 340 OFFCURVE",
"373 241 CURVE SMOOTH",
"373 143 OFFCURVE",
"332 92 OFFCURVE",
"271 92 CURVE SMOOTH",
"210 92 OFFCURVE",
"169 143 OFFCURVE",
"169 241 CURVE SMOOTH",
"169 340 OFFCURVE",
"210 390 OFFCURVE",
"271 390 CURVE SMOOTH"
);
}
);
width = 542;
}
);
unicode = 006F;
},
{
glyphname = oslash;
lastChange = "2012-11-27 07:05:40 +0000";
layers = (
{
anchors = (
{
name = top;
position = "{260, 478}";
}
);
components = (
{
name = o;
transform = "{1, 0, 0, 1, 0, 0}";
}
);
layerId = "FE64E73E-EA44-4B20-B2ED-18E4C3E872F4";
name = Regular;
paths = (
{
closed = 1;
nodes = (
"18 6 LINE",
"58 -29 LINE",
"502 472 LINE",
"462 507 LINE"
);
}
);
width = 520;
},
{
anchors = (
{
name = top;
position = "{245, 478}";
}
);
components = (
{
name = o;
transform = "{1, 0, 0, 1, 0, 0}";
}
);
layerId = "6D2C0C40-443C-46D1-B6D4-3F78476E95FC";
name = Light;
paths = (
{
closed = 1;
nodes = (
"44 0 LINE",
"68 -19 LINE",
"446 474 LINE",
"422 493 LINE"
);
}
);
width = 490;
},
{
anchors = (
{
name = top;
position = "{298, 478}";
}
);
components = (
{
name = o;
transform = "{1, 0, 0, 1, 0, 0}";
}
);
layerId = "24BDA9C5-7BA7-4A63-82ED-F7EF9C664871";
name = Bold;
paths = (
{
closed = 1;
nodes = (
"15 20 LINE",
"80 -40 LINE",
"523 460 LINE",
"458 520 LINE"
);
}
);
width = 538;
}
);
leftKerningGroup = omarks;
rightKerningGroup = omarks;
unicode = 00F8;
},
{
glyphname = oe;
lastChange = "2013-02-10 21:02:08 +0000";
layers = (
{
anchors = (
{
name = top;
position = "{495, 478}";
}
);
layerId = "FE64E73E-EA44-4B20-B2ED-18E4C3E872F4";
name = Regular;
paths = (
{
closed = 1;
nodes = (
"124 488 OFFCURVE",
"38 388 OFFCURVE",
"38 239 CURVE SMOOTH",
"38 90 OFFCURVE",
"124 -10 OFFCURVE",
"260 -10 CURVE SMOOTH",
"388 -10 OFFCURVE",
"462 90 OFFCURVE",
"462 239 CURVE SMOOTH",
"462 388 OFFCURVE",
"388 488 OFFCURVE",
"260 488 CURVE SMOOTH"
);
},
{
closed = 1;
nodes = (
"347 422 OFFCURVE",
"392 335 OFFCURVE",
"392 232 CURVE SMOOTH",
"392 129 OFFCURVE",
"347 56 OFFCURVE",
"260 56 CURVE SMOOTH",
"173 56 OFFCURVE",
"128 136 OFFCURVE",
"128 239 CURVE SMOOTH",
"128 342 OFFCURVE",
"173 422 OFFCURVE",
"260 422 CURVE SMOOTH"
);
},
{
closed = 1;
nodes = (
"485 488 OFFCURVE",
"402 392 OFFCURVE",
"402 232 CURVE SMOOTH",
"402 76 OFFCURVE",
"485 -10 OFFCURVE",
"609 -10 CURVE SMOOTH",
"665 -10 OFFCURVE",
"718 3 OFFCURVE",
"754 23 CURVE",
"750 91 LINE",
"716 70 OFFCURVE",
"671 56 OFFCURVE",
"629 56 CURVE SMOOTH",
"533 56 OFFCURVE",
"483 103 OFFCURVE",
"478 211 CURVE",
"777 211 LINE",
"780 227 OFFCURVE",
"781 237 OFFCURVE",
"781 252 CURVE SMOOTH",
"781 382 OFFCURVE",
"730 488 OFFCURVE",
"606 488 CURVE SMOOTH"
);
},
{
closed = 1;
nodes = (
"670 418 OFFCURVE",
"698 356 OFFCURVE",
"698 278 CURVE",
"480 278 LINE",
"487 362 OFFCURVE",
"531 418 OFFCURVE",
"597 418 CURVE SMOOTH"
);
}
);
width = 824;
},
{
anchors = (
{
name = top;
position = "{473, 478}";
}
);
layerId = "6D2C0C40-443C-46D1-B6D4-3F78476E95FC";
name = Light;
paths = (
{
closed = 1;
nodes = (
"122 484 OFFCURVE",
"50 376 OFFCURVE",
"50 237 CURVE SMOOTH",
"50 99 OFFCURVE",
"122 -10 OFFCURVE",
"247 -10 CURVE SMOOTH",
"372 -10 OFFCURVE",
"440 99 OFFCURVE",
"440 237 CURVE SMOOTH",
"440 376 OFFCURVE",
"372 484 OFFCURVE",
"247 484 CURVE SMOOTH"
);
},
{
closed = 1;
nodes = (
"336 453 OFFCURVE",
"408 377 OFFCURVE",
"408 237 CURVE SMOOTH",
"408 97 OFFCURVE",
"337 21 OFFCURVE",
"247 21 CURVE SMOOTH",
"158 21 OFFCURVE",
"86 97 OFFCURVE",
"86 237 CURVE SMOOTH",
"86 377 OFFCURVE",
"158 453 OFFCURVE",
"247 453 CURVE SMOOTH"
);
},
{
closed = 1;
nodes = (
"491 484 OFFCURVE",
"411 383 OFFCURVE",
"411 237 CURVE SMOOTH",
"411 83 OFFCURVE",
"484 -10 OFFCURVE",
"592 -10 CURVE SMOOTH",
"649 -10 OFFCURVE",
"696 1 OFFCURVE",
"730 22 CURVE",
"728 54 LINE",
"690 32 OFFCURVE",
"647 21 OFFCURVE",
"606 21 CURVE SMOOTH",
"503 21 OFFCURVE",
"444 93 OFFCURVE",
"444 230 CURVE",
"755 230 LINE",
"757 242 OFFCURVE",
"758 258 OFFCURVE",
"758 270 CURVE SMOOTH",
"758 377 OFFCURVE",
"710 484 OFFCURVE",
"593 484 CURVE SMOOTH"
);
},
{
closed = 1;
nodes = (
"671 452 OFFCURVE",
"724 390 OFFCURVE",
"724 260 CURVE",
"445 260 LINE",
"452 378 OFFCURVE",
"516 452 OFFCURVE",
"592 452 CURVE SMOOTH"
);
}
);
width = 811;
},
{
anchors = (
{
name = top;
position = "{519, 478}";
}
);
layerId = "24BDA9C5-7BA7-4A63-82ED-F7EF9C664871";
name = Bold;
paths = (
{
closed = 1;
nodes = (
"137 492 OFFCURVE",
"30 403 OFFCURVE",
"30 241 CURVE SMOOTH",
"30 80 OFFCURVE",
"137 -10 OFFCURVE",
"271 -10 CURVE SMOOTH",
"405 -10 OFFCURVE",
"488 90 OFFCURVE",
"488 241 CURVE SMOOTH",
"488 393 OFFCURVE",
"405 492 OFFCURVE",
"271 492 CURVE SMOOTH"
);
},
{
closed = 1;
nodes = (
"332 390 OFFCURVE",
"373 340 OFFCURVE",
"373 241 CURVE SMOOTH",
"373 143 OFFCURVE",
"332 92 OFFCURVE",
"271 92 CURVE SMOOTH",
"210 92 OFFCURVE",
"169 143 OFFCURVE",
"169 241 CURVE SMOOTH",
"169 340 OFFCURVE",
"210 390 OFFCURVE",
"271 390 CURVE SMOOTH"
);
},
{
closed = 1;
nodes = (
"470 492 OFFCURVE",
"397 381 OFFCURVE",
"397 241 CURVE SMOOTH",
"397 90 OFFCURVE",
"469 -10 OFFCURVE",
"601 -10 CURVE SMOOTH",
"675 -10 OFFCURVE",
"729 3 OFFCURVE",
"767 24 CURVE",
"758 126 LINE",
"723 107 OFFCURVE",
"679 96 OFFCURVE",
"627 96 CURVE SMOOTH",
"554 96 OFFCURVE",
"509 130 OFFCURVE",
"500 194 CURVE",
"792 194 LINE",
"795 210 OFFCURVE",
"797 232 OFFCURVE",
"797 249 CURVE SMOOTH",
"797 381 OFFCURVE",
"737 492 OFFCURVE",
"599 492 CURVE SMOOTH"
);
},
{
closed = 1;
nodes = (
"651 392 OFFCURVE",
"677 338 OFFCURVE",
"677 287 CURVE",
"501 287 LINE",
"507 353 OFFCURVE",
"545 392 OFFCURVE",
"593 392 CURVE SMOOTH"
);
}
);
width = 821;
}
);
leftMetricsKey = o;
rightMetricsKey = e;
unicode = 0153;
},
{
glyphname = p;
lastChange = "2012-11-27 07:05:40 +0000";
layers = (
{
components = (
{
name = Lowercase_round;
transform = "{1, 0, 0, 1, 0, 0}";
}
);
layerId = "FE64E73E-EA44-4B20-B2ED-18E4C3E872F4";
name = Regular;
paths = (
{
closed = 1;
nodes = (
"70 478 LINE",
"70 -205 LINE",
"152 -205 LINE",
"152 358 LINE",
"144 478 LINE"
);
}
);
width = 543;
},
{
components = (
{
name = Lowercase_round;
transform = "{1, 0, 0, 1, -34, 0}";
}
);
layerId = "6D2C0C40-443C-46D1-B6D4-3F78476E95FC";
name = Light;
paths = (
{
closed = 1;
nodes = (
"84 474 LINE",
"84 -205 LINE",
"118 -205 LINE",
"118 339 LINE",
"113 474 LINE"
);
}
);
width = 523;
},
{
components = (
{
name = Lowercase_round;
transform = "{1, 0, 0, 1, -10, 0}";
}
);
layerId = "24BDA9C5-7BA7-4A63-82ED-F7EF9C664871";
name = Bold;
paths = (
{
closed = 1;
nodes = (
"56 478 LINE",
"56 -205 LINE",
"188 -205 LINE",
"188 311 LINE",
"167 478 LINE"
);
}
);
width = 570;
}
);
unicode = 0070;
},
{
glyphname = q;
lastChange = "2012-11-27 07:05:40 +0000";
layers = (
{
components = (
{
name = Lowercase_round;
transform = "{-1, 0, -0, -1, 543, 478}";
}
);
layerId = "FE64E73E-EA44-4B20-B2ED-18E4C3E872F4";
name = Regular;
paths = (
{
closed = 1;
nodes = (
"399 478 LINE",
"391 358 LINE",
"391 -205 LINE",
"473 -205 LINE",
"473 478 LINE"
);
}
);
width = 543;
},
{
components = (
{
name = Lowercase_round;
transform = "{-1, -0, 0, -1, 557, 474}";
}
);
layerId = "6D2C0C40-443C-46D1-B6D4-3F78476E95FC";
name = Light;
paths = (
{
closed = 1;
nodes = (
"410 474 LINE",
"405 339 LINE",
"405 -205 LINE",
"439 -205 LINE",
"439 474 LINE"
);
}
);
width = 523;
},
{
components = (
{
name = Lowercase_round;
transform = "{-1, -0, 0, -1, 580, 482}";
}
);
layerId = "24BDA9C5-7BA7-4A63-82ED-F7EF9C664871";
name = Bold;
paths = (
{
closed = 1;
nodes = (
"403 478 LINE",
"382 311 LINE",
"382 -205 LINE",
"514 -205 LINE",
"514 478 LINE"
);
}
);
width = 570;
}
);
unicode = 0071;
},
{
glyphname = r;
lastChange = "2012-11-27 07:05:40 +0000";
layers = (
{
anchors = (
{
name = bottom;
position = "{300, 0}";
},
{
name = top;
position = "{300, 478}";
}
);
layerId = "FE64E73E-EA44-4B20-B2ED-18E4C3E872F4";
name = Regular;
paths = (
{
closed = 1;
nodes = (
"300 481 LINE",
"286 484 OFFCURVE",
"270 486 OFFCURVE",
"252 486 CURVE SMOOTH",
"187 486 OFFCURVE",
"139 427 OFFCURVE",
"143 358 CURVE",
"152 268 LINE",
"152 361 OFFCURVE",
"190 413 OFFCURVE",
"249 413 CURVE SMOOTH",
"267 413 OFFCURVE",
"281 411 OFFCURVE",
"296 407 CURVE"
);
},
{
closed = 1;
nodes = (
"152 358 LINE",
"144 478 LINE",
"70 478 LINE",
"70 0 LINE",
"152 0 LINE"
);
}
);
width = 319;
},
{
anchors = (
{
name = bottom;
position = "{304, 0}";
},
{
name = top;
position = "{304, 478}";
}
);
layerId = "6D2C0C40-443C-46D1-B6D4-3F78476E95FC";
name = Light;
paths = (
{
closed = 1;
nodes = (
"249 480 LINE",
"244 483 OFFCURVE",
"232 484 OFFCURVE",
"224 484 CURVE SMOOTH",
"168 484 OFFCURVE",
"118 430 OFFCURVE",
"115 359 CURVE",
"118 274 LINE",
"118 363 OFFCURVE",
"153 452 OFFCURVE",
"218 452 CURVE SMOOTH",
"228 452 OFFCURVE",
"238 451 OFFCURVE",
"245 448 CURVE"
);
},
{
closed = 1;
nodes = (
"118 363 LINE",
"113 474 LINE",
"84 474 LINE",
"84 0 LINE",
"118 0 LINE"
);
}
);
width = 269;
},
{
anchors = (
{
name = bottom;
position = "{173, 0}";
},
{
name = top;
position = "{173, 478}";
}
);
layerId = "24BDA9C5-7BA7-4A63-82ED-F7EF9C664871";
name = Bold;
paths = (
{
closed = 1;
nodes = (
"341 484 LINE",
"330 489 OFFCURVE",
"310 492 OFFCURVE",
"293 492 CURVE SMOOTH",
"238 492 OFFCURVE",
"174 441 OFFCURVE",
"171 367 CURVE",
"188 236 LINE",
"188 317 OFFCURVE",
"219 376 OFFCURVE",
"281 376 CURVE SMOOTH",
"305 376 OFFCURVE",
"320 374 OFFCURVE",
"336 367 CURVE"
);
},
{
closed = 1;
nodes = (
"188 311 LINE",
"167 482 LINE",
"56 482 LINE",
"56 0 LINE",
"188 0 LINE"
);
}
);
width = 357;
}
);
unicode = 0072;
},
{
glyphname = s;
lastChange = "2013-02-10 20:29:42 +0000";
layers = (
{
anchors = (
{
name = bottom;
position = "{179, 0}";
},
{
name = top;
position = "{295, 478}";
}
);
layerId = "FE64E73E-EA44-4B20-B2ED-18E4C3E872F4";
name = Regular;
paths = (
{
closed = 1;
nodes = (
"131 488 OFFCURVE",
"49 446 OFFCURVE",
"49 346 CURVE SMOOTH",
"49 270 OFFCURVE",
"94 235 OFFCURVE",
"176 204 CURVE SMOOTH",
"227 185 OFFCURVE",
"251 166 OFFCURVE",
"251 128 CURVE SMOOTH",
"251 84 OFFCURVE",
"206 58 OFFCURVE",
"150 58 CURVE SMOOTH",
"114 58 OFFCURVE",
"82 64 OFFCURVE",
"38 81 CURVE",
"33 12 LINE",
"71 -3 OFFCURVE",
"107 -10 OFFCURVE",
"149 -10 CURVE SMOOTH",
"251 -10 OFFCURVE",
"334 42 OFFCURVE",
"334 134 CURVE SMOOTH",
"334 206 OFFCURVE",
"294 246 OFFCURVE",
"203 275 CURVE SMOOTH",
"163 288 OFFCURVE",
"133 308 OFFCURVE",
"133 355 CURVE SMOOTH",
"133 393 OFFCURVE",
"167 420 OFFCURVE",
"213 420 CURVE SMOOTH",
"256 420 OFFCURVE",
"294 410 OFFCURVE",
"319 395 CURVE",
"324 465 LINE",
"299 478 OFFCURVE",
"255 488 OFFCURVE",
"217 488 CURVE SMOOTH"
);
}
);
width = 369;
},
{
anchors = (
{
name = bottom;
position = "{173, 0}";
},
{
name = top;
position = "{285, 478}";
}
);
layerId = "6D2C0C40-443C-46D1-B6D4-3F78476E95FC";
name = Light;
paths = (
{
closed = 1;
nodes = (
"119 484 OFFCURVE",
"56 434 OFFCURVE",
"56 352 CURVE SMOOTH",
"56 280 OFFCURVE",
"102 248 OFFCURVE",
"164 222 CURVE SMOOTH",
"234 193 OFFCURVE",
"266 168 OFFCURVE",
"266 117 CURVE SMOOTH",
"266 62 OFFCURVE",
"214 21 OFFCURVE",
"149 21 CURVE SMOOTH",
"114 21 OFFCURVE",
"77 30 OFFCURVE",
"41 50 CURVE",
"38 16 LINE",
"64 0 OFFCURVE",
"106 -10 OFFCURVE",
"148 -10 CURVE SMOOTH",
"233 -10 OFFCURVE",
"302 42 OFFCURVE",
"302 124 CURVE SMOOTH",
"302 183 OFFCURVE",
"261 219 OFFCURVE",
"191 248 CURVE SMOOTH",
"126 275 OFFCURVE",
"91 297 OFFCURVE",
"91 357 CURVE SMOOTH",
"91 412 OFFCURVE",
"138 453 OFFCURVE",
"193 453 CURVE SMOOTH",
"229 453 OFFCURVE",
"263 442 OFFCURVE",
"289 424 CURVE",
"292 459 LINE",
"270 474 OFFCURVE",
"235 484 OFFCURVE",
"197 484 CURVE SMOOTH"
);
}
);
width = 351;
},
{
anchors = (
{
name = bottom;
position = "{196, 0}";
},
{
name = top;
position = "{294, 478}";
}
);
layerId = "24BDA9C5-7BA7-4A63-82ED-F7EF9C664871";
name = Bold;
paths = (
{
closed = 1;
nodes = (
"135 491 OFFCURVE",
"45 437 OFFCURVE",
"45 332 CURVE SMOOTH",
"45 257 OFFCURVE",
"82 213 OFFCURVE",
"167 191 CURVE SMOOTH",
"208 180 OFFCURVE",
"230 166 OFFCURVE",
"230 140 CURVE SMOOTH",
"230 113 OFFCURVE",
"204 96 OFFCURVE",
"161 96 CURVE SMOOTH",
"125 96 OFFCURVE",
"87 102 OFFCURVE",
"45 121 CURVE",
"35 16 LINE",
"71 -1 OFFCURVE",
"119 -10 OFFCURVE",
"161 -10 CURVE SMOOTH",
"273 -10 OFFCURVE",
"363 50 OFFCURVE",
"363 148 CURVE SMOOTH",
"363 220 OFFCURVE",
"327 266 OFFCURVE",
"233 288 CURVE SMOOTH",
"200 296 OFFCURVE",
"179 312 OFFCURVE",
"179 339 CURVE SMOOTH",
"179 369 OFFCURVE",
"208 386 OFFCURVE",
"248 386 CURVE SMOOTH",
"284 386 OFFCURVE",
"316 378 OFFCURVE",
"346 362 CURVE",
"354 470 LINE",
"326 482 OFFCURVE",
"288 491 OFFCURVE",
"233 491 CURVE SMOOTH"
);
}
);
width = 391;
}
);
leftKerningGroup = s;
rightKerningGroup = s;
unicode = 0073;
},
{
glyphname = germandbls;
lastChange = "2012-11-27 07:05:40 +0000";
layers = (
{
layerId = "FE64E73E-EA44-4B20-B2ED-18E4C3E872F4";
name = Regular;
paths = (
{
closed = 1;
nodes = (
"247 -4 OFFCURVE",
"279 -8 OFFCURVE",
"304 -8 CURVE SMOOTH",
"433 -8 OFFCURVE",
"525 72 OFFCURVE",
"525 189 CURVE SMOOTH",
"525 278 OFFCURVE",
"468 359 OFFCURVE",
"361 379 CURVE",
"443 400 OFFCURVE",
"512 465 OFFCURVE",
"512 558 CURVE SMOOTH",
"512 669 OFFCURVE",
"427 745 OFFCURVE",
"300 745 CURVE SMOOTH",
"186 745 OFFCURVE",
"98 665 OFFCURVE",
"98 546 CURVE SMOOTH",
"98 474 LINE",
"39 474 LINE",
"39 410 LINE",
"98 410 LINE",
"98 0 LINE",
"180 0 LINE",
"180 559 LINE SMOOTH",
"180 629 OFFCURVE",
"234 679 OFFCURVE",
"295 679 CURVE SMOOTH",
"376 679 OFFCURVE",
"422 631 OFFCURVE",
"422 547 CURVE SMOOTH",
"422 447 OFFCURVE",
"336 394 OFFCURVE",
"263 394 CURVE",
"263 327 LINE",
"364 326 OFFCURVE",
"435 274 OFFCURVE",
"435 183 CURVE SMOOTH",
"435 104 OFFCURVE",
"374 58 OFFCURVE",
"309 58 CURVE SMOOTH",
"287 58 OFFCURVE",
"256 62 OFFCURVE",
"227 71 CURVE",
"222 4 LINE"
);
}
);
width = 569;
},
{
layerId = "24BDA9C5-7BA7-4A63-82ED-F7EF9C664871";
name = Bold;
paths = (
{
closed = 1;
nodes = (
"269 -4 OFFCURVE",
"301 -8 OFFCURVE",
"326 -8 CURVE SMOOTH",
"455 -8 OFFCURVE",
"566 59 OFFCURVE",
"566 206 CURVE SMOOTH",
"566 295 OFFCURVE",
"515 372 OFFCURVE",
"411 393 CURVE",
"482 405 OFFCURVE",
"545 465 OFFCURVE",
"545 557 CURVE SMOOTH",
"545 671 OFFCURVE",
"453 745 OFFCURVE",
"310 745 CURVE SMOOTH",
"197 745 OFFCURVE",
"74 667 OFFCURVE",
"74 485 CURVE SMOOTH",
"74 478 LINE",
"15 478 LINE",
"15 374 LINE",
"74 374 LINE",
"74 0 LINE",
"206 0 LINE",
"206 494 LINE SMOOTH",
"206 581 OFFCURVE",
"246 635 OFFCURVE",
"307 635 CURVE SMOOTH",
"371 635 OFFCURVE",
"405 596 OFFCURVE",
"405 533 CURVE SMOOTH",
"405 463 OFFCURVE",
"357 408 OFFCURVE",
"284 408 CURVE",
"284 294 LINE",
"382 293 OFFCURVE",
"424 263 OFFCURVE",
"424 193 CURVE SMOOTH",
"424 134 OFFCURVE",
"376 102 OFFCURVE",
"331 102 CURVE SMOOTH",
"309 102 OFFCURVE",
"278 106 OFFCURVE",
"249 115 CURVE",
"244 4 LINE"
);
}
);
width = 600;
},
{
layerId = "6D2C0C40-443C-46D1-B6D4-3F78476E95FC";
name = Light;
paths = (
{
closed = 1;
nodes = (
"202 -3 OFFCURVE",
"240 -8 OFFCURVE",
"276 -8 CURVE SMOOTH",
"394 -8 OFFCURVE",
"478 72 OFFCURVE",
"478 185 CURVE SMOOTH",
"478 283 OFFCURVE",
"413 350 OFFCURVE",
"302 373 CURVE",
"398 395 OFFCURVE",
"470 464 OFFCURVE",
"470 564 CURVE SMOOTH",
"470 660 OFFCURVE",
"403 745 OFFCURVE",
"282 745 CURVE SMOOTH",
"185 745 OFFCURVE",
"96 671 OFFCURVE",
"96 541 CURVE SMOOTH",
"96 470 LINE",
"37 470 LINE",
"37 441 LINE",
"96 441 LINE",
"96 0 LINE",
"130 0 LINE",
"130 551 LINE SMOOTH",
"130 645 OFFCURVE",
"201 715 OFFCURVE",
"283 715 CURVE SMOOTH",
"380 715 OFFCURVE",
"434 646 OFFCURVE",
"434 557 CURVE SMOOTH",
"434 452 OFFCURVE",
"337 380 OFFCURVE",
"213 380 CURVE",
"213 351 LINE",
"363 351 OFFCURVE",
"442 284 OFFCURVE",
"442 178 CURVE SMOOTH",
"442 94 OFFCURVE",
"374 23 OFFCURVE",
"281 23 CURVE SMOOTH",
"250 23 OFFCURVE",
"209 29 OFFCURVE",
"177 41 CURVE",
"174 8 LINE"
);
}
);
width = 535;
}
);
unicode = 00DF;
},
{
glyphname = t;
lastChange = "2012-11-27 07:05:40 +0000";
layers = (
{
anchors = (
{
name = bottom;
position = "{291, 0}";
},
{
name = center;
position = "{291, 239}";
}
);
layerId = "FE64E73E-EA44-4B20-B2ED-18E4C3E872F4";
name = Regular;
paths = (
{
closed = 1;
nodes = (
"100 600 LINE",
"100 474 LINE",
"25 474 LINE",
"25 410 LINE",
"100 410 LINE",
"100 132 LINE SMOOTH",
"100 28 OFFCURVE",
"156 -10 OFFCURVE",
"236 -10 CURVE SMOOTH",
"264 -10 OFFCURVE",
"293 -4 OFFCURVE",
"311 5 CURVE",
"307 66 LINE",
"290 59 OFFCURVE",
"272 57 OFFCURVE",
"254 57 CURVE SMOOTH",
"211 57 OFFCURVE",
"182 82 OFFCURVE",
"182 138 CURVE SMOOTH",
"182 410 LINE",
"311 410 LINE",
"311 474 LINE",
"182 474 LINE",
"182 600 LINE"
);
}
);
width = 335;
},
{
anchors = (
{
name = bottom;
position = "{297, 0}";
},
{
name = center;
position = "{297, 239}";
}
);
layerId = "6D2C0C40-443C-46D1-B6D4-3F78476E95FC";
name = Light;
paths = (
{
closed = 1;
nodes = (
"118 600 LINE",
"118 470 LINE",
"42 470 LINE",
"42 441 LINE",
"118 441 LINE",
"118 103 LINE SMOOTH",
"118 22 OFFCURVE",
"163 -10 OFFCURVE",
"217 -10 CURVE SMOOTH",
"242 -10 OFFCURVE",
"264 -5 OFFCURVE",
"277 3 CURVE",
"275 32 LINE",
"261 24 OFFCURVE",
"246 20 OFFCURVE",
"223 20 CURVE SMOOTH",
"183 20 OFFCURVE",
"152 46 OFFCURVE",
"152 108 CURVE SMOOTH",
"152 441 LINE",
"271 441 LINE",
"271 470 LINE",
"152 470 LINE",
"152 600 LINE"
);
}
);
width = 306;
},
{
anchors = (
{
name = bottom;
position = "{297, 0}";
},
{
name = center;
position = "{297, 239}";
}
);
layerId = "24BDA9C5-7BA7-4A63-82ED-F7EF9C664871";
name = Bold;
paths = (
{
closed = 1;
nodes = (
"83 600 LINE",
"83 478 LINE",
"12 478 LINE",
"12 374 LINE",
"83 374 LINE",
"83 153 LINE SMOOTH",
"83 44 OFFCURVE",
"140 -10 OFFCURVE",
"249 -10 CURVE SMOOTH",
"284 -10 OFFCURVE",
"324 -3 OFFCURVE",
"352 9 CURVE",
"347 109 LINE",
"329 102 OFFCURVE",
"306 98 OFFCURVE",
"285 98 CURVE SMOOTH",
"239 98 OFFCURVE",
"215 122 OFFCURVE",
"215 180 CURVE SMOOTH",
"215 374 LINE",
"349 374 LINE",
"349 478 LINE",
"215 478 LINE",
"215 600 LINE"
);
}
);
width = 377;
}
);
unicode = 0074;
},
{
glyphname = u;
lastChange = "2012-11-27 07:05:40 +0000";
layers = (
{
anchors = (
{
name = ogonek;
position = "{463, 10}";
},
{
name = top;
position = "{260, 478}";
}
);
layerId = "FE64E73E-EA44-4B20-B2ED-18E4C3E872F4";
name = Regular;
paths = (
{
closed = 1;
nodes = (
"66 478 LINE",
"66 159 LINE SMOOTH",
"66 61 OFFCURVE",
"122 -10 OFFCURVE",
"225 -10 CURVE SMOOTH",
"291 -10 OFFCURVE",
"363 29 OFFCURVE",
"382 120 CURVE",
"371 211 LINE",
"371 128 OFFCURVE",
"318 62 OFFCURVE",
"254 62 CURVE SMOOTH",
"179 62 OFFCURVE",
"148 115 OFFCURVE",
"148 183 CURVE SMOOTH",
"148 478 LINE"
);
},
{
closed = 1;
nodes = (
"371 478 LINE",
"371 120 LINE",
"379 0 LINE",
"453 0 LINE",
"453 478 LINE"
);
}
);
width = 523;
},
{
anchors = (
{
name = ogonek;
position = "{540, 10}";
},
{
name = top;
position = "{250, 478}";
}
);
layerId = "6D2C0C40-443C-46D1-B6D4-3F78476E95FC";
name = Light;
paths = (
{
closed = 1;
nodes = (
"80 474 LINE",
"80 154 LINE SMOOTH",
"80 62 OFFCURVE",
"133 -10 OFFCURVE",
"234 -10 CURVE SMOOTH",
"306 -10 OFFCURVE",
"368 44 OFFCURVE",
"384 111 CURVE",
"381 192 LINE",
"381 115 OFFCURVE",
"322 22 OFFCURVE",
"238 22 CURVE SMOOTH",
"159 22 OFFCURVE",
"114 78 OFFCURVE",
"114 168 CURVE SMOOTH",
"114 474 LINE"
);
},
{
closed = 1;
nodes = (
"381 474 LINE",
"381 111 LINE",
"386 0 LINE",
"415 0 LINE",
"415 474 LINE"
);
}
);
width = 499;
},
{
anchors = (
{
name = ogonek;
position = "{532, 10}";
},
{
name = top;
position = "{269, 478}";
}
);
layerId = "24BDA9C5-7BA7-4A63-82ED-F7EF9C664871";
name = Bold;
paths = (
{
closed = 1;
nodes = (
"52 482 LINE",
"52 160 LINE SMOOTH",
"52 62 OFFCURVE",
"116 -10 OFFCURVE",
"224 -10 CURVE SMOOTH",
"295 -10 OFFCURVE",
"355 29 OFFCURVE",
"370 113 CURVE",
"355 234 LINE",
"355 158 OFFCURVE",
"323 108 OFFCURVE",
"268 108 CURVE SMOOTH",
"212 108 OFFCURVE",
"184 151 OFFCURVE",
"184 213 CURVE SMOOTH",
"184 482 LINE"
);
},
{
closed = 1;
nodes = (
"355 482 LINE",
"355 171 LINE",
"376 0 LINE",
"487 0 LINE",
"487 482 LINE"
);
}
);
width = 543;
}
);
unicode = 0075;
},
{
glyphname = v;
lastChange = "2012-11-27 07:05:40 +0000";
layers = (
{
layerId = "FE64E73E-EA44-4B20-B2ED-18E4C3E872F4";
name = Regular;
paths = (
{
closed = 1;
nodes = (
"363 478 LINE",
"232 78 LINE",
"102 478 LINE",
"8 478 LINE",
"184 0 LINE",
"275 0 LINE",
"452 478 LINE"
);
}
);
width = 455;
},
{
layerId = "6D2C0C40-443C-46D1-B6D4-3F78476E95FC";
name = Light;
paths = (
{
closed = 1;
nodes = (
"384 474 LINE",
"224 37 LINE",
"68 474 LINE",
"28 474 LINE",
"205 0 LINE",
"242 0 LINE",
"421 474 LINE"
);
}
);
width = 446;
},
{
layerId = "24BDA9C5-7BA7-4A63-82ED-F7EF9C664871";
name = Bold;
paths = (
{
closed = 1;
nodes = (
"357 482 LINE",
"256 114 LINE",
"158 482 LINE",
"3 482 LINE",
"178 0 LINE",
"328 0 LINE",
"507 482 LINE"
);
}
);
width = 502;
}
);
unicode = 0076;
},
{
glyphname = w;
lastChange = "2012-11-27 07:05:40 +0000";
layers = (
{
anchors = (
{
name = top;
position = "{330, 478}";
}
);
layerId = "FE64E73E-EA44-4B20-B2ED-18E4C3E872F4";
name = Regular;
paths = (
{
closed = 1;
nodes = (
"566 478 LINE",
"508 258 LINE SMOOTH",
"492 198 OFFCURVE",
"478 138 OFFCURVE",
"469 70 CURVE",
"460 138 OFFCURVE",
"447 198 OFFCURVE",
"431 258 CURVE SMOOTH",
"375 474 LINE",
"291 474 LINE",
"234 258 LINE SMOOTH",
"218 198 OFFCURVE",
"204 138 OFFCURVE",
"195 70 CURVE",
"186 138 OFFCURVE",
"174 198 OFFCURVE",
"158 258 CURVE SMOOTH",
"100 478 LINE",
"8 478 LINE",
"148 0 LINE",
"241 0 LINE",
"288 178 LINE SMOOTH",
"304 238 OFFCURVE",
"319 298 OFFCURVE",
"330 375 CURVE",
"343 298 OFFCURVE",
"358 238 OFFCURVE",
"374 178 CURVE SMOOTH",
"420 0 LINE",
"512 0 LINE",
"652 478 LINE"
);
}
);
width = 655;
},
{
anchors = (
{
name = top;
position = "{328, 478}";
}
);
layerId = "6D2C0C40-443C-46D1-B6D4-3F78476E95FC";
name = Light;
paths = (
{
closed = 1;
nodes = (
"588 474 LINE",
"465 30 LINE",
"347 470 LINE",
"310 470 LINE",
"190 30 LINE",
"67 474 LINE",
"30 474 LINE",
"168 0 LINE",
"211 0 LINE",
"327 423 LINE",
"442 0 LINE",
"486 0 LINE",
"625 474 LINE"
);
}
);
width = 650;
},
{
anchors = (
{
name = top;
position = "{364, 478}";
}
);
layerId = "24BDA9C5-7BA7-4A63-82ED-F7EF9C664871";
name = Bold;
paths = (
{
closed = 1;
nodes = (
"580 482 LINE",
"532 238 LINE SMOOTH",
"524 198 OFFCURVE",
"517 153 OFFCURVE",
"511 93 CURVE",
"503 153 OFFCURVE",
"495 198 OFFCURVE",
"487 238 CURVE SMOOTH",
"436 478 LINE",
"293 478 LINE",
"240 238 LINE SMOOTH",
"231 198 OFFCURVE",
"224 154 OFFCURVE",
"217 93 CURVE",
"210 154 OFFCURVE",
"203 198 OFFCURVE",
"195 238 CURVE SMOOTH",
"147 482 LINE",
"3 482 LINE",
"140 0 LINE",
"290 0 LINE",
"337 198 LINE SMOOTH",
"347 240 OFFCURVE",
"356 298 OFFCURVE",
"362 398 CURVE",
"368 298 OFFCURVE",
"377 240 OFFCURVE",
"387 198 CURVE SMOOTH",
"433 0 LINE",
"581 0 LINE",
"717 482 LINE"
);
}
);
width = 712;
}
);
unicode = 0077;
},
{
glyphname = x;
lastChange = "2012-11-27 07:05:40 +0000";
layers = (
{
layerId = "FE64E73E-EA44-4B20-B2ED-18E4C3E872F4";
name = Regular;
paths = (
{
closed = 1;
nodes = (
"319 478 LINE",
"208 295 LINE",
"99 478 LINE",
"5 478 LINE",
"156 238 LINE",
"1 0 LINE",
"90 0 LINE",
"199 180 LINE",
"309 0 LINE",
"404 0 LINE",
"250 238 LINE",
"408 478 LINE"
);
}
);
width = 426;
},
{
layerId = "6D2C0C40-443C-46D1-B6D4-3F78476E95FC";
name = Light;
paths = (
{
closed = 1;
nodes = (
"331 474 LINE",
"194 261 LINE",
"64 474 LINE",
"25 474 LINE",
"172 235 LINE",
"17 0 LINE",
"56 0 LINE",
"192 211 LINE",
"321 0 LINE",
"361 0 LINE",
"213 236 LINE",
"370 474 LINE"
);
}
);
width = 394;
},
{
layerId = "24BDA9C5-7BA7-4A63-82ED-F7EF9C664871";
name = Bold;
paths = (
{
closed = 1;
nodes = (
"316 482 LINE",
"230 326 LINE",
"150 482 LINE",
"-3 482 LINE",
"149 237 LINE",
"-6 0 LINE",
"141 0 LINE",
"223 149 LINE",
"307 0 LINE",
"461 0 LINE",
"301 241 LINE",
"463 482 LINE"
);
}
);
width = 454;
}
);
unicode = 0078;
},
{
glyphname = y;
lastChange = "2013-02-10 19:57:29 +0000";
layers = (
{
anchors = (
{
name = top;
position = "{230, 478}";
}
);
layerId = "FE64E73E-EA44-4B20-B2ED-18E4C3E872F4";
name = Regular;
paths = (
{
closed = 1;
nodes = (
"363 478 LINE",
"232 78 LINE",
"102 478 LINE",
"8 478 LINE",
"187 -8 LINE",
"163 -76 OFFCURVE",
"109 -119 OFFCURVE",
"36 -145 CURVE",
"65 -215 LINE",
"160 -188 OFFCURVE",
"235 -109 OFFCURVE",
"275 0 CURVE SMOOTH",
"452 478 LINE"
);
},
{
closed = 0;
nodes = (
"363 478 LINE"
);
}
);
width = 455;
},
{
anchors = (
{
name = top;
position = "{211, 478}";
}
);
layerId = "6D2C0C40-443C-46D1-B6D4-3F78476E95FC";
name = Light;
paths = (
{
closed = 1;
nodes = (
"370 474 LINE",
"211 35 LINE",
"56 474 LINE",
"15 474 LINE",
"191 1 LINE",
"171 -75 OFFCURVE",
"112 -155 OFFCURVE",
"34 -186 CURVE",
"48 -215 LINE",
"133 -179 OFFCURVE",
"183 -114 OFFCURVE",
"229 0 CURVE SMOOTH",
"408 474 LINE"
);
}
);
width = 418;
},
{
anchors = (
{
name = top;
position = "{255, 479}";
}
);
layerId = "24BDA9C5-7BA7-4A63-82ED-F7EF9C664871";
name = Bold;
paths = (
{
closed = 1;
nodes = (
"357 482 LINE",
"256 114 LINE",
"158 482 LINE",
"3 482 LINE",
"178 -3 LINE",
"153 -52 OFFCURVE",
"100 -88 OFFCURVE",
"29 -105 CURVE",
"65 -215 LINE",
"188 -194 OFFCURVE",
"282 -122 OFFCURVE",
"339 29 CURVE SMOOTH",
"507 482 LINE"
);
}
);
width = 502;
}
);
unicode = 0079;
},
{
glyphname = z;
lastChange = "2012-11-27 07:05:40 +0000";
layers = (
{
anchors = (
{
name = top;
position = "{290, 478}";
}
);
layerId = "FE64E73E-EA44-4B20-B2ED-18E4C3E872F4";
name = Regular;
paths = (
{
closed = 1;
nodes = (
"42 474 LINE",
"42 410 LINE",
"273 410 LINE",
"26 61 LINE",
"26 0 LINE",
"370 0 LINE",
"370 64 LINE",
"119 64 LINE",
"369 410 LINE",
"369 474 LINE"
);
}
);
width = 396;
},
{
anchors = (
{
name = top;
position = "{287, 478}";
}
);
layerId = "6D2C0C40-443C-46D1-B6D4-3F78476E95FC";
name = Light;
paths = (
{
closed = 1;
nodes = (
"53 470 LINE",
"53 441 LINE",
"298 441 LINE",
"27 27 LINE",
"27 0 LINE",
"337 0 LINE",
"337 29 LINE",
"66 29 LINE",
"337 442 LINE",
"337 470 LINE"
);
}
);
width = 379;
},
{
anchors = (
{
name = top;
position = "{300, 478}";
}
);
layerId = "24BDA9C5-7BA7-4A63-82ED-F7EF9C664871";
name = Bold;
paths = (
{
closed = 1;
nodes = (
"41 478 LINE",
"41 374 LINE",
"237 374 LINE",
"31 97 LINE",
"31 0 LINE",
"395 0 LINE",
"395 104 LINE",
"187 104 LINE",
"396 378 LINE",
"396 478 LINE"
);
}
);
width = 427;
}
);
unicode = 007A;
},
{
glyphname = fi;
lastChange = "2013-02-10 21:02:08 +0000";
layers = (
{
layerId = "FE64E73E-EA44-4B20-B2ED-18E4C3E872F4";
name = Regular;
paths = (
{
closed = 1;
nodes = (
"353 474 LINE",
"353 0 LINE",
"435 0 LINE",
"435 474 LINE"
);
},
{
closed = 1;
nodes = (
"175 410 LINE",
"369 410 LINE",
"369 474 LINE",
"175 474 LINE",
"175 499 LINE SMOOTH",
"175 603 OFFCURVE",
"219 677 OFFCURVE",
"312 677 CURVE SMOOTH",
"352 677 OFFCURVE",
"387 668 OFFCURVE",
"415 649 CURVE",
"423 719 LINE",
"403 733 OFFCURVE",
"362 745 OFFCURVE",
"320 745 CURVE SMOOTH",
"185 745 OFFCURVE",
"93 664 OFFCURVE",
"93 488 CURVE SMOOTH",
"93 474 LINE",
"26 474 LINE",
"26 410 LINE",
"93 410 LINE",
"93 0 LINE",
"175 0 LINE"
);
}
);
width = 505;
},
{
layerId = "6D2C0C40-443C-46D1-B6D4-3F78476E95FC";
name = Light;
paths = (
{
closed = 1;
nodes = (
"352 470 LINE",
"352 0 LINE",
"386 0 LINE",
"386 470 LINE"
);
},
{
closed = 1;
nodes = (
"138 442 LINE",
"369 442 LINE",
"369 470 LINE",
"138 470 LINE",
"138 516 LINE SMOOTH",
"138 658 OFFCURVE",
"230 714 OFFCURVE",
"306 714 CURVE SMOOTH",
"332 714 OFFCURVE",
"358 710 OFFCURVE",
"375 700 CURVE",
"378 730 LINE",
"362 741 OFFCURVE",
"333 745 OFFCURVE",
"308 745 CURVE SMOOTH",
"214 745 OFFCURVE",
"104 684 OFFCURVE",
"104 507 CURVE SMOOTH",
"104 470 LINE",
"37 470 LINE",
"37 442 LINE",
"104 442 LINE",
"104 0 LINE",
"138 0 LINE"
);
}
);
width = 470;
},
{
layerId = "24BDA9C5-7BA7-4A63-82ED-F7EF9C664871";
name = Bold;
paths = (
{
closed = 1;
nodes = (
"391 478 LINE",
"391 0 LINE",
"523 0 LINE",
"523 478 LINE"
);
},
{
closed = 1;
nodes = (
"212 374 LINE",
"403 374 LINE",
"403 478 LINE",
"209 478 LINE",
"209 496 LINE SMOOTH",
"209 570 OFFCURVE",
"249 635 OFFCURVE",
"350 635 CURVE SMOOTH",
"405 635 OFFCURVE",
"444 621 OFFCURVE",
"485 588 CURVE",
"503 699 LINE",
"466 730 OFFCURVE",
"413 745 OFFCURVE",
"349 745 CURVE SMOOTH",
"177 745 OFFCURVE",
"80 646 OFFCURVE",
"80 485 CURVE SMOOTH",
"80 478 LINE",
"13 478 LINE",
"13 374 LINE",
"80 374 LINE",
"80 0 LINE",
"212 0 LINE"
);
}
);
width = 579;
},
{
associatedMasterId = "FE64E73E-EA44-4B20-B2ED-18E4C3E872F4";
layerId = "5DAB4074-2411-452B-9DDF-76BDE0701090";
name = "new Layer";
width = 600;
}
);
leftMetricsKey = f;
unicode = FB01;
},
{
glyphname = fl;
lastChange = "2013-02-10 21:02:08 +0000";
layers = (
{
layerId = "FE64E73E-EA44-4B20-B2ED-18E4C3E872F4";
name = Regular;
paths = (
{
closed = 1;
nodes = (
"458 724 LINE",
"428 735 OFFCURVE",
"376 745 OFFCURVE",
"323 745 CURVE SMOOTH",
"189 745 OFFCURVE",
"93 657 OFFCURVE",
"93 509 CURVE SMOOTH",
"93 474 LINE",
"26 474 LINE",
"26 410 LINE",
"93 410 LINE",
"93 0 LINE",
"175 0 LINE",
"175 410 LINE",
"296 410 LINE",
"296 474 LINE",
"175 474 LINE",
"175 520 LINE SMOOTH",
"175 620 OFFCURVE",
"235 679 OFFCURVE",
"310 679 CURVE SMOOTH",
"333 679 OFFCURVE",
"359 676 OFFCURVE",
"376 671 CURVE",
"376 0 LINE",
"458 0 LINE"
);
}
);
width = 528;
},
{
layerId = "6D2C0C40-443C-46D1-B6D4-3F78476E95FC";
name = Light;
paths = (
{
closed = 1;
nodes = (
"386 734 LINE",
"366 741 OFFCURVE",
"337 745 OFFCURVE",
"312 745 CURVE SMOOTH",
"217 745 OFFCURVE",
"104 686 OFFCURVE",
"104 513 CURVE SMOOTH",
"104 470 LINE",
"37 470 LINE",
"37 442 LINE",
"104 442 LINE",
"104 0 LINE",
"138 0 LINE",
"138 442 LINE",
"259 442 LINE",
"259 470 LINE",
"138 470 LINE",
"138 524 LINE SMOOTH",
"138 662 OFFCURVE",
"230 714 OFFCURVE",
"307 714 CURVE SMOOTH",
"322.412 714 OFFCURVE",
"338.176 712.243 OFFCURVE",
"352 709.354 CURVE",
"352 0 LINE",
"386 0 LINE"
);
}
);
width = 470;
},
{
layerId = "24BDA9C5-7BA7-4A63-82ED-F7EF9C664871";
name = Bold;
paths = (
{
closed = 1;
nodes = (
"533 704 LINE",
"480 733 OFFCURVE",
"413 745 OFFCURVE",
"335 745 CURVE SMOOTH",
"192 745 OFFCURVE",
"80 653 OFFCURVE",
"80 496 CURVE SMOOTH",
"80 478 LINE",
"13 478 LINE",
"13 374 LINE",
"80 374 LINE",
"80 0 LINE",
"212 0 LINE",
"212 374 LINE",
"326 374 LINE",
"326 478 LINE",
"212 478 LINE",
"212 507 LINE SMOOTH",
"212 576 OFFCURVE",
"256 635 OFFCURVE",
"331 635 CURVE SMOOTH",
"360.125 635 OFFCURVE",
"381.677 632.565 OFFCURVE",
"401 624.179 CURVE",
"401 0 LINE",
"533 0 LINE"
);
}
);
width = 589;
}
);
leftMetricsKey = f;
rightMetricsKey = l;
unicode = FB02;
},
{
glyphname = zero;
lastChange = "2012-11-27 07:05:40 +0000";
layers = (
{
layerId = "FE64E73E-EA44-4B20-B2ED-18E4C3E872F4";
name = Regular;
paths = (
{
closed = 1;
nodes = (
"116 672 OFFCURVE",
"36 554 OFFCURVE",
"36 331 CURVE SMOOTH",
"36 105 OFFCURVE",
"114 -10 OFFCURVE",
"245 -10 CURVE SMOOTH",
"374 -10 OFFCURVE",
"454 105 OFFCURVE",
"454 331 CURVE SMOOTH",
"454 557 OFFCURVE",
"374 672 OFFCURVE",
"245 672 CURVE SMOOTH"
);
},
{
closed = 1;
nodes = (
"332 600 OFFCURVE",
"364 492 OFFCURVE",
"364 331 CURVE SMOOTH",
"364 170 OFFCURVE",
"330 62 OFFCURVE",
"245 62 CURVE SMOOTH",
"160 62 OFFCURVE",
"126 166 OFFCURVE",
"126 331 CURVE SMOOTH",
"126 493 OFFCURVE",
"162 600 OFFCURVE",
"245 600 CURVE SMOOTH"
);
}
);
width = 490;
},
{
layerId = "6D2C0C40-443C-46D1-B6D4-3F78476E95FC";
name = Light;
paths = (
{
closed = 1;
nodes = (
"116 672 OFFCURVE",
"46 562 OFFCURVE",
"46 331 CURVE SMOOTH",
"46 100 OFFCURVE",
"116 -10 OFFCURVE",
"228 -10 CURVE SMOOTH",
"340 -10 OFFCURVE",
"410 100 OFFCURVE",
"410 331 CURVE SMOOTH",
"410 562 OFFCURVE",
"340 672 OFFCURVE",
"228 672 CURVE SMOOTH"
);
},
{
closed = 1;
nodes = (
"318 640 OFFCURVE",
"374 536 OFFCURVE",
"374 331 CURVE SMOOTH",
"374 126 OFFCURVE",
"318 22 OFFCURVE",
"228 22 CURVE SMOOTH",
"138 22 OFFCURVE",
"82 126 OFFCURVE",
"82 331 CURVE SMOOTH",
"82 536 OFFCURVE",
"138 640 OFFCURVE",
"228 640 CURVE SMOOTH"
);
}
);
width = 456;
},
{
layerId = "24BDA9C5-7BA7-4A63-82ED-F7EF9C664871";
name = Bold;
paths = (
{
closed = 1;
nodes = (
"132 676 OFFCURVE",
"28 589 OFFCURVE",
"28 331 CURVE SMOOTH",
"28 73 OFFCURVE",
"132 -14 OFFCURVE",
"261 -14 CURVE SMOOTH",
"390 -14 OFFCURVE",
"494 73 OFFCURVE",
"494 331 CURVE SMOOTH",
"494 589 OFFCURVE",
"390 676 OFFCURVE",
"261 676 CURVE SMOOTH"
);
},
{
closed = 1;
nodes = (
"326 564 OFFCURVE",
"352 478 OFFCURVE",
"352 331 CURVE SMOOTH",
"352 184 OFFCURVE",
"326 98 OFFCURVE",
"261 98 CURVE SMOOTH",
"196 98 OFFCURVE",
"170 184 OFFCURVE",
"170 331 CURVE SMOOTH",
"170 478 OFFCURVE",
"196 564 OFFCURVE",
"261 564 CURVE SMOOTH"
);
}
);
width = 522;
}
);
unicode = 0030;
},
{
glyphname = one;
lastChange = "2012-11-27 07:05:40 +0000";
layers = (
{
layerId = "FE64E73E-EA44-4B20-B2ED-18E4C3E872F4";
name = Regular;
paths = (
{
closed = 1;
nodes = (
"296 662 LINE",
"98 535 LINE",
"100 450 LINE",
"279 558 LINE",
"279 0 LINE",
"361 0 LINE",
"361 662 LINE"
);
}
);
width = 490;
},
{
layerId = "6D2C0C40-443C-46D1-B6D4-3F78476E95FC";
name = Light;
paths = (
{
closed = 1;
nodes = (
"297 662 LINE",
"102 543 LINE",
"104 508 LINE",
"280 612 LINE",
"280 0 LINE",
"314 1 LINE",
"314 662 LINE"
);
}
);
width = 456;
},
{
layerId = "24BDA9C5-7BA7-4A63-82ED-F7EF9C664871";
name = Bold;
paths = (
{
closed = 1;
nodes = (
"312 662 LINE",
"97 521 LINE",
"101 397 LINE",
"295 509 LINE",
"295 0 LINE",
"427 0 LINE",
"427 662 LINE"
);
}
);
width = 522;
},
{
associatedMasterId = "FE64E73E-EA44-4B20-B2ED-18E4C3E872F4";
layerId = "5DAB4074-2411-452B-9DDF-76BDE0701090";
name = "new Layer";
width = 600;
}
);
unicode = 0031;
},
{
glyphname = two;
lastChange = "2012-11-27 07:05:40 +0000";
layers = (
{
layerId = "FE64E73E-EA44-4B20-B2ED-18E4C3E872F4";
name = Regular;
paths = (
{
closed = 1;
nodes = (
"178 672 OFFCURVE",
"121 654 OFFCURVE",
"79 617 CURVE",
"82 532 LINE",
"120 575 OFFCURVE",
"180 600 OFFCURVE",
"225 600 CURVE SMOOTH",
"304 600 OFFCURVE",
"339 555 OFFCURVE",
"339 496 CURVE SMOOTH",
"339 434 OFFCURVE",
"320 384 OFFCURVE",
"185 228 CURVE SMOOTH",
"41 62 LINE",
"41 0 LINE",
"440 0 LINE",
"440 72 LINE",
"145 72 LINE",
"239 178 LINE SMOOTH",
"380 336 OFFCURVE",
"431 410 OFFCURVE",
"431 498 CURVE SMOOTH",
"431 598 OFFCURVE",
"359 672 OFFCURVE",
"237 672 CURVE SMOOTH"
);
}
);
width = 490;
},
{
layerId = "6D2C0C40-443C-46D1-B6D4-3F78476E95FC";
name = Light;
paths = (
{
closed = 1;
nodes = (
"186 672 OFFCURVE",
"127 652 OFFCURVE",
"90 615 CURVE",
"93 577 LINE",
"129 617 OFFCURVE",
"186 640 OFFCURVE",
"233 640 CURVE SMOOTH",
"314 640 OFFCURVE",
"366 598 OFFCURVE",
"366 513 CURVE SMOOTH",
"366 446 OFFCURVE",
"318 372 OFFCURVE",
"203 226 CURVE SMOOTH",
"43 23 LINE",
"43 0 LINE",
"407 0 LINE",
"407 32 LINE",
"90 32 LINE",
"225 201 LINE SMOOTH",
"354 363 OFFCURVE",
"402 441 OFFCURVE",
"402 517 CURVE SMOOTH",
"402 613 OFFCURVE",
"338 672 OFFCURVE",
"235 672 CURVE SMOOTH"
);
}
);
width = 456;
},
{
layerId = "24BDA9C5-7BA7-4A63-82ED-F7EF9C664871";
name = Bold;
paths = (
{
closed = 1;
nodes = (
"183 676 OFFCURVE",
"129 659 OFFCURVE",
"78 623 CURVE",
"84 504 LINE",
"129 545 OFFCURVE",
"179 564 OFFCURVE",
"222 564 CURVE SMOOTH",
"293 564 OFFCURVE",
"330 533 OFFCURVE",
"330 467 CURVE SMOOTH",
"330 414 OFFCURVE",
"292 357 OFFCURVE",
"220 283 CURVE SMOOTH",
"43 103 LINE",
"43 0 LINE",
"464 0 LINE",
"464 112 LINE",
"201 112 LINE",
"321 225 LINE SMOOTH",
"416 314 OFFCURVE",
"472 393 OFFCURVE",
"472 485 CURVE SMOOTH",
"472 587 OFFCURVE",
"403 676 OFFCURVE",
"247 676 CURVE SMOOTH"
);
}
);
width = 522;
},
{
associatedMasterId = "FE64E73E-EA44-4B20-B2ED-18E4C3E872F4";
layerId = "5DAB4074-2411-452B-9DDF-76BDE0701090";
name = "new Layer";
width = 600;
}
);
unicode = 0032;
},
{
glyphname = three;
lastChange = "2012-11-27 07:05:40 +0000";
layers = (
{
layerId = "FE64E73E-EA44-4B20-B2ED-18E4C3E872F4";
name = Regular;
paths = (
{
closed = 1;
nodes = (
"170 672 OFFCURVE",
"113 655 OFFCURVE",
"77 630 CURVE",
"80 554 LINE",
"117 581 OFFCURVE",
"165 600 OFFCURVE",
"206 600 CURVE SMOOTH",
"284 600 OFFCURVE",
"327 563 OFFCURVE",
"327 499 CURVE SMOOTH",
"327 427 OFFCURVE",
"244 364 OFFCURVE",
"146 364 CURVE",
"146 300 LINE",
"271 300 OFFCURVE",
"334 250 OFFCURVE",
"334 175 CURVE SMOOTH",
"334 103 OFFCURVE",
"278 62 OFFCURVE",
"197 62 CURVE SMOOTH",
"147 62 OFFCURVE",
"101 74 OFFCURVE",
"51 101 CURVE",
"44 26 LINE",
"89 0 OFFCURVE",
"139 -10 OFFCURVE",
"193 -10 CURVE SMOOTH",
"320 -10 OFFCURVE",
"426 61 OFFCURVE",
"426 183 CURVE SMOOTH",
"426 268 OFFCURVE",
"358 339 OFFCURVE",
"255 348 CURVE",
"340 363 OFFCURVE",
"419 420 OFFCURVE",
"419 512 CURVE SMOOTH",
"419 600 OFFCURVE",
"353 672 OFFCURVE",
"224 672 CURVE SMOOTH"
);
}
);
width = 490;
},
{
layerId = "6D2C0C40-443C-46D1-B6D4-3F78476E95FC";
name = Light;
paths = (
{
closed = 1;
nodes = (
"171 672 OFFCURVE",
"125 654 OFFCURVE",
"89 625 CURVE",
"91 589 LINE",
"131 623 OFFCURVE",
"177 640 OFFCURVE",
"218 640 CURVE SMOOTH",
"316 640 OFFCURVE",
"360 587 OFFCURVE",
"360 512 CURVE SMOOTH",
"360 421 OFFCURVE",
"266 358 OFFCURVE",
"159 354 CURVE",
"159 322 LINE",
"298 322 OFFCURVE",
"363 258 OFFCURVE",
"363 166 CURVE SMOOTH",
"363 83 OFFCURVE",
"290 22 OFFCURVE",
"200 22 CURVE SMOOTH",
"150 22 OFFCURVE",
"107 34 OFFCURVE",
"59 67 CURVE",
"56 31 LINE",
"94 2 OFFCURVE",
"142 -10 OFFCURVE",
"196 -10 CURVE SMOOTH",
"310 -10 OFFCURVE",
"399 67 OFFCURVE",
"399 169 CURVE SMOOTH",
"399 264 OFFCURVE",
"334 331 OFFCURVE",
"231 343 CURVE",
"318 360 OFFCURVE",
"396 430 OFFCURVE",
"396 520 CURVE SMOOTH",
"396 604 OFFCURVE",
"336 672 OFFCURVE",
"228 672 CURVE SMOOTH"
);
}
);
width = 456;
},
{
layerId = "24BDA9C5-7BA7-4A63-82ED-F7EF9C664871";
name = Bold;
paths = (
{
closed = 1;
nodes = (
"175 676 OFFCURVE",
"118 663 OFFCURVE",
"70 636 CURVE",
"75 520 LINE",
"111 547 OFFCURVE",
"164 564 OFFCURVE",
"209 564 CURVE SMOOTH",
"279 564 OFFCURVE",
"316 534 OFFCURVE",
"316 485 CURVE SMOOTH",
"316 428 OFFCURVE",
"262 384 OFFCURVE",
"140 384 CURVE",
"140 280 LINE",
"265 280 OFFCURVE",
"321 251 OFFCURVE",
"321 183 CURVE SMOOTH",
"321 130 OFFCURVE",
"275 98 OFFCURVE",
"201 98 CURVE SMOOTH",
"151 98 OFFCURVE",
"99 110 OFFCURVE",
"48 134 CURVE",
"38 19 LINE",
"84 -4 OFFCURVE",
"140 -14 OFFCURVE",
"194 -14 CURVE SMOOTH",
"358 -14 OFFCURVE",
"463 66 OFFCURVE",
"463 184 CURVE SMOOTH",
"463 271 OFFCURVE",
"408 341 OFFCURVE",
"285 352 CURVE",
"376 363 OFFCURVE",
"458 421 OFFCURVE",
"458 509 CURVE SMOOTH",
"458 608 OFFCURVE",
"386 676 OFFCURVE",
"232 676 CURVE SMOOTH"
);
}
);
width = 522;
},
{
associatedMasterId = "FE64E73E-EA44-4B20-B2ED-18E4C3E872F4";
layerId = "5DAB4074-2411-452B-9DDF-76BDE0701090";
name = "new Layer";
width = 600;
}
);
unicode = 0033;
},
{
glyphname = four;
lastChange = "2012-11-27 07:05:40 +0000";
layers = (
{
layerId = "FE64E73E-EA44-4B20-B2ED-18E4C3E872F4";
name = Regular;
paths = (
{
closed = 1;
nodes = (
"272 662 LINE",
"40 235 LINE",
"40 171 LINE",
"299 171 LINE",
"299 1 LINE",
"381 1 LINE",
"381 171 LINE",
"464 171 LINE",
"464 243 LINE",
"381 243 LINE",
"381 662 LINE"
);
},
{
closed = 1;
nodes = (
"299 496 OFFCURVE",
"299 437 OFFCURVE",
"299 397 CURVE SMOOTH",
"299 243 LINE",
"133 243 LINE",
"303 576 LINE"
);
}
);
width = 490;
},
{
layerId = "6D2C0C40-443C-46D1-B6D4-3F78476E95FC";
name = Light;
paths = (
{
closed = 1;
nodes = (
"295 662 LINE",
"41 215 LINE",
"41 191 LINE",
"303 191 LINE",
"303 1 LINE",
"337 1 LINE",
"337 191 LINE",
"425 191 LINE",
"425 223 LINE",
"337 223 LINE",
"337 662 LINE"
);
},
{
closed = 1;
nodes = (
"303 547 OFFCURVE",
"303 447 OFFCURVE",
"303 397 CURVE SMOOTH",
"303 223 LINE",
"84 223 LINE",
"307 627 LINE"
);
}
);
width = 456;
},
{
layerId = "24BDA9C5-7BA7-4A63-82ED-F7EF9C664871";
name = Bold;
paths = (
{
closed = 1;
nodes = (
"242 662 LINE",
"24 255 LINE",
"24 151 LINE",
"288 151 LINE",
"288 1 LINE",
"420 1 LINE",
"420 151 LINE",
"509 151 LINE",
"509 263 LINE",
"420 263 LINE",
"420 662 LINE"
);
},
{
closed = 1;
nodes = (
"291 496 OFFCURVE",
"290 454 OFFCURVE",
"290 397 CURVE SMOOTH",
"290 263 LINE",
"160 263 LINE",
"296 546 LINE"
);
}
);
width = 522;
},
{
associatedMasterId = "FE64E73E-EA44-4B20-B2ED-18E4C3E872F4";
layerId = "5DAB4074-2411-452B-9DDF-76BDE0701090";
name = "new Layer";
width = 600;
}
);
unicode = 0034;
},
{
glyphname = five;
lastChange = "2012-11-27 07:05:40 +0000";
layers = (
{
layerId = "FE64E73E-EA44-4B20-B2ED-18E4C3E872F4";
name = Regular;
paths = (
{
closed = 1;
nodes = (
"102 658 LINE",
"80 323 LINE",
"160 323 LINE SMOOTH",
"286 323 OFFCURVE",
"343 274 OFFCURVE",
"343 185 CURVE SMOOTH",
"343 112 OFFCURVE",
"290 62 OFFCURVE",
"209 62 CURVE SMOOTH",
"166 62 OFFCURVE",
"114 73 OFFCURVE",
"63 104 CURVE",
"57 26 LINE",
"100 0 OFFCURVE",
"151 -10 OFFCURVE",
"205 -10 CURVE SMOOTH",
"334 -10 OFFCURVE",
"435 66 OFFCURVE",
"435 194 CURVE SMOOTH",
"435 310 OFFCURVE",
"353 395 OFFCURVE",
"189 395 CURVE SMOOTH",
"167 395 LINE",
"180 586 LINE",
"423 586 LINE",
"423 658 LINE"
);
}
);
width = 490;
},
{
layerId = "6D2C0C40-443C-46D1-B6D4-3F78476E95FC";
name = Light;
paths = (
{
closed = 1;
nodes = (
"106 658 LINE",
"88 348 LINE",
"147 348 LINE SMOOTH",
"285 348 OFFCURVE",
"355 290 OFFCURVE",
"355 176 CURVE SMOOTH",
"355 87 OFFCURVE",
"271 22 OFFCURVE",
"188 22 CURVE SMOOTH",
"142 22 OFFCURVE",
"103 31 OFFCURVE",
"59 63 CURVE",
"55 27 LINE",
"95 -1 OFFCURVE",
"130 -10 OFFCURVE",
"184 -10 CURVE SMOOTH",
"299 -10 OFFCURVE",
"391 77 OFFCURVE",
"391 184 CURVE SMOOTH",
"391 310 OFFCURVE",
"303 380 OFFCURVE",
"155 380 CURVE SMOOTH",
"122 380 LINE",
"136 626 LINE",
"379 626 LINE",
"379 658 LINE"
);
}
);
width = 456;
},
{
layerId = "24BDA9C5-7BA7-4A63-82ED-F7EF9C664871";
name = Bold;
paths = (
{
closed = 1;
nodes = (
"112 658 LINE",
"88 310 LINE",
"186 308 LINE SMOOTH",
"294 306 OFFCURVE",
"340 274 OFFCURVE",
"340 201 CURVE SMOOTH",
"340 142 OFFCURVE",
"297 102 OFFCURVE",
"221 102 CURVE SMOOTH",
"171 102 OFFCURVE",
"115 111 OFFCURVE",
"61 141 CURVE",
"53 25 LINE",
"103 -1 OFFCURVE",
"156 -10 OFFCURVE",
"217 -10 CURVE SMOOTH",
"356 -10 OFFCURVE",
"472 70 OFFCURVE",
"472 207 CURVE SMOOTH",
"472 337 OFFCURVE",
"391 402 OFFCURVE",
"236 411 CURVE SMOOTH",
"218 412 LINE",
"227 546 LINE",
"458 546 LINE",
"458 658 LINE"
);
}
);
width = 522;
}
);
unicode = 0035;
},
{
glyphname = six;
lastChange = "2012-11-27 07:05:40 +0000";
layers = (
{
layerId = "FE64E73E-EA44-4B20-B2ED-18E4C3E872F4";
name = Regular;
paths = (
{
closed = 1;
nodes = (
"359 -10 OFFCURVE",
"450 75 OFFCURVE",
"450 196 CURVE SMOOTH",
"450 284 OFFCURVE",
"390 383 OFFCURVE",
"270 383 CURVE SMOOTH",
"210 383 OFFCURVE",
"157 349 OFFCURVE",
"133 302 CURVE",
"148 469 OFFCURVE",
"256 587 OFFCURVE",
"419 597 CURVE",
"408 672 LINE",
"201 660 OFFCURVE",
"45 496 OFFCURVE",
"45 250 CURVE SMOOTH",
"45 74 OFFCURVE",
"134 -10 OFFCURVE",
"250 -10 CURVE SMOOTH"
);
},
{
closed = 1;
nodes = (
"328 310 OFFCURVE",
"361 248 OFFCURVE",
"361 180 CURVE SMOOTH",
"361 115 OFFCURVE",
"309 60 OFFCURVE",
"247 60 CURVE SMOOTH",
"179 60 OFFCURVE",
"135 121 OFFCURVE",
"135 198 CURVE SMOOTH",
"135 257 OFFCURVE",
"180 310 OFFCURVE",
"245 310 CURVE SMOOTH"
);
}
);
width = 490;
},
{
layerId = "6D2C0C40-443C-46D1-B6D4-3F78476E95FC";
name = Light;
paths = (
{
closed = 1;
nodes = (
"328 -10 OFFCURVE",
"409 70 OFFCURVE",
"409 179 CURVE SMOOTH",
"409 278 OFFCURVE",
"346 364 OFFCURVE",
"245 364 CURVE SMOOTH",
"166 364 OFFCURVE",
"110 319 OFFCURVE",
"85 262 CURVE",
"87 445 OFFCURVE",
"195 622 OFFCURVE",
"376 641 CURVE",
"374 672 LINE",
"192 656 OFFCURVE",
"48 483 OFFCURVE",
"48 236 CURVE SMOOTH",
"48 102 OFFCURVE",
"112 -10 OFFCURVE",
"227 -10 CURVE SMOOTH"
);
},
{
closed = 1;
nodes = (
"325 331 OFFCURVE",
"370 257 OFFCURVE",
"370 173 CURVE SMOOTH",
"370 85 OFFCURVE",
"308 22 OFFCURVE",
"233 22 CURVE SMOOTH",
"142 22 OFFCURVE",
"90 112 OFFCURVE",
"90 201 CURVE SMOOTH",
"90 260 OFFCURVE",
"152 331 OFFCURVE",
"236 331 CURVE SMOOTH"
);
}
);
width = 456;
},
{
layerId = "24BDA9C5-7BA7-4A63-82ED-F7EF9C664871";
name = Bold;
paths = (
{
closed = 1;
nodes = (
"368 -10 OFFCURVE",
"485 65 OFFCURVE",
"485 208 CURVE SMOOTH",
"485 308 OFFCURVE",
"413 403 OFFCURVE",
"293 403 CURVE SMOOTH",
"239 403 OFFCURVE",
"196 388 OFFCURVE",
"164 342 CURVE",
"178 482 OFFCURVE",
"285 553 OFFCURVE",
"445 557 CURVE",
"436 672 LINE",
"224 668 OFFCURVE",
"34 562 OFFCURVE",
"34 250 CURVE SMOOTH",
"34 74 OFFCURVE",
"143 -10 OFFCURVE",
"259 -10 CURVE SMOOTH"
);
},
{
closed = 1;
nodes = (
"316 296 OFFCURVE",
"353 252 OFFCURVE",
"353 197 CURVE SMOOTH",
"353 144 OFFCURVE",
"317 100 OFFCURVE",
"261 100 CURVE SMOOTH",
"210 100 OFFCURVE",
"164 137 OFFCURVE",
"164 202 CURVE SMOOTH",
"164 261 OFFCURVE",
"201 296 OFFCURVE",
"256 296 CURVE SMOOTH"
);
}
);
width = 522;
}
);
unicode = 0036;
},
{
glyphname = seven;
lastChange = "2012-11-27 07:05:40 +0000";
layers = (
{
layerId = "FE64E73E-EA44-4B20-B2ED-18E4C3E872F4";
name = Regular;
paths = (
{
closed = 1;
nodes = (
"53 658 LINE",
"53 586 LINE",
"369 586 LINE",
"94 1 LINE",
"182 1 LINE",
"460 593 LINE",
"461 658 LINE"
);
}
);
width = 490;
},
{
layerId = "6D2C0C40-443C-46D1-B6D4-3F78476E95FC";
name = Light;
paths = (
{
closed = 1;
nodes = (
"58 658 LINE",
"58 626 LINE",
"383 626 LINE",
"98 0 LINE",
"135 0 LINE",
"423 633 LINE",
"423 658 LINE"
);
}
);
width = 456;
},
{
layerId = "24BDA9C5-7BA7-4A63-82ED-F7EF9C664871";
name = Bold;
paths = (
{
closed = 1;
nodes = (
"51 658 LINE",
"51 546 LINE",
"329 546 LINE",
"80 1 LINE",
"213 1 LINE",
"474 573 LINE",
"475 658 LINE"
);
}
);
width = 522;
}
);
unicode = 0037;
},
{
glyphname = eight;
lastChange = "2012-11-27 07:05:40 +0000";
layers = (
{
layerId = "FE64E73E-EA44-4B20-B2ED-18E4C3E872F4";
name = Regular;
paths = (
{
closed = 1;
nodes = (
"143 672 OFFCURVE",
"63 603 OFFCURVE",
"63 497 CURVE SMOOTH",
"63 421 OFFCURVE",
"109 363 OFFCURVE",
"176 336 CURVE",
"95 311 OFFCURVE",
"45 242 OFFCURVE",
"45 159 CURVE SMOOTH",
"45 58 OFFCURVE",
"126 -10 OFFCURVE",
"241 -10 CURVE SMOOTH",
"353 -10 OFFCURVE",
"445 58 OFFCURVE",
"445 169 CURVE SMOOTH",
"445 243 OFFCURVE",
"410 304 OFFCURVE",
"322 345 CURVE",
"392 372 OFFCURVE",
"438 431 OFFCURVE",
"438 505 CURVE SMOOTH",
"438 604 OFFCURVE",
"366 672 OFFCURVE",
"253 672 CURVE SMOOTH"
);
},
{
closed = 1;
nodes = (
"328 278 OFFCURVE",
"357 227 OFFCURVE",
"357 164 CURVE SMOOTH",
"357 106 OFFCURVE",
"312 60 OFFCURVE",
"242 60 CURVE SMOOTH",
"180 60 OFFCURVE",
"133 105 OFFCURVE",
"133 168 CURVE SMOOTH",
"133 238 OFFCURVE",
"169 284 OFFCURVE",
"246 303 CURVE"
);
},
{
closed = 1;
nodes = (
"315 603 OFFCURVE",
"351 563 OFFCURVE",
"351 498 CURVE SMOOTH",
"351 443 OFFCURVE",
"313 389 OFFCURVE",
"250 377 CURVE",
"185 394 OFFCURVE",
"150 440 OFFCURVE",
"150 498 CURVE SMOOTH",
"150 561 OFFCURVE",
"186 603 OFFCURVE",
"251 603 CURVE SMOOTH"
);
}
);
width = 490;
},
{
layerId = "6D2C0C40-443C-46D1-B6D4-3F78476E95FC";
name = Light;
paths = (
{
closed = 1;
nodes = (
"152 672 OFFCURVE",
"75 603 OFFCURVE",
"75 506 CURVE SMOOTH",
"75 431 OFFCURVE",
"128 374 OFFCURVE",
"200 337 CURVE",
"126 305 OFFCURVE",
"56 234 OFFCURVE",
"56 149 CURVE SMOOTH",
"56 54 OFFCURVE",
"133 -10 OFFCURVE",
"231 -10 CURVE SMOOTH",
"328 -10 OFFCURVE",
"408 56 OFFCURVE",
"408 157 CURVE SMOOTH",
"408 233 OFFCURVE",
"366 292 OFFCURVE",
"273 339 CURVE",
"346 378 OFFCURVE",
"406 434 OFFCURVE",
"406 514 CURVE SMOOTH",
"406 607 OFFCURVE",
"342 672 OFFCURVE",
"241 672 CURVE SMOOTH"
);
},
{
closed = 1;
nodes = (
"319 283 OFFCURVE",
"372 230 OFFCURVE",
"372 152 CURVE SMOOTH",
"372 84 OFFCURVE",
"317 22 OFFCURVE",
"231 22 CURVE SMOOTH",
"153 22 OFFCURVE",
"92 76 OFFCURVE",
"92 158 CURVE SMOOTH",
"92 232 OFFCURVE",
"158 290 OFFCURVE",
"234 323 CURVE"
);
},
{
closed = 1;
nodes = (
"321 640 OFFCURVE",
"370 593 OFFCURVE",
"370 508 CURVE SMOOTH",
"370 443 OFFCURVE",
"303 378 OFFCURVE",
"236 353 CURVE",
"167 385 OFFCURVE",
"111 439 OFFCURVE",
"111 517 CURVE SMOOTH",
"111 586 OFFCURVE",
"174 640 OFFCURVE",
"239 640 CURVE SMOOTH"
);
}
);
width = 456;
},
{
layerId = "24BDA9C5-7BA7-4A63-82ED-F7EF9C664871";
name = Bold;
paths = (
{
closed = 1;
nodes = (
"144 672 OFFCURVE",
"56 599 OFFCURVE",
"56 493 CURVE SMOOTH",
"56 419 OFFCURVE",
"93 363 OFFCURVE",
"160 332 CURVE",
"79 296 OFFCURVE",
"37 238 OFFCURVE",
"37 158 CURVE SMOOTH",
"37 57 OFFCURVE",
"119 -10 OFFCURVE",
"257 -10 CURVE SMOOTH",
"392 -10 OFFCURVE",
"485 57 OFFCURVE",
"485 168 CURVE SMOOTH",
"485 239 OFFCURVE",
"458 290 OFFCURVE",
"370 341 CURVE",
"440 370 OFFCURVE",
"479 427 OFFCURVE",
"479 501 CURVE SMOOTH",
"479 600 OFFCURVE",
"397 672 OFFCURVE",
"269 672 CURVE SMOOTH"
);
},
{
closed = 1;
nodes = (
"327 256 OFFCURVE",
"343 226 OFFCURVE",
"343 177 CURVE SMOOTH",
"343 139 OFFCURVE",
"313 102 OFFCURVE",
"260 102 CURVE SMOOTH",
"215 102 OFFCURVE",
"179 134 OFFCURVE",
"179 177 CURVE SMOOTH",
"179 226 OFFCURVE",
"200 252 OFFCURVE",
"255 290 CURVE"
);
},
{
closed = 1;
nodes = (
"313 560 OFFCURVE",
"337 527 OFFCURVE",
"337 482 CURVE SMOOTH",
"337 437 OFFCURVE",
"320 403 OFFCURVE",
"270 383 CURVE",
"219 403 OFFCURVE",
"198 437 OFFCURVE",
"198 484 CURVE SMOOTH",
"198 527 OFFCURVE",
"224 560 OFFCURVE",
"269 560 CURVE SMOOTH"
);
}
);
width = 522;
}
);
unicode = 0038;
},
{
glyphname = nine;
lastChange = "2012-11-27 07:05:40 +0000";
layers = (
{
layerId = "FE64E73E-EA44-4B20-B2ED-18E4C3E872F4";
name = Regular;
paths = (
{
closed = 1;
nodes = (
"131 672 OFFCURVE",
"40 587 OFFCURVE",
"40 466 CURVE SMOOTH",
"40 378 OFFCURVE",
"100 279 OFFCURVE",
"220 279 CURVE SMOOTH",
"280 279 OFFCURVE",
"333 313 OFFCURVE",
"357 360 CURVE",
"342 193 OFFCURVE",
"234 75 OFFCURVE",
"71 65 CURVE",
"82 -10 LINE",
"289 2 OFFCURVE",
"445 166 OFFCURVE",
"445 412 CURVE SMOOTH",
"445 588 OFFCURVE",
"356 672 OFFCURVE",
"240 672 CURVE SMOOTH"
);
},
{
closed = 1;
nodes = (
"311 602 OFFCURVE",
"355 541 OFFCURVE",
"355 464 CURVE SMOOTH",
"355 405 OFFCURVE",
"310 352 OFFCURVE",
"245 352 CURVE SMOOTH",
"162 352 OFFCURVE",
"129 414 OFFCURVE",
"129 482 CURVE SMOOTH",
"129 547 OFFCURVE",
"181 602 OFFCURVE",
"243 602 CURVE SMOOTH"
);
}
);
width = 490;
},
{
layerId = "6D2C0C40-443C-46D1-B6D4-3F78476E95FC";
name = Light;
paths = (
{
closed = 1;
nodes = (
"130 672 OFFCURVE",
"49 592 OFFCURVE",
"49 483 CURVE SMOOTH",
"49 384 OFFCURVE",
"112 298 OFFCURVE",
"213 298 CURVE SMOOTH",
"292 298 OFFCURVE",
"348 343 OFFCURVE",
"373 400 CURVE",
"371 217 OFFCURVE",
"263 40 OFFCURVE",
"82 21 CURVE",
"84 -10 LINE",
"266 6 OFFCURVE",
"410 179 OFFCURVE",
"410 426 CURVE SMOOTH",
"410 560 OFFCURVE",
"346 672 OFFCURVE",
"231 672 CURVE SMOOTH"
);
},
{
closed = 1;
nodes = (
"316 640 OFFCURVE",
"368 550 OFFCURVE",
"368 461 CURVE SMOOTH",
"368 402 OFFCURVE",
"306 331 OFFCURVE",
"222 331 CURVE SMOOTH",
"133 331 OFFCURVE",
"88 405 OFFCURVE",
"88 489 CURVE SMOOTH",
"88 577 OFFCURVE",
"150 640 OFFCURVE",
"225 640 CURVE SMOOTH"
);
}
);
width = 456;
},
{
layerId = "24BDA9C5-7BA7-4A63-82ED-F7EF9C664871";
name = Bold;
paths = (
{
closed = 1;
nodes = (
"149 672 OFFCURVE",
"32 597 OFFCURVE",
"32 454 CURVE SMOOTH",
"32 354 OFFCURVE",
"104 259 OFFCURVE",
"224 259 CURVE SMOOTH",
"278 259 OFFCURVE",
"321 274 OFFCURVE",
"353 320 CURVE",
"339 180 OFFCURVE",
"232 109 OFFCURVE",
"72 105 CURVE",
"81 -10 LINE",
"293 -6 OFFCURVE",
"483 100 OFFCURVE",
"483 412 CURVE SMOOTH",
"483 588 OFFCURVE",
"374 672 OFFCURVE",
"258 672 CURVE SMOOTH"
);
},
{
closed = 1;
nodes = (
"307 562 OFFCURVE",
"353 525 OFFCURVE",
"353 460 CURVE SMOOTH",
"353 401 OFFCURVE",
"316 366 OFFCURVE",
"261 366 CURVE SMOOTH",
"201 366 OFFCURVE",
"164 410 OFFCURVE",
"164 465 CURVE SMOOTH",
"164 518 OFFCURVE",
"200 562 OFFCURVE",
"256 562 CURVE SMOOTH"
);
}
);
width = 522;
}
);
unicode = 0039;
},
{
glyphname = asterisk;
lastChange = "2012-11-27 07:05:40 +0000";
layers = (
{
layerId = "FE64E73E-EA44-4B20-B2ED-18E4C3E872F4";
name = Regular;
paths = (
{
closed = 1;
nodes = (
"189 655 LINE",
"205 500 LINE",
"63 564 LINE",
"36 478 LINE",
"188 446 LINE",
"84 330 LINE",
"156 278 LINE",
"234 412 LINE",
"312 278 LINE",
"384 330 LINE",
"280 446 LINE",
"432 478 LINE",
"405 564 LINE",
"263 500 LINE",
"279 655 LINE"
);
}
);
width = 468;
},
{
layerId = "6D2C0C40-443C-46D1-B6D4-3F78476E95FC";
name = Light;
paths = (
{
closed = 1;
nodes = (
"158 655 LINE",
"164 501 LINE",
"18 554 LINE",
"8 523 LINE",
"158 481 LINE",
"61 359 LINE",
"88 340 LINE",
"174 468 LINE",
"260 340 LINE",
"287 359 LINE",
"190 481 LINE",
"340 523 LINE",
"330 554 LINE",
"184 501 LINE",
"190 655 LINE"
);
}
);
width = 348;
},
{
layerId = "24BDA9C5-7BA7-4A63-82ED-F7EF9C664871";
name = Bold;
paths = (
{
closed = 1;
nodes = (
"173 655 LINE",
"196 500 LINE",
"56 570 LINE",
"21 461 LINE",
"175 435 LINE",
"65 323 LINE",
"158 256 LINE",
"230 395 LINE",
"302 256 LINE",
"395 323 LINE",
"285 435 LINE",
"439 461 LINE",
"404 570 LINE",
"264 500 LINE",
"287 655 LINE"
);
}
);
width = 460;
},
{
associatedMasterId = "6D2C0C40-443C-46D1-B6D4-3F78476E95FC";
layerId = "1EDFA07C-260B-4CE4-812C-5F21342489FD";
name = "Light Sep 17 12, 13:16";
paths = (
{
closed = 1;
nodes = (
"244 500 LINE",
"250 655 LINE",
"218 655 LINE",
"224 500 LINE"
);
},
{
closed = 1;
nodes = (
"250 481 LINE",
"400 523 LINE",
"390 554 LINE",
"244 500 LINE"
);
},
{
closed = 1;
nodes = (
"234 470 LINE",
"320 340 LINE",
"347 359 LINE",
"250 481 LINE"
);
},
{
closed = 1;
nodes = (
"78 554 LINE",
"68 523 LINE",
"218 481 LINE",
"224 500 LINE"
);
},
{
closed = 1;
nodes = (
"121 359 LINE",
"148 340 LINE",
"234 470 LINE",
"218 481 LINE"
);
}
);
width = 600;
},
{
associatedMasterId = "24BDA9C5-7BA7-4A63-82ED-F7EF9C664871";
layerId = "2460836A-958C-4D03-BC47-4016F17D9B4E";
name = "Bold Sep 17 12, 13:27";
paths = (
{
closed = 1;
nodes = (
"268 500 LINE",
"291 655 LINE",
"177 655 LINE",
"200 500 LINE"
);
},
{
closed = 1;
nodes = (
"289 435 LINE",
"443 461 LINE",
"408 570 LINE",
"268 500 LINE"
);
},
{
closed = 1;
nodes = (
"234 395 LINE",
"306 256 LINE",
"399 323 LINE",
"289 435 LINE"
);
},
{
closed = 1;
nodes = (
"60 570 LINE",
"25 461 LINE",
"179 435 LINE",
"200 500 LINE"
);
},
{
closed = 1;
nodes = (
"69 323 LINE",
"162 256 LINE",
"234 395 LINE",
"179 435 LINE"
);
}
);
width = 600;
}
);
unicode = 002A;
},
{
glyphname = backslash;
lastChange = "2012-11-27 07:05:40 +0000";
layers = (
{
layerId = "FE64E73E-EA44-4B20-B2ED-18E4C3E872F4";
name = Regular;
paths = (
{
closed = 1;
nodes = (
"-5 749 LINE",
"337 -97 LINE",
"397 -97 LINE",
"54 749 LINE"
);
}
);
width = 392;
},
{
layerId = "6D2C0C40-443C-46D1-B6D4-3F78476E95FC";
name = Light;
paths = (
{
closed = 1;
nodes = (
"5 749 LINE",
"348 -97 LINE",
"380 -97 LINE",
"38 749 LINE"
);
}
);
width = 385;
},
{
layerId = "24BDA9C5-7BA7-4A63-82ED-F7EF9C664871";
name = Bold;
paths = (
{
closed = 1;
nodes = (
"-15 749 LINE",
"328 -97 LINE",
"429 -97 LINE",
"87 749 LINE"
);
}
);
width = 414;
}
);
unicode = 005C;
},
{
glyphname = colon;
lastChange = "2012-11-27 07:05:40 +0000";
layers = (
{
layerId = "FE64E73E-EA44-4B20-B2ED-18E4C3E872F4";
name = Regular;
paths = (
{
closed = 1;
nodes = (
"68 488 OFFCURVE",
"41 461 OFFCURVE",
"41 428 CURVE SMOOTH",
"41 395 OFFCURVE",
"68 368 OFFCURVE",
"101 368 CURVE SMOOTH",
"134 368 OFFCURVE",
"161 395 OFFCURVE",
"161 428 CURVE SMOOTH",
"161 461 OFFCURVE",
"134 488 OFFCURVE",
"101 488 CURVE SMOOTH"
);
},
{
closed = 1;
nodes = (
"68 110 OFFCURVE",
"41 83 OFFCURVE",
"41 50 CURVE SMOOTH",
"41 17 OFFCURVE",
"68 -10 OFFCURVE",
"101 -10 CURVE SMOOTH",
"134 -10 OFFCURVE",
"161 17 OFFCURVE",
"161 50 CURVE SMOOTH",
"161 83 OFFCURVE",
"134 110 OFFCURVE",
"101 110 CURVE SMOOTH"
);
}
);
width = 224;
},
{
layerId = "6D2C0C40-443C-46D1-B6D4-3F78476E95FC";
name = Light;
paths = (
{
closed = 1;
nodes = (
"70 488 OFFCURVE",
"55 473 OFFCURVE",
"55 455 CURVE SMOOTH",
"55 437 OFFCURVE",
"70 422 OFFCURVE",
"88 422 CURVE SMOOTH",
"106 422 OFFCURVE",
"121 437 OFFCURVE",
"121 455 CURVE SMOOTH",
"121 473 OFFCURVE",
"106 488 OFFCURVE",
"88 488 CURVE SMOOTH"
);
},
{
closed = 1;
nodes = (
"70 60 OFFCURVE",
"55 45 OFFCURVE",
"55 27 CURVE SMOOTH",
"55 9 OFFCURVE",
"70 -6 OFFCURVE",
"88 -6 CURVE SMOOTH",
"106 -6 OFFCURVE",
"121 9 OFFCURVE",
"121 27 CURVE SMOOTH",
"121 45 OFFCURVE",
"106 60 OFFCURVE",
"88 60 CURVE SMOOTH"
);
}
);
width = 193;
},
{
layerId = "24BDA9C5-7BA7-4A63-82ED-F7EF9C664871";
name = Bold;
paths = (
{
closed = 1;
nodes = (
"108 488 OFFCURVE",
"74 454 OFFCURVE",
"74 412 CURVE SMOOTH",
"74 370 OFFCURVE",
"108 336 OFFCURVE",
"150 336 CURVE SMOOTH",
"192 336 OFFCURVE",
"226 370 OFFCURVE",
"226 412 CURVE SMOOTH",
"226 454 OFFCURVE",
"192 488 OFFCURVE",
"150 488 CURVE SMOOTH"
);
},
{
closed = 1;
nodes = (
"108 142 OFFCURVE",
"74 108 OFFCURVE",
"74 66 CURVE SMOOTH",
"74 24 OFFCURVE",
"108 -10 OFFCURVE",
"150 -10 CURVE SMOOTH",
"192 -10 OFFCURVE",
"226 24 OFFCURVE",
"226 66 CURVE SMOOTH",
"226 108 OFFCURVE",
"192 142 OFFCURVE",
"150 142 CURVE SMOOTH"
);
}
);
width = 309;
}
);
unicode = 003A;
},
{
glyphname = comma;
lastChange = "2012-11-27 07:05:40 +0000";
layers = (
{
layerId = "FE64E73E-EA44-4B20-B2ED-18E4C3E872F4";
name = Regular;
paths = (
{
closed = 1;
nodes = (
"51 101 LINE",
"-23 -147 LINE",
"42 -142 LINE",
"149 105 LINE"
);
}
);
width = 224;
},
{
layerId = "6D2C0C40-443C-46D1-B6D4-3F78476E95FC";
name = Light;
paths = (
{
closed = 1;
nodes = (
"68 103 LINE",
"-27 -147 LINE",
"2 -142 LINE",
"109 105 LINE"
);
}
);
width = 193;
},
{
layerId = "24BDA9C5-7BA7-4A63-82ED-F7EF9C664871";
name = Bold;
paths = (
{
closed = 1;
nodes = (
"83 131 LINE",
"8 -147 LINE",
"98 -142 LINE",
"211 132 LINE"
);
}
);
width = 309;
}
);
unicode = 002C;
},
{
glyphname = exclam;
lastChange = "2012-11-27 07:05:40 +0000";
layers = (
{
layerId = "FE64E73E-EA44-4B20-B2ED-18E4C3E872F4";
name = Regular;
paths = (
{
closed = 1;
nodes = (
"77 688 LINE",
"89 170 LINE",
"161 170 LINE",
"173 688 LINE"
);
},
{
closed = 1;
nodes = (
"92 114 OFFCURVE",
"65 87 OFFCURVE",
"65 54 CURVE SMOOTH",
"65 21 OFFCURVE",
"92 -6 OFFCURVE",
"125 -6 CURVE SMOOTH",
"158 -6 OFFCURVE",
"185 21 OFFCURVE",
"185 54 CURVE SMOOTH",
"185 87 OFFCURVE",
"158 114 OFFCURVE",
"125 114 CURVE SMOOTH"
);
}
);
width = 250;
},
{
layerId = "6D2C0C40-443C-46D1-B6D4-3F78476E95FC";
name = Light;
paths = (
{
closed = 1;
nodes = (
"90 688 LINE",
"98 130 LINE",
"124 130 LINE",
"132 688 LINE"
);
},
{
closed = 1;
nodes = (
"93 60 OFFCURVE",
"78 45 OFFCURVE",
"78 27 CURVE SMOOTH",
"78 9 OFFCURVE",
"93 -6 OFFCURVE",
"111 -6 CURVE SMOOTH",
"129 -6 OFFCURVE",
"144 9 OFFCURVE",
"144 27 CURVE SMOOTH",
"144 45 OFFCURVE",
"129 60 OFFCURVE",
"111 60 CURVE SMOOTH"
);
}
);
width = 222;
},
{
layerId = "24BDA9C5-7BA7-4A63-82ED-F7EF9C664871";
name = Bold;
paths = (
{
closed = 1;
nodes = (
"64 688 LINE",
"76 200 LINE",
"176 200 LINE",
"188 688 LINE"
);
},
{
closed = 1;
nodes = (
"84 142 OFFCURVE",
"50 108 OFFCURVE",
"50 66 CURVE SMOOTH",
"50 24 OFFCURVE",
"84 -10 OFFCURVE",
"126 -10 CURVE SMOOTH",
"168 -10 OFFCURVE",
"202 24 OFFCURVE",
"202 66 CURVE SMOOTH",
"202 108 OFFCURVE",
"168 142 OFFCURVE",
"126 142 CURVE SMOOTH"
);
}
);
width = 252;
}
);
unicode = 0021;
},
{
glyphname = exclamdown;
lastChange = "2012-11-27 07:05:40 +0000";
layers = (
{
layerId = "FE64E73E-EA44-4B20-B2ED-18E4C3E872F4";
name = Regular;
paths = (
{
closed = 1;
nodes = (
"89 312 LINE",
"77 -206 LINE",
"173 -206 LINE",
"161 312 LINE"
);
},
{
closed = 1;
nodes = (
"92 488 OFFCURVE",
"65 461 OFFCURVE",
"65 428 CURVE SMOOTH",
"65 395 OFFCURVE",
"92 368 OFFCURVE",
"125 368 CURVE SMOOTH",
"158 368 OFFCURVE",
"185 395 OFFCURVE",
"185 428 CURVE SMOOTH",
"185 461 OFFCURVE",
"158 488 OFFCURVE",
"125 488 CURVE SMOOTH"
);
}
);
width = 250;
},
{
components = (
{
name = exclam;
transform = "{-1, -0, 0, -1, 222, 482}";
}
);
layerId = "6D2C0C40-443C-46D1-B6D4-3F78476E95FC";
name = Light;
width = 222;
},
{
components = (
{
name = exclam;
transform = "{-1, -0, 0, -1, 252, 478}";
}
);
layerId = "24BDA9C5-7BA7-4A63-82ED-F7EF9C664871";
name = Bold;
width = 252;
},
{
associatedMasterId = "FE64E73E-EA44-4B20-B2ED-18E4C3E872F4";
layerId = "5DAB4074-2411-452B-9DDF-76BDE0701090";
name = "new Layer";
width = 600;
}
);
unicode = 00A1;
},
{
glyphname = numbersign;
lastChange = "2012-11-27 07:05:40 +0000";
layers = (
{
layerId = "FE64E73E-EA44-4B20-B2ED-18E4C3E872F4";
name = Regular;
paths = (
{
closed = 1;
nodes = (
"424 682 LINE",
"367 682 LINE",
"216 -20 LINE",
"273 -20 LINE"
);
},
{
closed = 1;
nodes = (
"280 682 LINE",
"223 682 LINE",
"72 -20 LINE",
"129 -20 LINE"
);
},
{
closed = 1;
nodes = (
"319 264 LINE",
"309 264 LINE",
"173 264 LINE",
"165 264 LINE",
"48 264 LINE",
"48 216 LINE",
"413 216 LINE",
"413 264 LINE"
);
},
{
closed = 1;
nodes = (
"83 446 LINE",
"83 398 LINE",
"189 398 LINE",
"204 398 LINE",
"331 398 LINE",
"341 398 LINE",
"448 398 LINE",
"448 446 LINE"
);
}
);
width = 490;
},
{
layerId = "6D2C0C40-443C-46D1-B6D4-3F78476E95FC";
name = Light;
paths = (
{
closed = 1;
nodes = (
"388 682 LINE",
"359 682 LINE",
"208 -20 LINE",
"237 -20 LINE"
);
},
{
closed = 1;
nodes = (
"255 682 LINE",
"226 682 LINE",
"75 -20 LINE",
"104 -20 LINE"
);
},
{
closed = 1;
nodes = (
"288 254 LINE",
"283 254 LINE",
"154 254 LINE",
"148 254 LINE",
"40 254 LINE",
"40 226 LINE",
"393 226 LINE",
"393 254 LINE"
);
},
{
closed = 1;
nodes = (
"75 436 LINE",
"75 408 LINE",
"181 408 LINE",
"189 408 LINE",
"308 408 LINE",
"317 408 LINE",
"428 408 LINE",
"428 436 LINE"
);
}
);
width = 456;
},
{
layerId = "24BDA9C5-7BA7-4A63-82ED-F7EF9C664871";
name = Bold;
paths = (
{
closed = 1;
nodes = (
"455 682 LINE",
"364 682 LINE",
"227 -20 LINE",
"321 -20 LINE"
);
},
{
closed = 1;
nodes = (
"302 682 LINE",
"210 682 LINE",
"73 -20 LINE",
"167 -20 LINE"
);
},
{
closed = 1;
nodes = (
"360 264 LINE",
"359.595 262 LINE",
"214.595 262 LINE",
"215 264 LINE",
"40 264 LINE",
"40 180 LINE",
"449 180 LINE",
"449 264 LINE"
);
},
{
closed = 1;
nodes = (
"75 482 LINE",
"75 398 LINE",
"238 398 LINE",
"238.381 400 LINE",
"385.405 400 LINE",
"385 398 LINE",
"484 398 LINE",
"484 482 LINE"
);
}
);
width = 522;
},
{
associatedMasterId = "24BDA9C5-7BA7-4A63-82ED-F7EF9C664871";
layerId = "2192FAD3-CDBB-48C2-9549-E1EEDB0929DA";
name = "Bold Sep 16 12, 19:50";
paths = (
{
closed = 1;
nodes = (
"306 682 LINE",
"207 682 LINE",
"76 -20 LINE",
"175 -20 LINE"
);
},
{
closed = 1;
nodes = (
"222 -20 LINE",
"321 -20 LINE",
"452 682 LINE",
"353 682 LINE"
);
},
{
closed = 1;
nodes = (
"39 264 LINE",
"39 180 LINE",
"448 180 LINE",
"448 264 LINE"
);
},
{
closed = 1;
nodes = (
"74 482 LINE",
"74 398 LINE",
"483 398 LINE",
"483 482 LINE"
);
}
);
width = 522;
}
);
unicode = 0023;
},
{
glyphname = period;
lastChange = "2012-11-27 07:05:40 +0000";
layers = (
{
layerId = "FE64E73E-EA44-4B20-B2ED-18E4C3E872F4";
name = Regular;
paths = (
{
closed = 1;
nodes = (
"68 110 OFFCURVE",
"41 83 OFFCURVE",
"41 50 CURVE SMOOTH",
"41 17 OFFCURVE",
"68 -10 OFFCURVE",
"101 -10 CURVE SMOOTH",
"134 -10 OFFCURVE",
"161 17 OFFCURVE",
"161 50 CURVE SMOOTH",
"161 83 OFFCURVE",
"134 110 OFFCURVE",
"101 110 CURVE SMOOTH"
);
}
);
width = 224;
},
{
layerId = "6D2C0C40-443C-46D1-B6D4-3F78476E95FC";
name = Light;
paths = (
{
closed = 1;
nodes = (
"70 60 OFFCURVE",
"55 45 OFFCURVE",
"55 27 CURVE SMOOTH",
"55 9 OFFCURVE",
"70 -6 OFFCURVE",
"88 -6 CURVE SMOOTH",
"106 -6 OFFCURVE",
"121 9 OFFCURVE",
"121 27 CURVE SMOOTH",
"121 45 OFFCURVE",
"106 60 OFFCURVE",
"88 60 CURVE SMOOTH"
);
}
);
width = 193;
},
{
layerId = "24BDA9C5-7BA7-4A63-82ED-F7EF9C664871";
name = Bold;
paths = (
{
closed = 1;
nodes = (
"108 142 OFFCURVE",
"74 108 OFFCURVE",
"74 66 CURVE SMOOTH",
"74 24 OFFCURVE",
"108 -10 OFFCURVE",
"150 -10 CURVE SMOOTH",
"192 -10 OFFCURVE",
"226 24 OFFCURVE",
"226 66 CURVE SMOOTH",
"226 108 OFFCURVE",
"192 142 OFFCURVE",
"150 142 CURVE SMOOTH"
);
}
);
width = 309;
}
);
unicode = 002E;
},
{
glyphname = question;
lastChange = "2012-11-27 07:05:40 +0000";
layers = (
{
layerId = "FE64E73E-EA44-4B20-B2ED-18E4C3E872F4";
name = Regular;
paths = (
{
closed = 1;
nodes = (
"135 698 OFFCURVE",
"69 680 OFFCURVE",
"35 653 CURVE",
"39 579 LINE",
"75 608 OFFCURVE",
"137 626 OFFCURVE",
"179 626 CURVE SMOOTH",
"251 626 OFFCURVE",
"289 590 OFFCURVE",
"289 530 CURVE SMOOTH",
"289 486 OFFCURVE",
"272 445 OFFCURVE",
"197 359 CURVE SMOOTH",
"134 287 OFFCURVE",
"125 229 OFFCURVE",
"125 170 CURVE",
"214 170 LINE",
"214 237 OFFCURVE",
"225 277 OFFCURVE",
"271 330 CURVE SMOOTH",
"345 414 OFFCURVE",
"381 472 OFFCURVE",
"381 542 CURVE SMOOTH",
"381 641 OFFCURVE",
"312 698 OFFCURVE",
"194 698 CURVE SMOOTH"
);
},
{
closed = 1;
nodes = (
"140 110 OFFCURVE",
"113 83 OFFCURVE",
"113 50 CURVE SMOOTH",
"113 17 OFFCURVE",
"140 -10 OFFCURVE",
"173 -10 CURVE SMOOTH",
"206 -10 OFFCURVE",
"233 17 OFFCURVE",
"233 50 CURVE SMOOTH",
"233 83 OFFCURVE",
"206 110 OFFCURVE",
"173 110 CURVE SMOOTH"
);
}
);
width = 415;
},
{
layerId = "6D2C0C40-443C-46D1-B6D4-3F78476E95FC";
name = Light;
paths = (
{
closed = 1;
nodes = (
"107 698 OFFCURVE",
"56 680 OFFCURVE",
"22 653 CURVE",
"26 619 LINE",
"62 648 OFFCURVE",
"115 666 OFFCURVE",
"159 666 CURVE SMOOTH",
"231 666 OFFCURVE",
"294 631 OFFCURVE",
"294 554 CURVE SMOOTH",
"294 505 OFFCURVE",
"271 459 OFFCURVE",
"187 333 CURVE SMOOTH",
"141 264 OFFCURVE",
"123 200 OFFCURVE",
"121 130 CURVE",
"153 130 LINE",
"155 193 OFFCURVE",
"176 260 OFFCURVE",
"213 314 CURVE SMOOTH",
"300 441 OFFCURVE",
"330 497 OFFCURVE",
"330 556 CURVE SMOOTH",
"330 652 OFFCURVE",
"245 698 OFFCURVE",
"165 698 CURVE SMOOTH"
);
},
{
closed = 1;
nodes = (
"121 60 OFFCURVE",
"106 45 OFFCURVE",
"106 27 CURVE SMOOTH",
"106 9 OFFCURVE",
"121 -6 OFFCURVE",
"139 -6 CURVE SMOOTH",
"157 -6 OFFCURVE",
"172 9 OFFCURVE",
"172 27 CURVE SMOOTH",
"172 45 OFFCURVE",
"157 60 OFFCURVE",
"139 60 CURVE SMOOTH"
);
}
);
width = 374;
},
{
layerId = "24BDA9C5-7BA7-4A63-82ED-F7EF9C664871";
name = Bold;
paths = (
{
closed = 1;
nodes = (
"148 698 OFFCURVE",
"86 679 OFFCURVE",
"46 650 CURVE",
"50 537 LINE",
"85 567 OFFCURVE",
"131 586 OFFCURVE",
"181 586 CURVE SMOOTH",
"239 586 OFFCURVE",
"274 556 OFFCURVE",
"274 517 CURVE SMOOTH",
"274 474 OFFCURVE",
"260 445 OFFCURVE",
"191 359 CURVE SMOOTH",
"141 297 OFFCURVE",
"126 258 OFFCURVE",
"124 200 CURVE",
"257 200 LINE",
"260 248 OFFCURVE",
"279 284 OFFCURVE",
"317 330 CURVE SMOOTH",
"388 415 OFFCURVE",
"418 461 OFFCURVE",
"418 531 CURVE SMOOTH",
"418 629 OFFCURVE",
"333 698 OFFCURVE",
"214 698 CURVE SMOOTH"
);
},
{
closed = 1;
nodes = (
"149 142 OFFCURVE",
"115 108 OFFCURVE",
"115 66 CURVE SMOOTH",
"115 24 OFFCURVE",
"149 -10 OFFCURVE",
"191 -10 CURVE SMOOTH",
"233 -10 OFFCURVE",
"267 24 OFFCURVE",
"267 66 CURVE SMOOTH",
"267 108 OFFCURVE",
"233 142 OFFCURVE",
"191 142 CURVE SMOOTH"
);
}
);
width = 446;
}
);
unicode = 003F;
},
{
glyphname = questiondown;
lastChange = "2012-11-27 07:05:40 +0000";
layers = (
{
layerId = "FE64E73E-EA44-4B20-B2ED-18E4C3E872F4";
name = Regular;
paths = (
{
closed = 1;
nodes = (
"201 312 LINE",
"201 245 OFFCURVE",
"190 205 OFFCURVE",
"144 152 CURVE SMOOTH",
"70 68 OFFCURVE",
"34 18 OFFCURVE",
"34 -52 CURVE SMOOTH",
"34 -151 OFFCURVE",
"110 -216 OFFCURVE",
"228 -216 CURVE SMOOTH",
"287 -216 OFFCURVE",
"346 -198 OFFCURVE",
"380 -171 CURVE",
"376 -97 LINE",
"340 -126 OFFCURVE",
"285 -144 OFFCURVE",
"243 -144 CURVE SMOOTH",
"171 -144 OFFCURVE",
"126 -108 OFFCURVE",
"126 -48 CURVE SMOOTH",
"126 -4 OFFCURVE",
"143 37 OFFCURVE",
"218 123 CURVE SMOOTH",
"264 176 OFFCURVE",
"285 223 OFFCURVE",
"285 276 CURVE SMOOTH",
"285 290 OFFCURVE",
"285 297 OFFCURVE",
"283 312 CURVE"
);
},
{
closed = 1;
nodes = (
"209 488 OFFCURVE",
"182 461 OFFCURVE",
"182 428 CURVE SMOOTH",
"182 395 OFFCURVE",
"209 368 OFFCURVE",
"242 368 CURVE SMOOTH",
"275 368 OFFCURVE",
"302 395 OFFCURVE",
"302 428 CURVE SMOOTH",
"302 461 OFFCURVE",
"275 488 OFFCURVE",
"242 488 CURVE SMOOTH"
);
}
);
width = 404;
},
{
components = (
{
name = question;
transform = "{-1, 0, -0, -1, 374, 482}";
}
);
layerId = "6D2C0C40-443C-46D1-B6D4-3F78476E95FC";
name = Light;
width = 374;
},
{
components = (
{
name = question;
transform = "{-1, -0, 0, -1, 446, 478}";
}
);
layerId = "24BDA9C5-7BA7-4A63-82ED-F7EF9C664871";
name = Bold;
width = 418;
}
);
unicode = 00BF;
},
{
glyphname = quotesingle;
lastChange = "2012-11-27 07:05:40 +0000";
layers = (
{
layerId = "FE64E73E-EA44-4B20-B2ED-18E4C3E872F4";
name = Regular;
paths = (
{
closed = 1;
nodes = (
"55 735 LINE",
"63 466 LINE",
"117 466 LINE",
"135 735 LINE"
);
}
);
width = 190;
},
{
layerId = "6D2C0C40-443C-46D1-B6D4-3F78476E95FC";
name = Light;
paths = (
{
closed = 1;
nodes = (
"73 735 LINE",
"77 467 LINE",
"99 467 LINE",
"110 735 LINE"
);
}
);
width = 187;
},
{
layerId = "24BDA9C5-7BA7-4A63-82ED-F7EF9C664871";
name = Bold;
paths = (
{
closed = 1;
nodes = (
"55 735 LINE",
"63 446 LINE",
"148 446 LINE",
"166 735 LINE"
);
}
);
width = 225;
}
);
unicode = 0027;
},
{
glyphname = semicolon;
lastChange = "2012-11-27 07:05:40 +0000";
layers = (
{
layerId = "FE64E73E-EA44-4B20-B2ED-18E4C3E872F4";
name = Regular;
paths = (
{
closed = 1;
nodes = (
"51 101 LINE",
"-23 -147 LINE",
"42 -142 LINE",
"149 105 LINE"
);
},
{
closed = 1;
nodes = (
"68 488 OFFCURVE",
"41 461 OFFCURVE",
"41 428 CURVE",
"41 395 OFFCURVE",
"68 368 OFFCURVE",
"101 368 CURVE SMOOTH",
"134 368 OFFCURVE",
"161 395 OFFCURVE",
"161 428 CURVE SMOOTH",
"161 461 OFFCURVE",
"134 488 OFFCURVE",
"101 488 CURVE SMOOTH"
);
}
);
width = 224;
},
{
layerId = "6D2C0C40-443C-46D1-B6D4-3F78476E95FC";
name = Light;
paths = (
{
closed = 1;
nodes = (
"68 103 LINE",
"-27 -147 LINE",
"2 -142 LINE",
"109 105 LINE"
);
},
{
closed = 1;
nodes = (
"70 488 OFFCURVE",
"55 473 OFFCURVE",
"55 455 CURVE SMOOTH",
"55 437 OFFCURVE",
"70 422 OFFCURVE",
"88 422 CURVE SMOOTH",
"106 422 OFFCURVE",
"121 437 OFFCURVE",
"121 455 CURVE SMOOTH",
"121 473 OFFCURVE",
"106 488 OFFCURVE",
"88 488 CURVE SMOOTH"
);
}
);
width = 193;
},
{
layerId = "24BDA9C5-7BA7-4A63-82ED-F7EF9C664871";
name = Bold;
paths = (
{
closed = 1;
nodes = (
"83 131 LINE",
"8 -147 LINE",
"98 -142 LINE",
"211 132 LINE"
);
},
{
closed = 1;
nodes = (
"108 488 OFFCURVE",
"74 454 OFFCURVE",
"74 412 CURVE SMOOTH",
"74 370 OFFCURVE",
"107 336 OFFCURVE",
"150 336 CURVE SMOOTH",
"192 336 OFFCURVE",
"226 370 OFFCURVE",
"226 412 CURVE SMOOTH",
"226 454 OFFCURVE",
"192 488 OFFCURVE",
"150 488 CURVE SMOOTH"
);
}
);
width = 309;
}
);
unicode = 003B;
},
{
glyphname = slash;
lastChange = "2012-11-27 07:05:40 +0000";
layers = (
{
layerId = "FE64E73E-EA44-4B20-B2ED-18E4C3E872F4";
name = Regular;
paths = (
{
closed = 1;
nodes = (
"337 749 LINE",
"-5 -97 LINE",
"55 -97 LINE",
"398 749 LINE"
);
}
);
width = 393;
},
{
layerId = "6D2C0C40-443C-46D1-B6D4-3F78476E95FC";
name = Light;
paths = (
{
closed = 1;
nodes = (
"347 749 LINE",
"5 -97 LINE",
"37 -97 LINE",
"380 749 LINE"
);
}
);
width = 385;
},
{
layerId = "24BDA9C5-7BA7-4A63-82ED-F7EF9C664871";
name = Bold;
paths = (
{
closed = 1;
nodes = (
"327 749 LINE",
"-15 -97 LINE",
"86 -97 LINE",
"429 749 LINE"
);
}
);
width = 414;
}
);
unicode = 002F;
},
{
glyphname = underscore;
lastChange = "2012-11-27 07:05:40 +0000";
layers = (
{
layerId = "FE64E73E-EA44-4B20-B2ED-18E4C3E872F4";
name = Regular;
paths = (
{
closed = 1;
nodes = (
"0 -38 LINE",
"0 -86 LINE",
"500 -86 LINE",
"500 -38 LINE"
);
}
);
width = 500;
},
{
layerId = "6D2C0C40-443C-46D1-B6D4-3F78476E95FC";
name = Light;
paths = (
{
closed = 1;
nodes = (
"0 -38 LINE",
"0 -66 LINE",
"500 -66 LINE",
"500 -38 LINE"
);
}
);
width = 500;
},
{
layerId = "24BDA9C5-7BA7-4A63-82ED-F7EF9C664871";
name = Bold;
paths = (
{
closed = 1;
nodes = (
"0 -49 LINE",
"0 -133 LINE",
"500 -133 LINE",
"500 -49 LINE"
);
}
);
width = 500;
}
);
unicode = 005F;
},
{
glyphname = braceleft;
lastChange = "2012-11-27 07:05:40 +0000";
layers = (
{
layerId = "FE64E73E-EA44-4B20-B2ED-18E4C3E872F4";
name = Regular;
paths = (
{
closed = 1;
nodes = (
"167 754 OFFCURVE",
"123 711 OFFCURVE",
"133 586 CURVE SMOOTH",
"146 435 LINE SMOOTH",
"151 369 OFFCURVE",
"132 350 OFFCURVE",
"75 350 CURVE",
"75 302 LINE",
"132 302 OFFCURVE",
"151 283 OFFCURVE",
"146 217 CURVE SMOOTH",
"133 66 LINE SMOOTH",
"123 -59 OFFCURVE",
"167 -102 OFFCURVE",
"274 -102 CURVE",
"274 -54 LINE",
"205 -54 OFFCURVE",
"182 -31 OFFCURVE",
"188 44 CURVE SMOOTH",
"204 229 LINE SMOOTH",
"209 287 OFFCURVE",
"188 320 OFFCURVE",
"139 329 CURVE",
"184 337 OFFCURVE",
"209 368 OFFCURVE",
"204 423 CURVE SMOOTH",
"187 608 LINE SMOOTH",
"180 683 OFFCURVE",
"205 706 OFFCURVE",
"274 706 CURVE",
"274 754 LINE"
);
}
);
width = 351;
},
{
layerId = "6D2C0C40-443C-46D1-B6D4-3F78476E95FC";
name = Light;
paths = (
{
closed = 1;
nodes = (
"199 754 OFFCURVE",
"170 711 OFFCURVE",
"180 586 CURVE SMOOTH",
"192 430 LINE SMOOTH",
"197 364 OFFCURVE",
"179 343 OFFCURVE",
"122 343 CURVE",
"122 309 LINE",
"179 309 OFFCURVE",
"200 288 OFFCURVE",
"194 222 CURVE SMOOTH",
"180 66 LINE SMOOTH",
"169 -59 OFFCURVE",
"199 -102 OFFCURVE",
"296 -102 CURVE",
"296 -74 LINE",
"227 -74 OFFCURVE",
"202 -40 OFFCURVE",
"208 35 CURVE SMOOTH",
"224 229 LINE SMOOTH",
"229 287 OFFCURVE",
"218 316 OFFCURVE",
"169 327 CURVE",
"214 337 OFFCURVE",
"228 368 OFFCURVE",
"224 423 CURVE SMOOTH",
"208 619 LINE SMOOTH",
"202 694 OFFCURVE",
"227 726 OFFCURVE",
"296 726 CURVE",
"296 754 LINE"
);
}
);
width = 397;
},
{
layerId = "24BDA9C5-7BA7-4A63-82ED-F7EF9C664871";
name = Bold;
paths = (
{
closed = 1;
nodes = (
"219 754 OFFCURVE",
"136 721 OFFCURVE",
"149 586 CURVE SMOOTH",
"162 455 LINE SMOOTH",
"169 389 OFFCURVE",
"148 370 OFFCURVE",
"91 370 CURVE",
"91 282 LINE",
"148 282 OFFCURVE",
"169 263 OFFCURVE",
"162 197 CURVE SMOOTH",
"149 66 LINE SMOOTH",
"136 -69 OFFCURVE",
"219 -102 OFFCURVE",
"336 -102 CURVE",
"336 -18 LINE",
"277 -18 OFFCURVE",
"238 5 OFFCURVE",
"245 80 CURVE SMOOTH",
"259 229 LINE SMOOTH",
"264 287 OFFCURVE",
"243 320 OFFCURVE",
"194 329 CURVE",
"239 337 OFFCURVE",
"265 368 OFFCURVE",
"259 423 CURVE SMOOTH",
"244 572 LINE SMOOTH",
"236 647 OFFCURVE",
"277 670 OFFCURVE",
"336 670 CURVE",
"336 754 LINE"
);
}
);
width = 403;
}
);
unicode = 007B;
},
{
glyphname = braceright;
lastChange = "2012-11-27 07:05:40 +0000";
layers = (
{
layerId = "FE64E73E-EA44-4B20-B2ED-18E4C3E872F4";
name = Regular;
paths = (
{
closed = 1;
nodes = (
"77 706 LINE",
"146 706 OFFCURVE",
"169 683 OFFCURVE",
"163 608 CURVE SMOOTH",
"147 423 LINE SMOOTH",
"142 365 OFFCURVE",
"163 332 OFFCURVE",
"212 323 CURVE",
"166 315 OFFCURVE",
"142 284 OFFCURVE",
"147 229 CURVE SMOOTH",
"163 44 LINE SMOOTH",
"169 -31 OFFCURVE",
"146 -54 OFFCURVE",
"77 -54 CURVE",
"77 -102 LINE",
"184 -102 OFFCURVE",
"228 -59 OFFCURVE",
"218 66 CURVE SMOOTH",
"205 217 LINE SMOOTH",
"200 283 OFFCURVE",
"219 302 OFFCURVE",
"276 302 CURVE",
"276 350 LINE",
"219 350 OFFCURVE",
"200 369 OFFCURVE",
"205 435 CURVE SMOOTH",
"218 586 LINE SMOOTH",
"228 711 OFFCURVE",
"184 754 OFFCURVE",
"77 754 CURVE"
);
}
);
width = 351;
},
{
layerId = "6D2C0C40-443C-46D1-B6D4-3F78476E95FC";
name = Light;
paths = (
{
closed = 1;
nodes = (
"101 726 LINE",
"170 726 OFFCURVE",
"195 692 OFFCURVE",
"189 617 CURVE SMOOTH",
"173 423 LINE SMOOTH",
"168 365 OFFCURVE",
"179 336 OFFCURVE",
"228 325 CURVE",
"183 315 OFFCURVE",
"169 284 OFFCURVE",
"173 229 CURVE SMOOTH",
"189 33 LINE SMOOTH",
"195 -42 OFFCURVE",
"170 -74 OFFCURVE",
"101 -74 CURVE",
"101 -102 LINE",
"198 -102 OFFCURVE",
"227 -59 OFFCURVE",
"217 66 CURVE SMOOTH",
"205 222 LINE SMOOTH",
"200 288 OFFCURVE",
"218 309 OFFCURVE",
"275 309 CURVE",
"275 343 LINE",
"218 343 OFFCURVE",
"197 364 OFFCURVE",
"203 430 CURVE SMOOTH",
"217 586 LINE SMOOTH",
"228 711 OFFCURVE",
"198 754 OFFCURVE",
"101 754 CURVE"
);
}
);
width = 397;
},
{
layerId = "24BDA9C5-7BA7-4A63-82ED-F7EF9C664871";
name = Bold;
paths = (
{
closed = 1;
nodes = (
"67 670 LINE",
"126 670 OFFCURVE",
"165 647 OFFCURVE",
"158 572 CURVE SMOOTH",
"144 423 LINE SMOOTH",
"139 365 OFFCURVE",
"160 332 OFFCURVE",
"209 323 CURVE",
"164 315 OFFCURVE",
"138 284 OFFCURVE",
"144 229 CURVE SMOOTH",
"159 80 LINE SMOOTH",
"167 5 OFFCURVE",
"126 -18 OFFCURVE",
"67 -18 CURVE",
"67 -102 LINE",
"184 -102 OFFCURVE",
"267 -69 OFFCURVE",
"254 66 CURVE SMOOTH",
"241 197 LINE SMOOTH",
"234 263 OFFCURVE",
"255 282 OFFCURVE",
"312 282 CURVE",
"312 370 LINE",
"255 370 OFFCURVE",
"234 389 OFFCURVE",
"241 455 CURVE SMOOTH",
"254 586 LINE SMOOTH",
"267 721 OFFCURVE",
"184 754 OFFCURVE",
"67 754 CURVE"
);
}
);
width = 403;
},
{
associatedMasterId = "FE64E73E-EA44-4B20-B2ED-18E4C3E872F4";
layerId = "5DAB4074-2411-452B-9DDF-76BDE0701090";
name = "new Layer";
width = 600;
}
);
unicode = 007D;
},
{
glyphname = bracketleft;
lastChange = "2012-11-27 07:05:40 +0000";
layers = (
{
layerId = "FE64E73E-EA44-4B20-B2ED-18E4C3E872F4";
name = Regular;
paths = (
{
closed = 1;
nodes = (
"100 749 LINE",
"100 -97 LINE",
"272 -97 LINE",
"272 -49 LINE",
"156 -49 LINE",
"156 701 LINE",
"272 701 LINE",
"272 749 LINE"
);
}
);
width = 350;
},
{
layerId = "6D2C0C40-443C-46D1-B6D4-3F78476E95FC";
name = Light;
paths = (
{
closed = 1;
nodes = (
"113 749 LINE",
"113 -97 LINE",
"259 -97 LINE",
"259 -69 LINE",
"143 -69 LINE",
"143 721 LINE",
"259 721 LINE",
"259 749 LINE"
);
}
);
width = 359;
},
{
layerId = "24BDA9C5-7BA7-4A63-82ED-F7EF9C664871";
name = Bold;
paths = (
{
closed = 1;
nodes = (
"110 749 LINE",
"110 -97 LINE",
"356 -97 LINE",
"356 -13 LINE",
"204 -13 LINE",
"204 665 LINE",
"356 665 LINE",
"356 749 LINE"
);
}
);
width = 423;
}
);
unicode = 005B;
},
{
glyphname = bracketright;
lastChange = "2012-11-27 07:05:40 +0000";
layers = (
{
layerId = "FE64E73E-EA44-4B20-B2ED-18E4C3E872F4";
name = Regular;
paths = (
{
closed = 1;
nodes = (
"78 749 LINE",
"78 701 LINE",
"194 701 LINE",
"194 -49 LINE",
"78 -49 LINE",
"78 -97 LINE",
"250 -97 LINE",
"250 749 LINE"
);
}
);
width = 350;
},
{
layerId = "6D2C0C40-443C-46D1-B6D4-3F78476E95FC";
name = Light;
paths = (
{
closed = 1;
nodes = (
"100 749 LINE",
"100 721 LINE",
"216 721 LINE",
"216 -69 LINE",
"100 -69 LINE",
"100 -97 LINE",
"246 -97 LINE",
"246 749 LINE"
);
}
);
width = 359;
},
{
layerId = "24BDA9C5-7BA7-4A63-82ED-F7EF9C664871";
name = Bold;
paths = (
{
closed = 1;
nodes = (
"67 749 LINE",
"67 665 LINE",
"219 665 LINE",
"219 -13 LINE",
"67 -13 LINE",
"67 -97 LINE",
"313 -97 LINE",
"313 749 LINE"
);
}
);
width = 423;
},
{
associatedMasterId = "FE64E73E-EA44-4B20-B2ED-18E4C3E872F4";
layerId = "5DAB4074-2411-452B-9DDF-76BDE0701090";
name = "new Layer";
width = 600;
}
);
unicode = 005D;
},
{
glyphname = parenleft;
lastChange = "2012-11-27 07:05:40 +0000";
layers = (
{
layerId = "FE64E73E-EA44-4B20-B2ED-18E4C3E872F4";
name = Regular;
paths = (
{
closed = 1;
nodes = (
"140 670 OFFCURVE",
"77 493 OFFCURVE",
"77 326 CURVE SMOOTH",
"77 159 OFFCURVE",
"140 -18 OFFCURVE",
"225 -108 CURVE",
"258 -86 LINE",
"184 21 OFFCURVE",
"138 152 OFFCURVE",
"138 326 CURVE SMOOTH",
"138 500 OFFCURVE",
"184 631 OFFCURVE",
"258 738 CURVE",
"225 760 LINE"
);
}
);
width = 290;
},
{
layerId = "6D2C0C40-443C-46D1-B6D4-3F78476E95FC";
name = Light;
paths = (
{
closed = 1;
nodes = (
"156 669 OFFCURVE",
"97 505 OFFCURVE",
"97 326 CURVE SMOOTH",
"97 147 OFFCURVE",
"156 -17 OFFCURVE",
"242 -107 CURVE",
"259 -94 LINE",
"185 10 OFFCURVE",
"131 132 OFFCURVE",
"131 326 CURVE SMOOTH",
"131 520 OFFCURVE",
"185 642 OFFCURVE",
"259 746 CURVE",
"242 759 LINE"
);
}
);
width = 355;
},
{
layerId = "24BDA9C5-7BA7-4A63-82ED-F7EF9C664871";
name = Bold;
paths = (
{
closed = 1;
nodes = (
"161 665 OFFCURVE",
"82 513 OFFCURVE",
"82 326 CURVE SMOOTH",
"82 139 OFFCURVE",
"161 -13 OFFCURVE",
"248 -103 CURVE",
"310 -59 LINE",
"236 48 OFFCURVE",
"186 164 OFFCURVE",
"186 326 CURVE SMOOTH",
"186 488 OFFCURVE",
"236 604 OFFCURVE",
"310 711 CURVE",
"248 755 LINE"
);
}
);
width = 367;
}
);
unicode = 0028;
},
{
glyphname = parenright;
lastChange = "2012-11-27 07:05:40 +0000";
layers = (
{
layerId = "FE64E73E-EA44-4B20-B2ED-18E4C3E872F4";
name = Regular;
paths = (
{
closed = 1;
nodes = (
"32 738 LINE",
"106 631 OFFCURVE",
"152 500 OFFCURVE",
"152 326 CURVE SMOOTH",
"152 152 OFFCURVE",
"106 21 OFFCURVE",
"32 -86 CURVE",
"65 -108 LINE",
"150 -18 OFFCURVE",
"213 159 OFFCURVE",
"213 326 CURVE SMOOTH",
"213 493 OFFCURVE",
"150 670 OFFCURVE",
"65 760 CURVE"
);
}
);
width = 290;
},
{
layerId = "6D2C0C40-443C-46D1-B6D4-3F78476E95FC";
name = Light;
paths = (
{
closed = 1;
nodes = (
"96 746 LINE",
"170 642 OFFCURVE",
"224 520 OFFCURVE",
"224 326 CURVE SMOOTH",
"224 132 OFFCURVE",
"170 10 OFFCURVE",
"96 -94 CURVE",
"113 -107 LINE",
"199 -17 OFFCURVE",
"258 147 OFFCURVE",
"258 326 CURVE SMOOTH",
"258 505 OFFCURVE",
"199 669 OFFCURVE",
"113 759 CURVE"
);
}
);
width = 355;
},
{
layerId = "24BDA9C5-7BA7-4A63-82ED-F7EF9C664871";
name = Bold;
paths = (
{
closed = 1;
nodes = (
"57 711 LINE",
"131 604 OFFCURVE",
"181 488 OFFCURVE",
"181 326 CURVE SMOOTH",
"181 164 OFFCURVE",
"131 48 OFFCURVE",
"57 -59 CURVE",
"119 -103 LINE",
"206 -13 OFFCURVE",
"285 139 OFFCURVE",
"285 326 CURVE SMOOTH",
"285 513 OFFCURVE",
"206 665 OFFCURVE",
"119 755 CURVE"
);
}
);
width = 366;
},
{
associatedMasterId = "FE64E73E-EA44-4B20-B2ED-18E4C3E872F4";
layerId = "5DAB4074-2411-452B-9DDF-76BDE0701090";
name = "new Layer";
width = 600;
}
);
unicode = 0029;
},
{
glyphname = emdash;
lastChange = "2012-11-27 07:05:40 +0000";
layers = (
{
layerId = "FE64E73E-EA44-4B20-B2ED-18E4C3E872F4";
name = Regular;
paths = (
{
closed = 1;
nodes = (
"56 294 LINE",
"56 246 LINE",
"944 246 LINE",
"944 294 LINE"
);
}
);
width = 1000;
},
{
layerId = "6D2C0C40-443C-46D1-B6D4-3F78476E95FC";
name = Light;
paths = (
{
closed = 1;
nodes = (
"56 284 LINE",
"56 256 LINE",
"944 256 LINE",
"944 284 LINE"
);
}
);
width = 1000;
},
{
layerId = "24BDA9C5-7BA7-4A63-82ED-F7EF9C664871";
name = Bold;
paths = (
{
closed = 1;
nodes = (
"56 312 LINE",
"56 228 LINE",
"944 228 LINE",
"944 312 LINE"
);
}
);
width = 1000;
}
);
unicode = 2014;
},
{
glyphname = endash;
lastChange = "2012-11-27 07:05:40 +0000";
layers = (
{
layerId = "FE64E73E-EA44-4B20-B2ED-18E4C3E872F4";
name = Regular;
paths = (
{
closed = 1;
nodes = (
"56 294 LINE",
"56 246 LINE",
"444 246 LINE",
"444 294 LINE"
);
}
);
width = 500;
},
{
layerId = "6D2C0C40-443C-46D1-B6D4-3F78476E95FC";
name = Light;
paths = (
{
closed = 1;
nodes = (
"56 284 LINE",
"56 256 LINE",
"444 256 LINE",
"444 284 LINE"
);
}
);
width = 500;
},
{
layerId = "24BDA9C5-7BA7-4A63-82ED-F7EF9C664871";
name = Bold;
paths = (
{
closed = 1;
nodes = (
"56 312 LINE",
"56 228 LINE",
"444 228 LINE",
"444 312 LINE"
);
}
);
width = 500;
}
);
unicode = 2013;
},
{
glyphname = hyphen;
lastChange = "2012-11-27 07:05:40 +0000";
layers = (
{
layerId = "FE64E73E-EA44-4B20-B2ED-18E4C3E872F4";
name = Regular;
paths = (
{
closed = 1;
nodes = (
"56 294 LINE",
"56 246 LINE",
"292 246 LINE",
"292 294 LINE"
);
}
);
width = 348;
},
{
layerId = "6D2C0C40-443C-46D1-B6D4-3F78476E95FC";
name = Light;
paths = (
{
closed = 1;
nodes = (
"56 284 LINE",
"56 256 LINE",
"292 256 LINE",
"292 284 LINE"
);
}
);
width = 348;
},
{
layerId = "24BDA9C5-7BA7-4A63-82ED-F7EF9C664871";
name = Bold;
paths = (
{
closed = 1;
nodes = (
"56 312 LINE",
"56 228 LINE",
"292 228 LINE",
"292 312 LINE"
);
}
);
width = 348;
}
);
unicode = 002D;
},
{
glyphname = guilsinglleft;
lastChange = "2012-11-27 07:05:40 +0000";
layers = (
{
layerId = "FE64E73E-EA44-4B20-B2ED-18E4C3E872F4";
name = Regular;
paths = (
{
closed = 1;
nodes = (
"164 421 LINE",
"45 252 LINE",
"164 83 LINE",
"236 83 LINE",
"117 252 LINE",
"236 421 LINE"
);
}
);
width = 286;
},
{
layerId = "6D2C0C40-443C-46D1-B6D4-3F78476E95FC";
name = Light;
paths = (
{
closed = 1;
nodes = (
"194 421 LINE",
"75 252 LINE",
"194 83 LINE",
"234 83 LINE",
"115 252 LINE",
"234 421 LINE"
);
}
);
width = 320;
},
{
layerId = "24BDA9C5-7BA7-4A63-82ED-F7EF9C664871";
name = Bold;
paths = (
{
closed = 1;
nodes = (
"185 421 LINE",
"66 252 LINE",
"185 83 LINE",
"300 83 LINE",
"181 252 LINE",
"300 421 LINE"
);
}
);
width = 346;
}
);
unicode = 2039;
},
{
glyphname = guilsinglright;
lastChange = "2012-11-27 07:05:40 +0000";
layers = (
{
layerId = "FE64E73E-EA44-4B20-B2ED-18E4C3E872F4";
name = Regular;
paths = (
{
closed = 1;
nodes = (
"50 421 LINE",
"169 252 LINE",
"50 83 LINE",
"122 83 LINE",
"241 252 LINE",
"122 421 LINE"
);
}
);
width = 286;
},
{
layerId = "6D2C0C40-443C-46D1-B6D4-3F78476E95FC";
name = Light;
paths = (
{
closed = 1;
nodes = (
"86 421 LINE",
"205 252 LINE",
"86 83 LINE",
"126 83 LINE",
"245 252 LINE",
"126 421 LINE"
);
}
);
width = 320;
},
{
layerId = "24BDA9C5-7BA7-4A63-82ED-F7EF9C664871";
name = Bold;
paths = (
{
closed = 1;
nodes = (
"46 421 LINE",
"165 252 LINE",
"46 83 LINE",
"161 83 LINE",
"280 252 LINE",
"161 421 LINE"
);
}
);
width = 346;
},
{
associatedMasterId = "FE64E73E-EA44-4B20-B2ED-18E4C3E872F4";
layerId = "5DAB4074-2411-452B-9DDF-76BDE0701090";
name = "new Layer";
width = 600;
}
);
unicode = 203A;
},
{
glyphname = quoteleft;
lastChange = "2012-11-27 07:05:40 +0000";
layers = (
{
layerId = "FE64E73E-EA44-4B20-B2ED-18E4C3E872F4";
name = Regular;
paths = (
{
closed = 1;
nodes = (
"137 730 LINE",
"20 463 LINE",
"100 467 LINE",
"194 735 LINE"
);
}
);
width = 212;
},
{
layerId = "6D2C0C40-443C-46D1-B6D4-3F78476E95FC";
name = Light;
paths = (
{
closed = 1;
nodes = (
"155 730 LINE",
"37 463 LINE",
"77 465 LINE",
"182 735 LINE"
);
}
);
width = 205;
},
{
layerId = "24BDA9C5-7BA7-4A63-82ED-F7EF9C664871";
name = Bold;
paths = (
{
closed = 1;
nodes = (
"147 730 LINE",
"24 446 LINE",
"148 451 LINE",
"233 735 LINE"
);
}
);
width = 248;
}
);
unicode = 2018;
},
{
glyphname = quoteright;
lastChange = "2012-11-27 07:05:40 +0000";
layers = (
{
layerId = "FE64E73E-EA44-4B20-B2ED-18E4C3E872F4";
name = Regular;
paths = (
{
closed = 1;
nodes = (
"121 731 LINE",
"27 463 LINE",
"84 468 LINE",
"201 735 LINE"
);
}
);
width = 217;
},
{
layerId = "6D2C0C40-443C-46D1-B6D4-3F78476E95FC";
name = Light;
paths = (
{
closed = 1;
nodes = (
"142 733 LINE",
"37 463 LINE",
"64 468 LINE",
"182 735 LINE"
);
}
);
width = 214;
},
{
layerId = "24BDA9C5-7BA7-4A63-82ED-F7EF9C664871";
name = Bold;
paths = (
{
closed = 1;
nodes = (
"104 730 LINE",
"19 446 LINE",
"105 451 LINE",
"228 735 LINE"
);
}
);
width = 254;
}
);
unicode = 2019;
},
{
glyphname = dollar;
lastChange = "2012-11-27 07:05:40 +0000";
layers = (
{
layerId = "FE64E73E-EA44-4B20-B2ED-18E4C3E872F4";
name = Regular;
paths = (
{
closed = 1;
nodes = (
"166 632 OFFCURVE",
"85 579 OFFCURVE",
"85 471 CURVE SMOOTH",
"85 381 OFFCURVE",
"144 341 OFFCURVE",
"237 302 CURVE SMOOTH",
"309 272 OFFCURVE",
"332 246 OFFCURVE",
"332 192 CURVE SMOOTH",
"332 144 OFFCURVE",
"293 102 OFFCURVE",
"225 102 CURVE SMOOTH",
"178 102 OFFCURVE",
"127 114 OFFCURVE",
"74 147 CURVE",
"62 70 LINE",
"113 42 OFFCURVE",
"164 30 OFFCURVE",
"221 30 CURVE SMOOTH",
"342 30 OFFCURVE",
"422 107 OFFCURVE",
"422 201 CURVE SMOOTH",
"422 286 OFFCURVE",
"383 333 OFFCURVE",
"277 376 CURVE SMOOTH",
"200 407 OFFCURVE",
"172 430 OFFCURVE",
"172 484 CURVE SMOOTH",
"172 531 OFFCURVE",
"216 560 OFFCURVE",
"274 560 CURVE SMOOTH",
"326 560 OFFCURVE",
"374 544 OFFCURVE",
"406 522 CURVE",
"417 597 LINE",
"388 617 OFFCURVE",
"332 632 OFFCURVE",
"274 632 CURVE SMOOTH"
);
},
{
closed = 1;
nodes = (
"218 88 LINE",
"218 -46 LINE",
"274 -46 LINE",
"274 88 LINE"
);
},
{
closed = 1;
nodes = (
"225 708 LINE",
"225 574 LINE",
"281 574 LINE",
"281 708 LINE"
);
}
);
width = 490;
},
{
layerId = "6D2C0C40-443C-46D1-B6D4-3F78476E95FC";
name = Light;
paths = (
{
closed = 1;
nodes = (
"173 632 OFFCURVE",
"88 582 OFFCURVE",
"88 486 CURVE SMOOTH",
"88 414 OFFCURVE",
"135 366 OFFCURVE",
"228 323 CURVE SMOOTH",
"318 281 OFFCURVE",
"353 251 OFFCURVE",
"353 183 CURVE SMOOTH",
"353 116 OFFCURVE",
"300 59 OFFCURVE",
"225 59 CURVE SMOOTH",
"175 59 OFFCURVE",
"125 69 OFFCURVE",
"75 101 CURVE",
"72 69 LINE",
"116 41 OFFCURVE",
"167 30 OFFCURVE",
"223 30 CURVE SMOOTH",
"301 30 OFFCURVE",
"387 87 OFFCURVE",
"387 191 CURVE SMOOTH",
"387 265 OFFCURVE",
"339 307 OFFCURVE",
"239 354 CURVE SMOOTH",
"162 390 OFFCURVE",
"122 426 OFFCURVE",
"122 495 CURVE SMOOTH",
"122 555 OFFCURVE",
"180 603 OFFCURVE",
"242 603 CURVE SMOOTH",
"294 603 OFFCURVE",
"336 588 OFFCURVE",
"371 564 CURVE",
"376 597 LINE",
"344 619 OFFCURVE",
"298 632 OFFCURVE",
"240 632 CURVE SMOOTH"
);
},
{
closed = 1;
nodes = (
"214 48 LINE",
"214 -46 LINE",
"244 -46 LINE",
"244 48 LINE"
);
},
{
closed = 1;
nodes = (
"224 708 LINE",
"224 614 LINE",
"254 614 LINE",
"254 708 LINE"
);
}
);
width = 456;
},
{
layerId = "24BDA9C5-7BA7-4A63-82ED-F7EF9C664871";
name = Bold;
paths = (
{
closed = 1;
nodes = (
"174 632 OFFCURVE",
"69 575 OFFCURVE",
"69 457 CURVE SMOOTH",
"69 367 OFFCURVE",
"124 318 OFFCURVE",
"218 288 CURVE SMOOTH",
"290 265 OFFCURVE",
"312 241 OFFCURVE",
"312 204 CURVE SMOOTH",
"312 165 OFFCURVE",
"273 137 OFFCURVE",
"217 137 CURVE SMOOTH",
"170 137 OFFCURVE",
"121 146 OFFCURVE",
"65 169 CURVE",
"50 58 LINE",
"104 38 OFFCURVE",
"160 30 OFFCURVE",
"213 30 CURVE SMOOTH",
"339 30 OFFCURVE",
"451 104 OFFCURVE",
"451 220 CURVE SMOOTH",
"451 301 OFFCURVE",
"409 352 OFFCURVE",
"312 381 CURVE SMOOTH",
"235 404 OFFCURVE",
"208 428 OFFCURVE",
"208 464 CURVE SMOOTH",
"208 503 OFFCURVE",
"241 525 OFFCURVE",
"293 525 CURVE SMOOTH",
"345 525 OFFCURVE",
"392 509 OFFCURVE",
"424 484 CURVE",
"438 594 LINE",
"407 616 OFFCURVE",
"349 632 OFFCURVE",
"282 632 CURVE SMOOTH"
);
},
{
closed = 1;
nodes = (
"206 88 LINE",
"206 -46 LINE",
"300 -46 LINE",
"300 88 LINE"
);
},
{
closed = 1;
nodes = (
"211 708 LINE",
"211 574 LINE",
"305 574 LINE",
"305 708 LINE"
);
}
);
width = 522;
}
);
unicode = 0024;
},
{
glyphname = euro;
lastChange = "2012-11-27 07:05:40 +0000";
layers = (
{
layerId = "FE64E73E-EA44-4B20-B2ED-18E4C3E872F4";
name = Regular;
paths = (
{
closed = 1;
nodes = (
"195 672 OFFCURVE",
"108 575 OFFCURVE",
"89 408 CURVE",
"65 408 LINE",
"61 354 LINE",
"85 354 LINE",
"84 337 OFFCURVE",
"84 304 OFFCURVE",
"85 286 CURVE",
"57 286 LINE",
"53 232 LINE",
"89 232 LINE",
"106 79 OFFCURVE",
"188 -10 OFFCURVE",
"333 -10 CURVE SMOOTH",
"391 -10 OFFCURVE",
"427 -1 OFFCURVE",
"464 24 CURVE",
"457 98 LINE",
"430 77 OFFCURVE",
"392 62 OFFCURVE",
"345 62 CURVE SMOOTH",
"244 62 OFFCURVE",
"196 123 OFFCURVE",
"181 232 CURVE",
"369 232 LINE",
"373 286 LINE",
"175 286 LINE",
"174 305 OFFCURVE",
"174 339 OFFCURVE",
"175 354 CURVE",
"379 354 LINE",
"384 408 LINE",
"178 408 LINE",
"191 533 OFFCURVE",
"243 600 OFFCURVE",
"348 600 CURVE SMOOTH",
"393 600 OFFCURVE",
"433 591 OFFCURVE",
"462 566 CURVE",
"468 643 LINE",
"447 660 OFFCURVE",
"406 672 OFFCURVE",
"353 672 CURVE SMOOTH"
);
}
);
width = 490;
},
{
layerId = "6D2C0C40-443C-46D1-B6D4-3F78476E95FC";
name = Light;
paths = (
{
closed = 1;
nodes = (
"188 672 OFFCURVE",
"109 564 OFFCURVE",
"93 392 CURVE",
"71 392 LINE",
"67 364 LINE",
"91 364 LINE",
"89 342 OFFCURVE",
"89 298 OFFCURVE",
"90 276 CURVE",
"58 276 LINE",
"54 248 LINE",
"93 248 LINE",
"106 86 OFFCURVE",
"184 -10 OFFCURVE",
"303 -10 CURVE SMOOTH",
"359 -10 OFFCURVE",
"391 -2 OFFCURVE",
"428 22 CURVE",
"423 55 LINE",
"396 35 OFFCURVE",
"357 22 OFFCURVE",
"312 22 CURVE SMOOTH",
"215 22 OFFCURVE",
"142 85 OFFCURVE",
"125 248 CURVE",
"314 248 LINE",
"318 276 LINE",
"123 276 LINE",
"122 299 OFFCURVE",
"122 344 OFFCURVE",
"124 364 CURVE",
"330 364 LINE",
"335 392 LINE",
"127 392 LINE",
"140 533 OFFCURVE",
"201 640 OFFCURVE",
"320 640 CURVE SMOOTH",
"365 640 OFFCURVE",
"399 631 OFFCURVE",
"428 609 CURVE",
"432 644 LINE",
"411 660 OFFCURVE",
"374 672 OFFCURVE",
"321 672 CURVE SMOOTH"
);
}
);
width = 456;
},
{
layerId = "24BDA9C5-7BA7-4A63-82ED-F7EF9C664871";
name = Bold;
paths = (
{
closed = 1;
nodes = (
"234 672 OFFCURVE",
"102 607 OFFCURVE",
"72 440 CURVE",
"45 440 LINE",
"38 356 LINE",
"64 356 LINE",
"62 339 OFFCURVE",
"62 306 OFFCURVE",
"64 288 CURVE",
"31 288 LINE",
"25 204 LINE",
"75 204 LINE",
"102 51 OFFCURVE",
"204 -10 OFFCURVE",
"346 -10 CURVE SMOOTH",
"404 -10 OFFCURVE",
"457 -1 OFFCURVE",
"497 22 CURVE",
"490 134 LINE",
"460 115 OFFCURVE",
"415 102 OFFCURVE",
"368 102 CURVE SMOOTH",
"282 102 OFFCURVE",
"227 127 OFFCURVE",
"212 204 CURVE",
"397 204 LINE",
"404 288 LINE",
"203 288 LINE",
"201 307 OFFCURVE",
"201 341 OFFCURVE",
"203 356 CURVE",
"411 356 LINE",
"419 440 LINE",
"214 440 LINE",
"236 516 OFFCURVE",
"273 560 OFFCURVE",
"378 560 CURVE SMOOTH",
"423 560 OFFCURVE",
"463 554 OFFCURVE",
"495 531 CURVE",
"501 646 LINE",
"477 661 OFFCURVE",
"429 672 OFFCURVE",
"376 672 CURVE SMOOTH"
);
}
);
width = 522;
}
);
unicode = 20AC;
},
{
glyphname = sterling;
lastChange = "2012-11-27 07:05:40 +0000";
layers = (
{
layerId = "FE64E73E-EA44-4B20-B2ED-18E4C3E872F4";
name = Regular;
paths = (
{
closed = 1;
nodes = (
"59 359 LINE",
"59 303 LINE",
"403 303 LINE",
"403 359 LINE"
);
},
{
closed = 1;
nodes = (
"441 73 LINE",
"164 73 LINE",
"226 105 OFFCURVE",
"257 148 OFFCURVE",
"257 236 CURVE SMOOTH",
"257 255 OFFCURVE",
"252 289 OFFCURVE",
"247 304 CURVE",
"240 333 LINE",
"226 378 OFFCURVE",
"218 425 OFFCURVE",
"218 457 CURVE SMOOTH",
"218 550 OFFCURVE",
"264 600 OFFCURVE",
"344 600 CURVE SMOOTH",
"385 600 OFFCURVE",
"418 590 OFFCURVE",
"447 570 CURVE",
"452 645 LINE",
"429 659 OFFCURVE",
"392 672 OFFCURVE",
"344 672 CURVE SMOOTH",
"220 672 OFFCURVE",
"138 594 OFFCURVE",
"138 453 CURVE SMOOTH",
"138 429 OFFCURVE",
"147 369 OFFCURVE",
"159 336 CURVE",
"165 306 LINE",
"175 285 OFFCURVE",
"178 259 OFFCURVE",
"178 234 CURVE SMOOTH",
"178 126 OFFCURVE",
"111 90 OFFCURVE",
"64 65 CURVE",
"64 1 LINE",
"441 1 LINE"
);
}
);
width = 480;
},
{
layerId = "6D2C0C40-443C-46D1-B6D4-3F78476E95FC";
name = Light;
paths = (
{
closed = 1;
nodes = (
"69 335 LINE",
"69 307 LINE",
"403 307 LINE",
"403 335 LINE"
);
},
{
closed = 1;
nodes = (
"441 33 LINE",
"134 33 LINE",
"191 62 OFFCURVE",
"249 119 OFFCURVE",
"249 226 CURVE SMOOTH",
"249 247 OFFCURVE",
"245 284 OFFCURVE",
"239 318 CURVE",
"236 327 LINE",
"222 397 OFFCURVE",
"217 440 OFFCURVE",
"217 477 CURVE SMOOTH",
"217 570 OFFCURVE",
"276 640 OFFCURVE",
"353 640 CURVE SMOOTH",
"394 640 OFFCURVE",
"418 634 OFFCURVE",
"448 617 CURVE",
"451 651 LINE",
"425 665 OFFCURVE",
"398 672 OFFCURVE",
"353 672 CURVE SMOOTH",
"272 672 OFFCURVE",
"181 604 OFFCURVE",
"181 473 CURVE SMOOTH",
"181 441 OFFCURVE",
"187 392 OFFCURVE",
"200 327 CURVE",
"204 316 LINE",
"210 281 OFFCURVE",
"213 254 OFFCURVE",
"213 224 CURVE SMOOTH",
"213 116 OFFCURVE",
"140 50 OFFCURVE",
"74 25 CURVE",
"74 1 LINE",
"441 1 LINE"
);
}
);
width = 489;
},
{
layerId = "24BDA9C5-7BA7-4A63-82ED-F7EF9C664871";
name = Bold;
paths = (
{
closed = 1;
nodes = (
"45 369 LINE",
"45 285 LINE",
"452 285 LINE",
"452 369 LINE"
);
},
{
closed = 1;
nodes = (
"487 113 LINE",
"212 113 LINE",
"256 131 OFFCURVE",
"291 169 OFFCURVE",
"291 236 CURVE SMOOTH",
"291 273 OFFCURVE",
"286 304 OFFCURVE",
"278 347 CURVE SMOOTH",
"268 400 OFFCURVE",
"266 428 OFFCURVE",
"266 459 CURVE SMOOTH",
"266 521 OFFCURVE",
"313 560 OFFCURVE",
"364 560 CURVE SMOOTH",
"413 560 OFFCURVE",
"450 551 OFFCURVE",
"482 534 CURVE",
"487 646 LINE",
"460 661 OFFCURVE",
"413 672 OFFCURVE",
"360 672 CURVE SMOOTH",
"236 672 OFFCURVE",
"124 604 OFFCURVE",
"124 456 CURVE SMOOTH",
"124 426 OFFCURVE",
"130 386 OFFCURVE",
"135 353 CURVE SMOOTH",
"145 291 OFFCURVE",
"149 258 OFFCURVE",
"149 234 CURVE SMOOTH",
"149 166 OFFCURVE",
"97 116 OFFCURVE",
"50 105 CURVE",
"50 1 LINE",
"487 1 LINE"
);
}
);
width = 522;
}
);
unicode = 00A3;
},
{
glyphname = yen;
lastChange = "2012-11-27 07:05:40 +0000";
layers = (
{
layerId = "FE64E73E-EA44-4B20-B2ED-18E4C3E872F4";
name = Regular;
paths = (
{
closed = 1;
nodes = (
"373 655 LINE",
"248 380 LINE",
"130 655 LINE",
"28 655 LINE",
"172 376 LINE",
"68 376 LINE",
"68 322 LINE",
"205 322 LINE",
"205 261 LINE",
"68 261 LINE",
"68 207 LINE",
"205 207 LINE",
"205 0 LINE",
"287 0 LINE",
"287 207 LINE",
"424 207 LINE",
"424 261 LINE",
"287 261 LINE",
"287 322 LINE",
"424 322 LINE",
"424 376 LINE",
"318 376 LINE",
"463 655 LINE"
);
}
);
width = 490;
},
{
layerId = "6D2C0C40-443C-46D1-B6D4-3F78476E95FC";
name = Light;
paths = (
{
closed = 1;
nodes = (
"394 655 LINE",
"240 362 LINE",
"91 655 LINE",
"50 655 LINE",
"205 366 LINE",
"85 366 LINE",
"85 338 LINE",
"222 338 LINE",
"222 251 LINE",
"85 251 LINE",
"85 223 LINE",
"222 223 LINE",
"222 0 LINE",
"256 0 LINE",
"256 223 LINE",
"393 223 LINE",
"393 251 LINE",
"256 251 LINE",
"256 338 LINE",
"393 338 LINE",
"393 366 LINE",
"276 366 LINE",
"430 655 LINE"
);
}
);
width = 480;
},
{
layerId = "24BDA9C5-7BA7-4A63-82ED-F7EF9C664871";
name = Bold;
paths = (
{
closed = 1;
nodes = (
"368 655 LINE",
"262 380 LINE",
"154 655 LINE",
"14 655 LINE",
"155 374 LINE",
"76 374 LINE",
"76 296 LINE",
"193 296 LINE",
"193 241 LINE",
"76 241 LINE",
"76 157 LINE",
"193 157 LINE",
"193 0 LINE",
"325 0 LINE",
"324 157 LINE",
"441 157 LINE",
"441 241 LINE",
"324 241 LINE",
"324 296 LINE",
"441 296 LINE",
"441 374 LINE",
"361 374 LINE",
"508 655 LINE"
);
}
);
width = 522;
}
);
unicode = 00A5;
},
{
glyphname = asciitilde;
lastChange = "2012-11-27 07:05:40 +0000";
layers = (
{
layerId = "FE64E73E-EA44-4B20-B2ED-18E4C3E872F4";
name = Regular;
paths = (
{
closed = 1;
nodes = (
"455 333 LINE",
"455 265 OFFCURVE",
"440 240 OFFCURVE",
"398 240 CURVE SMOOTH",
"378 240 OFFCURVE",
"353 247 OFFCURVE",
"290 282 CURVE SMOOTH",
"225 317 OFFCURVE",
"191 329 OFFCURVE",
"155 329 CURVE SMOOTH",
"89 329 OFFCURVE",
"48 291 OFFCURVE",
"48 183 CURVE",
"99 183 LINE",
"99 251 OFFCURVE",
"114 276 OFFCURVE",
"156 276 CURVE SMOOTH",
"176 276 OFFCURVE",
"201 268 OFFCURVE",
"264 234 CURVE SMOOTH",
"329 199 OFFCURVE",
"363 187 OFFCURVE",
"399 187 CURVE SMOOTH",
"465 187 OFFCURVE",
"506 225 OFFCURVE",
"506 333 CURVE"
);
}
);
width = 554;
},
{
layerId = "6D2C0C40-443C-46D1-B6D4-3F78476E95FC";
name = Light;
paths = (
{
closed = 1;
nodes = (
"475 333 LINE",
"475 265 OFFCURVE",
"444 239 OFFCURVE",
"402 239 CURVE SMOOTH",
"380 239 OFFCURVE",
"352 245 OFFCURVE",
"290 280 CURVE SMOOTH",
"226 316 OFFCURVE",
"194 326 OFFCURVE",
"159 326 CURVE SMOOTH",
"95 326 OFFCURVE",
"58 278 OFFCURVE",
"58 203 CURVE",
"87 203 LINE",
"87 271 OFFCURVE",
"118 297 OFFCURVE",
"160 297 CURVE SMOOTH",
"182 297 OFFCURVE",
"210 290 OFFCURVE",
"272 256 CURVE SMOOTH",
"336 221 OFFCURVE",
"368 210 OFFCURVE",
"403 210 CURVE SMOOTH",
"467 210 OFFCURVE",
"504 258 OFFCURVE",
"504 333 CURVE"
);
}
);
width = 562;
},
{
layerId = "24BDA9C5-7BA7-4A63-82ED-F7EF9C664871";
name = Bold;
paths = (
{
closed = 1;
nodes = (
"443 349 LINE",
"443 284 OFFCURVE",
"428 257 OFFCURVE",
"396 257 CURVE SMOOTH",
"376 257 OFFCURVE",
"347 267 OFFCURVE",
"296 299 CURVE SMOOTH",
"234 338 OFFCURVE",
"203 347 OFFCURVE",
"167 347 CURVE SMOOTH",
"88 347 OFFCURVE",
"38 301 OFFCURVE",
"38 167 CURVE",
"123 167 LINE",
"123 232 OFFCURVE",
"138 259 OFFCURVE",
"170 259 CURVE SMOOTH",
"190 259 OFFCURVE",
"209 254 OFFCURVE",
"270 217 CURVE SMOOTH",
"326 183 OFFCURVE",
"363 169 OFFCURVE",
"399 169 CURVE SMOOTH",
"481 169 OFFCURVE",
"528 215 OFFCURVE",
"528 349 CURVE"
);
}
);
width = 566;
}
);
unicode = 007E;
},
{
glyphname = equal;
lastChange = "2012-11-27 07:05:40 +0000";
layers = (
{
layerId = "FE64E73E-EA44-4B20-B2ED-18E4C3E872F4";
name = Regular;
paths = (
{
closed = 1;
nodes = (
"56 385 LINE",
"56 337 LINE",
"522 337 LINE",
"522 385 LINE"
);
},
{
closed = 1;
nodes = (
"56 203 LINE",
"56 155 LINE",
"522 155 LINE",
"522 203 LINE"
);
}
);
width = 578;
},
{
layerId = "6D2C0C40-443C-46D1-B6D4-3F78476E95FC";
name = Light;
paths = (
{
closed = 1;
nodes = (
"66 385 LINE",
"66 357 LINE",
"532 357 LINE",
"532 385 LINE"
);
},
{
closed = 1;
nodes = (
"66 183 LINE",
"66 155 LINE",
"532 155 LINE",
"532 183 LINE"
);
}
);
width = 598;
},
{
layerId = "24BDA9C5-7BA7-4A63-82ED-F7EF9C664871";
name = Bold;
paths = (
{
closed = 1;
nodes = (
"56 413 LINE",
"56 329 LINE",
"522 329 LINE",
"522 413 LINE"
);
},
{
closed = 1;
nodes = (
"56 211 LINE",
"56 127 LINE",
"522 127 LINE",
"522 211 LINE"
);
}
);
width = 578;
}
);
unicode = 003D;
},
{
glyphname = greater;
lastChange = "2012-11-27 07:05:40 +0000";
layers = (
{
layerId = "FE64E73E-EA44-4B20-B2ED-18E4C3E872F4";
name = Regular;
paths = (
{
closed = 1;
nodes = (
"61 433 LINE",
"411 249 LINE",
"61 66 LINE",
"61 4 LINE",
"462 214 LINE",
"462 286 LINE",
"61 497 LINE"
);
}
);
width = 527;
},
{
layerId = "6D2C0C40-443C-46D1-B6D4-3F78476E95FC";
name = Light;
paths = (
{
closed = 1;
nodes = (
"81 436 LINE",
"443 251 LINE",
"81 67 LINE",
"81 30 LINE",
"482 237 LINE",
"482 263 LINE",
"81 471 LINE"
);
}
);
width = 568;
},
{
layerId = "24BDA9C5-7BA7-4A63-82ED-F7EF9C664871";
name = Bold;
paths = (
{
closed = 1;
nodes = (
"66 385 LINE",
"374 249 LINE",
"66 114 LINE",
"66 6 LINE",
"467 196 LINE",
"467 304 LINE",
"66 495 LINE"
);
}
);
width = 555;
}
);
unicode = 003E;
},
{
glyphname = less;
lastChange = "2012-11-27 07:05:40 +0000";
layers = (
{
layerId = "FE64E73E-EA44-4B20-B2ED-18E4C3E872F4";
name = Regular;
paths = (
{
closed = 1;
nodes = (
"65 287 LINE",
"65 215 LINE",
"466 4 LINE",
"466 68 LINE",
"116 252 LINE",
"466 435 LINE",
"466 497 LINE"
);
}
);
width = 527;
},
{
layerId = "6D2C0C40-443C-46D1-B6D4-3F78476E95FC";
name = Light;
paths = (
{
closed = 1;
nodes = (
"86 264 LINE",
"86 238 LINE",
"487 30 LINE",
"487 65 LINE",
"125 250 LINE",
"487 434 LINE",
"487 471 LINE"
);
}
);
width = 568;
},
{
layerId = "24BDA9C5-7BA7-4A63-82ED-F7EF9C664871";
name = Bold;
paths = (
{
closed = 1;
nodes = (
"66 305 LINE",
"66 197 LINE",
"467 6 LINE",
"467 116 LINE",
"159 252 LINE",
"467 387 LINE",
"467 495 LINE"
);
}
);
width = 555;
},
{
associatedMasterId = "FE64E73E-EA44-4B20-B2ED-18E4C3E872F4";
layerId = "5DAB4074-2411-452B-9DDF-76BDE0701090";
name = "new Layer";
width = 600;
}
);
unicode = 003C;
},
{
glyphname = percent;
lastChange = "2012-11-27 07:05:40 +0000";
layers = (
{
layerId = "FE64E73E-EA44-4B20-B2ED-18E4C3E872F4";
name = Regular;
paths = (
{
closed = 1;
nodes = (
"559 682 LINE",
"175 -20 LINE",
"239 -20 LINE",
"623 682 LINE"
);
},
{
closed = 1;
nodes = (
"124 672 OFFCURVE",
"59 603 OFFCURVE",
"59 496 CURVE SMOOTH",
"59 389 OFFCURVE",
"124 320 OFFCURVE",
"214 320 CURVE SMOOTH",
"303 320 OFFCURVE",
"369 389 OFFCURVE",
"369 496 CURVE SMOOTH",
"369 603 OFFCURVE",
"303 672 OFFCURVE",
"214 672 CURVE SMOOTH"
);
},
{
closed = 1;
nodes = (
"258 614 OFFCURVE",
"293 576 OFFCURVE",
"293 496 CURVE SMOOTH",
"293 416 OFFCURVE",
"258 378 OFFCURVE",
"214 378 CURVE SMOOTH",
"170 378 OFFCURVE",
"135 416 OFFCURVE",
"135 496 CURVE SMOOTH",
"135 576 OFFCURVE",
"170 614 OFFCURVE",
"214 614 CURVE SMOOTH"
);
},
{
closed = 1;
nodes = (
"494 342 OFFCURVE",
"429 273 OFFCURVE",
"429 166 CURVE SMOOTH",
"429 59 OFFCURVE",
"494 -10 OFFCURVE",
"584 -10 CURVE SMOOTH",
"673 -10 OFFCURVE",
"739 59 OFFCURVE",
"739 166 CURVE SMOOTH",
"739 273 OFFCURVE",
"673 342 OFFCURVE",
"584 342 CURVE SMOOTH"
);
},
{
closed = 1;
nodes = (
"628 284 OFFCURVE",
"663 246 OFFCURVE",
"663 166 CURVE SMOOTH",
"663 86 OFFCURVE",
"628 48 OFFCURVE",
"584 48 CURVE SMOOTH",
"540 48 OFFCURVE",
"505 86 OFFCURVE",
"505 166 CURVE SMOOTH",
"505 246 OFFCURVE",
"540 284 OFFCURVE",
"584 284 CURVE SMOOTH"
);
}
);
width = 798;
},
{
layerId = "6D2C0C40-443C-46D1-B6D4-3F78476E95FC";
name = Light;
paths = (
{
closed = 1;
nodes = (
"556 682 LINE",
"172 -20 LINE",
"206 -20 LINE",
"590 682 LINE"
);
},
{
closed = 1;
nodes = (
"116 672 OFFCURVE",
"69 598 OFFCURVE",
"69 496 CURVE SMOOTH",
"69 395 OFFCURVE",
"116 320 OFFCURVE",
"195 320 CURVE SMOOTH",
"274 320 OFFCURVE",
"321 395 OFFCURVE",
"321 496 CURVE SMOOTH",
"321 598 OFFCURVE",
"274 672 OFFCURVE",
"195 672 CURVE SMOOTH"
);
},
{
closed = 1;
nodes = (
"249 644 OFFCURVE",
"289 594 OFFCURVE",
"289 496 CURVE SMOOTH",
"289 398 OFFCURVE",
"250 348 OFFCURVE",
"195 348 CURVE SMOOTH",
"141 348 OFFCURVE",
"101 398 OFFCURVE",
"101 496 CURVE SMOOTH",
"101 594 OFFCURVE",
"141 644 OFFCURVE",
"195 644 CURVE SMOOTH"
);
},
{
closed = 1;
nodes = (
"468 342 OFFCURVE",
"421 268 OFFCURVE",
"421 166 CURVE SMOOTH",
"421 65 OFFCURVE",
"468 -10 OFFCURVE",
"547 -10 CURVE SMOOTH",
"626 -10 OFFCURVE",
"673 65 OFFCURVE",
"673 166 CURVE SMOOTH",
"673 268 OFFCURVE",
"626 342 OFFCURVE",
"547 342 CURVE SMOOTH"
);
},
{
closed = 1;
nodes = (
"601 314 OFFCURVE",
"641 264 OFFCURVE",
"641 166 CURVE SMOOTH",
"641 68 OFFCURVE",
"602 18 OFFCURVE",
"547 18 CURVE SMOOTH",
"493 18 OFFCURVE",
"453 68 OFFCURVE",
"453 166 CURVE SMOOTH",
"453 264 OFFCURVE",
"493 314 OFFCURVE",
"547 314 CURVE SMOOTH"
);
}
);
width = 742;
},
{
layerId = "24BDA9C5-7BA7-4A63-82ED-F7EF9C664871";
name = Bold;
paths = (
{
closed = 1;
nodes = (
"538 682 LINE",
"194 -20 LINE",
"298 -20 LINE",
"644 682 LINE"
);
},
{
closed = 1;
nodes = (
"113 672 OFFCURVE",
"40 610 OFFCURVE",
"40 496 CURVE SMOOTH",
"40 383 OFFCURVE",
"113 320 OFFCURVE",
"203 320 CURVE SMOOTH",
"292 320 OFFCURVE",
"366 383 OFFCURVE",
"366 496 CURVE SMOOTH",
"366 610 OFFCURVE",
"292 672 OFFCURVE",
"203 672 CURVE SMOOTH"
);
},
{
closed = 1;
nodes = (
"244 588 OFFCURVE",
"262 546 OFFCURVE",
"262 496 CURVE SMOOTH",
"262 446 OFFCURVE",
"244 404 OFFCURVE",
"203 404 CURVE SMOOTH",
"162 404 OFFCURVE",
"144 446 OFFCURVE",
"144 496 CURVE SMOOTH",
"144 546 OFFCURVE",
"162 588 OFFCURVE",
"203 588 CURVE SMOOTH"
);
},
{
closed = 1;
nodes = (
"545 342 OFFCURVE",
"472 280 OFFCURVE",
"472 166 CURVE SMOOTH",
"472 53 OFFCURVE",
"545 -10 OFFCURVE",
"635 -10 CURVE SMOOTH",
"724 -10 OFFCURVE",
"798 53 OFFCURVE",
"798 166 CURVE SMOOTH",
"798 280 OFFCURVE",
"724 342 OFFCURVE",
"635 342 CURVE SMOOTH"
);
},
{
closed = 1;
nodes = (
"676 258 OFFCURVE",
"694 216 OFFCURVE",
"694 166 CURVE SMOOTH",
"694 116 OFFCURVE",
"676 74 OFFCURVE",
"635 74 CURVE SMOOTH",
"594 74 OFFCURVE",
"576 116 OFFCURVE",
"576 166 CURVE SMOOTH",
"576 216 OFFCURVE",
"594 258 OFFCURVE",
"635 258 CURVE SMOOTH"
);
}
);
width = 838;
}
);
unicode = 0025;
},
{
glyphname = plus;
lastChange = "2012-11-27 07:05:40 +0000";
layers = (
{
layerId = "FE64E73E-EA44-4B20-B2ED-18E4C3E872F4";
name = Regular;
paths = (
{
closed = 1;
nodes = (
"243 510 LINE",
"243 294 LINE",
"49 294 LINE",
"49 246 LINE",
"243 246 LINE",
"243 30 LINE",
"299 30 LINE",
"299 246 LINE",
"493 246 LINE",
"493 294 LINE",
"299 294 LINE",
"299 510 LINE"
);
}
);
width = 542;
},
{
layerId = "6D2C0C40-443C-46D1-B6D4-3F78476E95FC";
name = Light;
paths = (
{
closed = 1;
nodes = (
"266 510 LINE",
"266 284 LINE",
"59 284 LINE",
"59 256 LINE",
"266 256 LINE",
"266 30 LINE",
"296 30 LINE",
"296 256 LINE",
"503 256 LINE",
"503 284 LINE",
"296 284 LINE",
"296 510 LINE"
);
}
);
width = 562;
},
{
layerId = "24BDA9C5-7BA7-4A63-82ED-F7EF9C664871";
name = Bold;
paths = (
{
closed = 1;
nodes = (
"224 510 LINE",
"224 312 LINE",
"49 312 LINE",
"49 228 LINE",
"224 228 LINE",
"224 30 LINE",
"318 30 LINE",
"318 228 LINE",
"493 228 LINE",
"493 312 LINE",
"318 312 LINE",
"318 510 LINE"
);
}
);
width = 542;
}
);
unicode = 002B;
},
{
glyphname = bar;
lastChange = "2012-11-27 07:05:40 +0000";
layers = (
{
layerId = "FE64E73E-EA44-4B20-B2ED-18E4C3E872F4";
name = Regular;
paths = (
{
closed = 1;
nodes = (
"120 765 LINE",
"120 -235 LINE",
"176 -235 LINE",
"176 765 LINE"
);
}
);
width = 296;
},
{
layerId = "6D2C0C40-443C-46D1-B6D4-3F78476E95FC";
name = Light;
paths = (
{
closed = 1;
nodes = (
"150 765 LINE",
"150 -235 LINE",
"180 -235 LINE",
"180 765 LINE"
);
}
);
width = 330;
},
{
layerId = "24BDA9C5-7BA7-4A63-82ED-F7EF9C664871";
name = Bold;
paths = (
{
closed = 1;
nodes = (
"100 765 LINE",
"100 -235 LINE",
"194 -235 LINE",
"194 765 LINE"
);
}
);
width = 294;
}
);
unicode = 007C;
},
